<svg xmlns="http://www.w3.org/2000/svg" xmlns:xlink="http://www.w3.org/1999/xlink" width="420.48" height="318.232" viewBox="0 0 420.48 318.232">
  <defs>
    <clipPath id="clip-path">
      <rect id="Rectángulo_456638" data-name="Rectángulo 456638" width="277.222" height="282.875" fill="none"/>
    </clipPath>
    <clipPath id="clip-path-2">
      <rect id="Rectángulo_456628" data-name="Rectángulo 456628" width="277.221" height="282.875" fill="none"/>
    </clipPath>
    <clipPath id="clip-path-3">
      <rect id="Rectángulo_456601" data-name="Rectángulo 456601" width="139.749" height="65.966" fill="none"/>
    </clipPath>
    <clipPath id="clip-path-4">
      <rect id="Rectángulo_456617" data-name="Rectángulo 456617" width="40.17" height="24.257" fill="none"/>
    </clipPath>
    <clipPath id="clip-path-5">
      <rect id="Rectángulo_456618" data-name="Rectángulo 456618" width="48.073" height="29.03" fill="none"/>
    </clipPath>
    <clipPath id="clip-path-6">
      <rect id="Rectángulo_456619" data-name="Rectángulo 456619" width="30.242" height="21.008" fill="none"/>
    </clipPath>
    <clipPath id="clip-path-7">
      <rect id="Rectángulo_456620" data-name="Rectángulo 456620" width="40.361" height="22.109" fill="none"/>
    </clipPath>
    <clipPath id="clip-path-8">
      <rect id="Rectángulo_456621" data-name="Rectángulo 456621" width="45.803" height="26.724" fill="none"/>
    </clipPath>
    <clipPath id="clip-path-9">
      <rect id="Rectángulo_456622" data-name="Rectángulo 456622" width="37.466" height="20.029" fill="none"/>
    </clipPath>
    <clipPath id="clip-path-10">
      <path id="Trazado_1000572" data-name="Trazado 1000572" d="M1080.716,1259.023l1.394,31.835h83.813v-31.835Z" transform="translate(-1080.716 -1259.023)" fill="none"/>
    </clipPath>
    <clipPath id="clip-path-11">
      <rect id="Rectángulo_456633" data-name="Rectángulo 456633" width="52.03" height="30.949" fill="none"/>
    </clipPath>
    <clipPath id="clip-path-13">
      <rect id="Rectángulo_456635" data-name="Rectángulo 456635" width="37.483" height="25.626" fill="none"/>
    </clipPath>
    <clipPath id="clip-path-15">
      <rect id="Rectángulo_456637" data-name="Rectángulo 456637" width="48.313" height="14.633" fill="none"/>
    </clipPath>
  </defs>
  <g id="Grupo_1186334" data-name="Grupo 1186334" transform="translate(-494.52 -9181.209)">
    <g id="Grupo_1186237" data-name="Grupo 1186237" transform="translate(315 5925.797)">
      <rect id="Rectángulo_402012" data-name="Rectángulo 402012" width="420" height="318.233" transform="translate(179.52 3255.412)" fill="#ffdd8b"/>
      <rect id="Rectángulo_402030" data-name="Rectángulo 402030" width="420" height="60.224" transform="translate(180 3513.421)" fill="#d0fae7"/>
    </g>
    <g id="Grupo_1186333" data-name="Grupo 1186333" transform="translate(565.62 9198.888)">
      <g id="Grupo_1186332" data-name="Grupo 1186332" clip-path="url(#clip-path)">
        <g id="Grupo_1186319" data-name="Grupo 1186319">
          <g id="Grupo_1186318" data-name="Grupo 1186318" clip-path="url(#clip-path-2)">
            <path id="Trazado_1000522" data-name="Trazado 1000522" d="M277.383,138.641q0,1.428-.03,2.846-.08,4.009-.387,7.961A138.454,138.454,0,0,1,153.922,276.464q-4.974.541-10.052.725h-.02q-1.813.065-3.643.087c-.337.007-.678.007-1.015.007h-.2c-.408,0-.815,0-1.222-.007q-1.929-.01-3.847-.08a139.178,139.178,0,0,1-19.928-2.128q-2.174-.391-4.318-.855c-.361-.073-.721-.154-1.082-.234A138.443,138.443,0,0,1,.692,150.494c-.03-.348-.057-.7-.083-1.046Q.3,145.5.221,141.488q-.03-1.418-.03-2.846a138.6,138.6,0,1,1,277.192,0" transform="translate(-0.162)" fill="#f2e6dc"/>
            <g id="Grupo_1186299" data-name="Grupo 1186299" transform="translate(76.642 8.06)" opacity="0.4">
              <g id="Grupo_1186298" data-name="Grupo 1186298">
                <g id="Grupo_1186297" data-name="Grupo 1186297" clip-path="url(#clip-path-3)">
                  <path id="Trazado_1000523" data-name="Trazado 1000523" d="M588.637,77.984c6.349,5.686,18.809-10.784,28.67,10.442,5.82,12.527,13.662,2.729,20.826,8.244,4.656,3.585,8.44,10.6,6.668,22.46-2.674-.772-7.417-.173-10.091-.945-.286-2.7-.6-10.224-6.9-11.541-7.7-1.608-15.71,11.96-25.761,8.294-8.469-3.089-6.98-15.072-15.21-19.2-9.874-4.95-18.856,1.071-32.547,5.954-5.135,1.832-15.594,2.551-19.514,2.551-7.589,0-27.227-3.411-19.214-16.952,4.47-7.553-10.807-8.3-10.034-12.709,2.365-13.5,32.111-42.275,83.111,3.4" transform="translate(-505.497 -53.164)" fill="#fff"/>
                </g>
              </g>
            </g>
            <path id="Trazado_1000524" data-name="Trazado 1000524" d="M1318.8,516.263h-28.536l1.364-21.424,7.119-8.141-6.083-8.141.9-14.14H1315.5l.9,14.14-6.083,8.141,7.119,8.141Z" transform="translate(-1094.641 -394.004)" fill="#d3bba3"/>
            <path id="Trazado_1000525" data-name="Trazado 1000525" d="M1299.262,573.959h25.808l-1.036-16.282H1300.3Z" transform="translate(-1102.272 -473.124)" fill="#fff"/>
            <path id="Trazado_1000526" data-name="Trazado 1000526" d="M1090.208,516.263h-28.536l1.364-21.424,7.119-8.141-6.083-8.141.9-14.14h21.935l.9,14.14-6.083,8.141,7.119,8.141Z" transform="translate(-900.704 -394.004)" fill="#d3bba3"/>
            <path id="Trazado_1000527" data-name="Trazado 1000527" d="M1070.667,573.959h25.808l-1.036-16.282H1071.7Z" transform="translate(-908.335 -473.124)" fill="#fff"/>
            <rect id="Rectángulo_456602" data-name="Rectángulo 456602" width="74.37" height="15.896" transform="translate(153.635 122.141)" fill="#e6d0be"/>
            <rect id="Rectángulo_456603" data-name="Rectángulo 456603" width="70.458" height="2.663" transform="translate(155.548 125.735)" fill="#f7f1eb"/>
            <rect id="Rectángulo_456604" data-name="Rectángulo 456604" width="70.458" height="2.663" transform="translate(155.548 131.538)" fill="#f7f1eb"/>
            <path id="Trazado_1000528" data-name="Trazado 1000528" d="M904.766,271.761h14.078l-2.551-119.455h-8.976Z" transform="translate(-767.588 -129.215)" fill="#fff"/>
            <path id="Trazado_1000529" data-name="Trazado 1000529" d="M911.074,271.76h-6.308l2.551-119.455h3.757Z" transform="translate(-767.588 -129.213)" fill="#f7f1eb"/>
            <path id="Trazado_1000530" data-name="Trazado 1000530" d="M920.578,160l.154-7.7h8.976l.154,7.7Z" transform="translate(-781.003 -129.214)" fill="#d3bba3"/>
            <path id="Trazado_1000531" data-name="Trazado 1000531" d="M928.463,260.575h-9.892l.154-7.7h9.584Z" transform="translate(-779.3 -214.536)" fill="#d3bba3"/>
            <path id="Trazado_1000532" data-name="Trazado 1000532" d="M927.065,361.146h-10.5l.154-7.7h10.193Z" transform="translate(-777.598 -299.859)" fill="#d3bba3"/>
            <path id="Trazado_1000533" data-name="Trazado 1000533" d="M925.667,461.717H914.558l.154-7.7h10.8Z" transform="translate(-775.895 -385.182)" fill="#d3bba3"/>
            <path id="Trazado_1000534" data-name="Trazado 1000534" d="M753.338,271.761h14.078l-2.551-119.455h-8.976Z" transform="translate(-639.119 -129.215)" fill="#fff"/>
            <path id="Trazado_1000535" data-name="Trazado 1000535" d="M759.646,271.989h-6.308l2.55-119.414,3.758.006Z" transform="translate(-639.119 -129.442)" fill="#f7f1eb"/>
            <path id="Trazado_1000536" data-name="Trazado 1000536" d="M769.15,160l.154-7.7h8.976l.154,7.7Z" transform="translate(-652.534 -129.214)" fill="#d3bba3"/>
            <path id="Trazado_1000537" data-name="Trazado 1000537" d="M776.856,260.575h-9.924l.164-7.7H776.7Z" transform="translate(-650.652 -214.536)" fill="#d3bba3"/>
            <path id="Trazado_1000538" data-name="Trazado 1000538" d="M775.338,361.076H764.784l.165-7.71,10.235.012Z" transform="translate(-648.83 -299.79)" fill="#d3bba3"/>
            <path id="Trazado_1000539" data-name="Trazado 1000539" d="M773.82,461.717H762.636l.164-7.7h10.865Z" transform="translate(-647.007 -385.182)" fill="#d3bba3"/>
            <path id="Trazado_1000540" data-name="Trazado 1000540" d="M763.242,630.9V616.21L753.534,630.9V616.21L743.826,630.9V616.21L724.85,644.923h48.1V616.21Z" transform="translate(-614.95 -522.782)" fill="#d3bba3"/>
            <rect id="Rectángulo_456605" data-name="Rectángulo 456605" width="43.988" height="23.631" transform="translate(109.646 114.407)" fill="#f7f1eb"/>
            <rect id="Rectángulo_456606" data-name="Rectángulo 456606" width="5.391" height="10.069" transform="translate(142.703 118.943)" fill="#e6d0be"/>
            <rect id="Rectángulo_456607" data-name="Rectángulo 456607" width="5.391" height="10.069" transform="translate(129.547 118.943)" fill="#e6d0be"/>
            <rect id="Rectángulo_456608" data-name="Rectángulo 456608" width="5.391" height="10.069" transform="translate(116.391 118.943)" fill="#e6d0be"/>
            <rect id="Rectángulo_456609" data-name="Rectángulo 456609" width="31.578" height="24.644" transform="translate(241.306 113.168)" fill="#d3bba3"/>
            <rect id="Rectángulo_456610" data-name="Rectángulo 456610" width="31.578" height="24.644" transform="translate(228.005 113.168)" fill="#f7f1eb"/>
            <rect id="Rectángulo_456611" data-name="Rectángulo 456611" width="4.945" height="4.944" transform="translate(231.248 116.593)" fill="#e6d0be"/>
            <rect id="Rectángulo_456612" data-name="Rectángulo 456612" width="4.945" height="4.944" transform="translate(231.248 126.463)" fill="#e6d0be"/>
            <rect id="Rectángulo_456613" data-name="Rectángulo 456613" width="4.945" height="4.944" transform="translate(241.12 116.593)" fill="#e6d0be"/>
            <rect id="Rectángulo_456614" data-name="Rectángulo 456614" width="4.945" height="4.944" transform="translate(241.12 126.463)" fill="#e6d0be"/>
            <rect id="Rectángulo_456615" data-name="Rectángulo 456615" width="4.945" height="4.944" transform="translate(250.993 116.593)" fill="#e6d0be"/>
            <rect id="Rectángulo_456616" data-name="Rectángulo 456616" width="4.945" height="4.944" transform="translate(250.993 126.463)" fill="#e6d0be"/>
            <g id="Grupo_1186302" data-name="Grupo 1186302" transform="translate(41.03)" opacity="0.3">
              <g id="Grupo_1186301" data-name="Grupo 1186301">
                <g id="Grupo_1186300" data-name="Grupo 1186300" clip-path="url(#clip-path-4)">
                  <path id="Trazado_1000541" data-name="Trazado 1000541" d="M305.04,3.531a5.735,5.735,0,0,0-2.8.726,7.689,7.689,0,0,0-14.325,1.506,5.591,5.591,0,0,0-7.828,5.024,6.958,6.958,0,1,0,3.865,9.417,5.756,5.756,0,0,0,10.283-.777,5.737,5.737,0,0,0,10.045-4.5,5.841,5.841,0,0,0,.76.051,5.726,5.726,0,1,0,0-11.451" transform="translate(-270.617)" fill="#363e44"/>
                </g>
              </g>
            </g>
            <g id="Grupo_1186305" data-name="Grupo 1186305" transform="translate(36.483 9.238)" opacity="0.3">
              <g id="Grupo_1186304" data-name="Grupo 1186304">
                <g id="Grupo_1186303" data-name="Grupo 1186303" clip-path="url(#clip-path-5)">
                  <path id="Trazado_1000542" data-name="Trazado 1000542" d="M281.821,65.161a6.864,6.864,0,0,0-3.352.869,9.2,9.2,0,0,0-17.143,1.8,6.692,6.692,0,0,0-9.368,6.013,8.327,8.327,0,1,0,4.626,11.269,6.889,6.889,0,0,0,12.306-.93A6.866,6.866,0,0,0,280.911,78.8a6.974,6.974,0,0,0,.909.061,6.852,6.852,0,1,0,0-13.7" transform="translate(-240.626 -60.934)" fill="#363e44"/>
                </g>
              </g>
            </g>
            <g id="Grupo_1186308" data-name="Grupo 1186308" transform="translate(114.525 4.489)" opacity="0.3">
              <g id="Grupo_1186307" data-name="Grupo 1186307">
                <g id="Grupo_1186306" data-name="Grupo 1186306" clip-path="url(#clip-path-6)">
                  <path id="Trazado_1000543" data-name="Trazado 1000543" d="M759.56,44.26a5.848,5.848,0,0,0,2.828.068,7.413,7.413,0,0,0,13.919,2.337,6.82,6.82,0,0,0,2,1c6.664,2.282,9.655-4.32,5.12-7.833,2.9-5.962-1-8.6-2.994-9.145a7.107,7.107,0,0,0-6.728,2.048,5.737,5.737,0,0,0-3.622-2.909,5.508,5.508,0,0,0-6.851,3.673,5.1,5.1,0,0,0-.138.695,5.95,5.95,0,0,0-.706-.242,5.353,5.353,0,1,0-2.832,10.31" transform="translate(-755.358 -29.613)" fill="#363e44"/>
                </g>
              </g>
            </g>
            <g id="Grupo_1186311" data-name="Grupo 1186311" transform="translate(134.875 12.571)" opacity="0.3">
              <g id="Grupo_1186310" data-name="Grupo 1186310">
                <g id="Grupo_1186309" data-name="Grupo 1186309" clip-path="url(#clip-path-7)">
                  <path id="Trazado_1000544" data-name="Trazado 1000544" d="M926.594,90.534a5.479,5.479,0,0,0-2.8-.413,7.46,7.46,0,0,0-4.46-6.6,7.574,7.574,0,0,0-9,2.447,5.306,5.306,0,0,0-1.822-1.3,5.556,5.556,0,0,0-7.222,2.915,6.631,6.631,0,0,0-2.044-1.381,7.024,7.024,0,0,0-5.6,12.877,6.843,6.843,0,0,0,7.325-1.288,5.566,5.566,0,0,0,3.306,4.522,5.64,5.64,0,0,0,6.231-1.257,5.521,5.521,0,0,0,3.1,3.521,5.716,5.716,0,0,0,7.46-3.069,5.963,5.963,0,0,0,.258-.72,5.5,5.5,0,0,0,.661.342,5.778,5.778,0,0,0,4.609-10.591" transform="translate(-889.576 -82.914)" fill="#363e44"/>
                </g>
              </g>
            </g>
            <g id="Grupo_1186314" data-name="Grupo 1186314" transform="translate(77.518 2.153)" opacity="0.3">
              <g id="Grupo_1186313" data-name="Grupo 1186313">
                <g id="Grupo_1186312" data-name="Grupo 1186312" clip-path="url(#clip-path-8)">
                  <path id="Trazado_1000545" data-name="Trazado 1000545" d="M554.335,26.3a6.23,6.23,0,0,0-3.112-1.069,8.622,8.622,0,0,0-3.546-8.593,8.833,8.833,0,0,0-10.87.945,6.007,6.007,0,0,0-1.778-1.89,6.526,6.526,0,0,0-8.951,1.86,7.51,7.51,0,0,0-2.013-2.031,8.168,8.168,0,0,0-11.257,2.418,8.1,8.1,0,0,0,1.81,11.33,7.931,7.931,0,0,0,8.684.047,6.417,6.417,0,0,0,2.717,5.937,6.548,6.548,0,0,0,7.425-.147,6.33,6.33,0,0,0,2.72,4.734,6.718,6.718,0,0,0,9.259-1.989,7.28,7.28,0,0,0,.465-.78,6.207,6.207,0,0,0,.676.535A6.87,6.87,0,0,0,554.335,26.3" transform="translate(-511.278 -14.204)" fill="#363e44"/>
                </g>
              </g>
            </g>
            <g id="Grupo_1186317" data-name="Grupo 1186317" transform="translate(98.996 19.466)" opacity="0.3">
              <g id="Grupo_1186316" data-name="Grupo 1186316">
                <g id="Grupo_1186315" data-name="Grupo 1186315" clip-path="url(#clip-path-9)">
                  <path id="Trazado_1000546" data-name="Trazado 1000546" d="M656.245,141.74a5.217,5.217,0,0,0,2.611.314,6.985,6.985,0,0,0,12.618,3.475,5.089,5.089,0,0,0,8.3-1.655,6.336,6.336,0,1,0,6.6-10.568c-2.382-.934-4.639-.988-6.373.668-.283-1.757-1.811-2.669-3.594-3.368a5.238,5.238,0,0,0-5.711,1.271,5.222,5.222,0,0,0-10,.474,5.208,5.208,0,1,0-4.45,9.39" transform="translate(-652.932 -128.392)" fill="#363e44"/>
                </g>
              </g>
            </g>
            <path id="Trazado_1000547" data-name="Trazado 1000547" d="M277.131,910.112a125.252,125.252,0,0,1-1.744,22.949,138.684,138.684,0,0,1-113.125,114.5q-4.261.734-8.561,1.2-4.974.541-10.052.725h-.02q-1.813.065-3.643.087c-.337.007-.678.007-1.015.007h-.2c-.408,0-.815,0-1.222-.007-1.222-.013-2.441-.04-3.657-.087a142.667,142.667,0,0,1-20.806-2.258q-1.823-.336-3.63-.719c-.361-.073-.721-.154-1.082-.234A138.715,138.715,0,0,1,23.912,988.85Q-.086,953.573,0,910.112s277.132,0,277.132,0" transform="translate(0 -772.122)" fill="#efbc73"/>
            <path id="Trazado_1000548" data-name="Trazado 1000548" d="M1386.519,622.325a.151.151,0,0,1-.042-.006l-4.124-1.194a.151.151,0,0,1-.1-.191l24.134-76.107a.152.152,0,0,1,.19-.1l4.091,1.3a.151.151,0,0,1,.1.19l-24.1,76a.152.152,0,0,1-.145.106m-3.932-1.448,3.833,1.11,24.01-75.717-3.8-1.207Z" transform="translate(-1172.671 -462.132)" fill="#363e44"/>
            <path id="Trazado_1000549" data-name="Trazado 1000549" d="M1443.094,177.268l-35.836,18.655a3.639,3.639,0,0,0-1.548,4.908l18.649,35.848a3.637,3.637,0,0,0,4.906,1.548l35.836-18.655a3.64,3.64,0,0,0,1.548-4.908L1448,178.816a3.637,3.637,0,0,0-4.906-1.548" transform="translate(-1192.231 -150.042)" fill="#d87355"/>
            <path id="Trazado_1000550" data-name="Trazado 1000550" d="M1460.427,266.213a.958.958,0,0,1-.564-.474l-16.546-31.806a.963.963,0,0,1,.409-1.3l31.8-16.551a.962.962,0,0,1,1.3.41l16.546,31.806a.963.963,0,0,1-.409,1.3l-31.8,16.552a.959.959,0,0,1-.734.064" transform="translate(-1224.392 -183.229)" fill="#fff"/>
            <path id="Trazado_1000551" data-name="Trazado 1000551" d="M1548.833,286.211h0a10.337,10.337,0,0,0-12.969,6.751l-2.7,8.556a2.8,2.8,0,0,0,1.83,3.518l1.249.394-1.99,6.312,2.056.653,1-3.16,1.19.371-1,3.16,2.117.678,1-3.16,1.234.393-1,3.16,2.031.627,1-3.16,1.189.419-1,3.16,2.057.605,1.99-6.312,1.248.394a2.8,2.8,0,0,0,3.517-1.831l2.7-8.556a10.342,10.342,0,0,0-6.749-12.973m-9.52,14.427a2.457,2.457,0,1,1,3.081-1.6,2.457,2.457,0,0,1-3.081,1.6m9.042,2.853a2.457,2.457,0,1,1,3.081-1.6,2.457,2.457,0,0,1-3.081,1.6" transform="translate(-1300.601 -242.408)" fill="#363e44"/>
            <path id="Trazado_1000552" data-name="Trazado 1000552" d="M974.079,959.46a4.212,4.212,0,0,0-3.736,2.016,5.463,5.463,0,0,0-4.222-1.859,6.046,6.046,0,0,0-1.512.191,3.969,3.969,0,0,0,.037-.531c0-2.571-2.482-4.654-5.543-4.654a6.293,6.293,0,0,0-3.042.765c-.592-3.089-3.781-5.449-7.627-5.449-4.141,0-7.521,2.736-7.717,6.172a6.731,6.731,0,0,0-3.153-.765,6.8,6.8,0,0,0-2.8.592,4.832,4.832,0,0,0,.183-1.313c0-3.141-3.033-5.687-6.773-5.687s-7.056,2.307-7.056,5.448c0,.129-.026.39-.016.517a4.727,4.727,0,0,0-1.885-.278,5.533,5.533,0,0,0-5.278,3.231A6.56,6.56,0,0,0,908.326,955a6.4,6.4,0,0,0-5.9,3.385,5.893,5.893,0,0,0-3.562-1.156,5.407,5.407,0,0,0-4.919,2.767,5.154,5.154,0,0,0-5.228-3.652c-2.939,0-5.321,2-5.321,4.468a3.792,3.792,0,0,0,.192,1.174,5.8,5.8,0,0,0-3.909-1.444c-2.694,0-4.914,1.682-5.266,3.862H977.787a2.974,2.974,0,0,0,.4-1.487c0-1.907-1.841-3.453-4.112-3.453m-80.666,3.453a4.192,4.192,0,0,0,.227-.405,3.864,3.864,0,0,0,.113.405Z" transform="translate(-741.839 -805.06)" fill="#f7f1eb"/>
            <path id="Trazado_1000553" data-name="Trazado 1000553" d="M215.622,973.675a3.127,3.127,0,0,0-2.935,2.042,3.591,3.591,0,0,0-4.117-1.585h0a4.4,4.4,0,0,0-6.761-4.357,5.97,5.97,0,0,0-11.69,1.219l0,0a5.142,5.142,0,0,0-7.158-.038l0,0a4.3,4.3,0,0,0-8.6-.028,4.073,4.073,0,0,0-5.338.8,4.045,4.045,0,0,0-7.833,1.012,3.687,3.687,0,0,0-6.1,1.95,2.586,2.586,0,0,0-1.926.167,2.482,2.482,0,0,0-.791.621,2.551,2.551,0,0,0-.514.939,2.959,2.959,0,0,0-4.735.328,2.91,2.91,0,0,0-.457,1.364,2.267,2.267,0,0,0,.174.289h24.733a3.686,3.686,0,0,0,1.149,0h40.214c.039.068.084.135.125.2.022-.068.038-.132.055-.2h5.21a3.128,3.128,0,0,0-2.694-4.723m-39.421,1.08c0-.02,0-.041,0-.061l.092.061h-.1Zm4.839-.022c.114-.076.224-.158.33-.244,0,.058,0,.119,0,.179v.064Z" transform="translate(-124.42 -819.081)" fill="#f7f1eb"/>
            <path id="Trazado_1000554" data-name="Trazado 1000554" d="M642.242,1369.748H610.86a2.849,2.849,0,0,1-2.849-2.849v0a2.849,2.849,0,0,1,2.849-2.849h31.382a2.849,2.849,0,0,1,2.849,2.849v0a2.849,2.849,0,0,1-2.849,2.849" transform="translate(-515.826 -1157.234)" fill="#363e44"/>
            <path id="Trazado_1000555" data-name="Trazado 1000555" d="M477.623,1050.934H310.183a2.851,2.851,0,0,0,0,5.7h25.353a2.778,2.778,0,0,1,2.351,2.976v.26a2.845,2.845,0,0,1-2.352,2.975h-46.81a2.851,2.851,0,0,0,0,5.7h36.254a2.965,2.965,0,0,1,2.684,2.976v.259a2.965,2.965,0,0,1-2.684,2.975H305.158a2.851,2.851,0,0,0,0,5.7h58.436a2.984,2.984,0,0,1,2.728,2.977v.26a2.982,2.982,0,0,1-2.728,2.974h-19.98a2.85,2.85,0,0,0-2.85,2.85h0a2.85,2.85,0,0,0,2.85,2.851H395.67a2.85,2.85,0,0,0,2.85-2.851h0a2.85,2.85,0,0,0-2.85-2.85H384.406a2.975,2.975,0,0,1-2.915-2.974v-.26a2.976,2.976,0,0,1,2.976-2.977h51.663a2.851,2.851,0,0,0,0-5.7H389.217a2.976,2.976,0,0,1-2.943-2.975v-.26a2.975,2.975,0,0,1,2.948-2.976h30.117a2.851,2.851,0,0,0,0-5.7H375.254a2.81,2.81,0,0,1-2.607-2.976v-.26a2.814,2.814,0,0,1,2.579-2.975h102.4a2.851,2.851,0,0,0,0-5.7m-102.48,20.589v.26a2.983,2.983,0,0,1-2.728,2.975H341.543a2.952,2.952,0,0,1-2.928-2.975v-.259a2.952,2.952,0,0,1,2.928-2.976h30.872a2.983,2.983,0,0,1,2.728,2.976m-15.787-11.913v.26a2.857,2.857,0,0,1-2.39,2.976h-3.437a2.793,2.793,0,0,1-2.565-2.975v-.26a2.793,2.793,0,0,1,2.565-2.976h3.429a2.863,2.863,0,0,1,2.4,2.975" transform="translate(-242.531 -891.594)" fill="#363e44"/>
            <path id="Trazado_1000556" data-name="Trazado 1000556" d="M585.3,760.245a3.809,3.809,0,0,1-1.789-.364,2.7,2.7,0,0,1-1.071-1.039,5.443,5.443,0,0,1-.608-1.825c-2.3-12.557-7.947-24.471-17.155-33.423a55.558,55.558,0,0,0-4.248-3.73C552.9,713.9,543.088,709.2,533.422,708.3h-.015s-11.887,10.6,1.647,16.834c3.746,1.726,6.014,5.329,7.254,9.135,2.044,6.269,1.763,12.758,1.365,19.239-.162,2.649-.317,6.772-3.9,6.742l17.361,2.336,28.169-2.336" transform="translate(-448.438 -600.905)" fill="#363e44"/>
            <rect id="Rectángulo_456623" data-name="Rectángulo 456623" width="84.786" height="35.538" transform="translate(0.316 90.022)" fill="#84524d"/>
            <rect id="Rectángulo_456624" data-name="Rectángulo 456624" width="3.472" height="39.011" transform="translate(83.232 87.884)" fill="#bc8271"/>
            <path id="Trazado_1000557" data-name="Trazado 1000557" d="M217.924,620.438H206.492a2.832,2.832,0,0,1-2.832-2.832V582.478a2.831,2.831,0,0,1,2.832-2.832h11.432a2.831,2.831,0,0,1,2.832,2.832v35.129a2.832,2.832,0,0,1-2.832,2.832" transform="translate(-172.782 -491.762)" fill="#bc8271"/>
            <path id="Trazado_1000558" data-name="Trazado 1000558" d="M232.081,502.688a6.311,6.311,0,1,1-6.31-6.313,6.312,6.312,0,0,1,6.31,6.313" transform="translate(-186.186 -421.116)" fill="#bc8271"/>
            <rect id="Rectángulo_456625" data-name="Rectángulo 456625" width="22.437" height="6.947" transform="translate(28.341 80.937)" fill="#84524d"/>
            <rect id="Rectángulo_456626" data-name="Rectángulo 456626" width="2.426" height="1.993" transform="translate(38.358 73.511)" fill="#bc8271"/>
            <rect id="Rectángulo_456627" data-name="Rectángulo 456627" width="18.52" height="1.882" transform="translate(30.144 71.63)" fill="#84524d"/>
            <path id="Trazado_1000559" data-name="Trazado 1000559" d="M1104.976,1455.194h-11.1a.152.152,0,1,1,0-.3h11.1a.152.152,0,1,1,0,.3" transform="translate(-927.893 -1234.304)" fill="#f7f1eb"/>
            <path id="Trazado_1000560" data-name="Trazado 1000560" d="M1275.482,1491.745H1238.2a.152.152,0,0,1,0-.3h37.286a.152.152,0,1,1,0,.3" transform="translate(-1050.335 -1265.314)" fill="#f7f1eb"/>
            <path id="Trazado_1000561" data-name="Trazado 1000561" d="M1468.2,1510.927h-11.551a.152.152,0,0,1,0-.3H1468.2a.152.152,0,0,1,0,.3" transform="translate(-1235.668 -1281.587)" fill="#f7f1eb"/>
            <path id="Trazado_1000562" data-name="Trazado 1000562" d="M1208.967,1470.488h-73.325a.152.152,0,0,1,0-.3h73.325a.152.152,0,0,1,0,.3" transform="translate(-963.33 -1247.28)" fill="#f7f1eb"/>
          </g>
        </g>
        <g id="Grupo_1186321" data-name="Grupo 1186321" transform="translate(163.855 190.89)">
          <g id="Grupo_1186320" data-name="Grupo 1186320" clip-path="url(#clip-path-10)">
            <rect id="Rectángulo_456629" data-name="Rectángulo 456629" width="40.719" height="67.565" transform="translate(10.672 39.885) rotate(-60.582)" fill="#f7f1eb"/>
            <rect id="Rectángulo_456630" data-name="Rectángulo 456630" width="36.755" height="62.872" transform="translate(13.575 39.074) rotate(-60.582)" fill="#776e42"/>
            <path id="Trazado_1000563" data-name="Trazado 1000563" d="M1194.423,1347.792a.152.152,0,0,1-.075-.02l-58.853-33.186a.152.152,0,0,1-.057-.207l19.99-35.475a.151.151,0,0,1,.207-.058l58.853,33.186a.151.151,0,0,1,.057.206l-19.99,35.475a.152.152,0,0,1-.091.072.149.149,0,0,1-.041.005m-58.647-33.4,58.589,33.037,19.841-35.21-58.589-33.037Z" transform="translate(-1127.124 -1275.825)" fill="#363e44"/>
            <rect id="Rectángulo_456631" data-name="Rectángulo 456631" width="8.058" height="13.371" transform="translate(54.34 17.638) rotate(-60.582)" fill="#f7f1eb"/>
            <path id="Trazado_1000564" data-name="Trazado 1000564" d="M1435.964,1290.123,1456.5,1301.7a5.562,5.562,0,0,1-5.7.138l-12.011-6.773A5.566,5.566,0,0,1,1435.964,1290.123Z" transform="translate(-1382.102 -1285.408)" fill="#f7f1eb"/>
            <path id="Trazado_1000565" data-name="Trazado 1000565" d="M1440.857,1336.835a.151.151,0,0,1-.074-.02l-11.647-6.567a.152.152,0,0,1-.057-.206l3.956-7.02a.152.152,0,0,1,.207-.058l11.646,6.567a.151.151,0,0,1,.058.207l-3.956,7.02a.15.15,0,0,1-.091.072.154.154,0,0,1-.041.005m-11.44-6.776,11.382,6.418,3.807-6.756-11.383-6.418Z" transform="translate(-1376.244 -1313.253)" fill="#363e44"/>
            <path id="Trazado_1000566" data-name="Trazado 1000566" d="M1452.69,1301.863a5.71,5.71,0,0,1-2.807-.738l-12.011-6.773a5.712,5.712,0,0,1-2.908-5.081.152.152,0,0,1,.226-.129l20.538,11.581a.151.151,0,0,1,.006.26,5.708,5.708,0,0,1-3.044.88m-17.421-12.328a5.409,5.409,0,0,0,2.752,4.554l12.011,6.773a5.406,5.406,0,0,0,5.32,0Z" transform="translate(-1381.253 -1284.559)" fill="#363e44"/>
            <path id="Trazado_1000567" data-name="Trazado 1000567" d="M1299.087,1320.92a.152.152,0,0,1-.109-.046l-4.649-4.751a.152.152,0,0,1-.028-.172l1.9-3.938-1.665-.8a.152.152,0,0,1-.086-.137l.008-3.934-3.088-.814a.152.152,0,0,1-.1-.08l-1.888-3.86a.152.152,0,1,1,.272-.133l1.857,3.8,3.134.826a.152.152,0,0,1,.113.147l-.008,3.956,1.716.827a.152.152,0,0,1,.071.2l-1.916,3.979,4.575,4.676a.152.152,0,0,1-.108.258" transform="translate(-1257.731 -1295.626)" fill="#f2e6dc"/>
            <path id="Trazado_1000568" data-name="Trazado 1000568" d="M1321.968,1377.023a.152.152,0,0,1-.025-.3l3.754-.625,1.8-2.144a.152.152,0,0,1,.115-.054.146.146,0,0,1,.116.052l1.669,1.909,2.575.135a.152.152,0,0,1,.143.16.149.149,0,0,1-.159.143l-2.639-.139a.151.151,0,0,1-.106-.052l-1.594-1.824-1.72,2.052a.154.154,0,0,1-.091.052l-3.809.634-.025,0" transform="translate(-1285.261 -1356.48)" fill="#f2e6dc"/>
            <path id="Trazado_1000569" data-name="Trazado 1000569" d="M1310.734,1380.582a.156.156,0,0,1-.045-.007l-1.811-.561a.152.152,0,0,1-.1-.11l-.341-1.455-1.946-.937-2.527-.546a.152.152,0,0,1-.1-.226l1.307-2.193-2.493-4.156a.151.151,0,0,1,.027-.189l4.867-4.525a.152.152,0,1,1,.206.222l-4.777,4.441,2.477,4.128a.151.151,0,0,1,0,.156l-1.246,2.09,2.339.505a.154.154,0,0,1,.034.012l2.027.977a.152.152,0,0,1,.082.1l.338,1.441,1.729.535a.152.152,0,0,1-.045.3" transform="translate(-1269.005 -1349.472)" fill="#f2e6dc"/>
            <path id="Trazado_1000570" data-name="Trazado 1000570" d="M1267.8,1356.479a.152.152,0,0,1-.135-.083l-1.524-3-1.893-.213a.151.151,0,0,1-.087-.041l-2.07-1.956-2.27-.14a.152.152,0,0,1-.142-.161.15.15,0,0,1,.161-.142l2.325.143a.151.151,0,0,1,.095.041l2.073,1.959,1.924.217a.152.152,0,0,1,.118.082l1.561,3.072a.152.152,0,0,1-.067.2.154.154,0,0,1-.068.016" transform="translate(-1232.549 -1336.838)" fill="#f2e6dc"/>
            <path id="Trazado_1000571" data-name="Trazado 1000571" d="M1261.68,1394.164a.15.15,0,0,1-.1-.038l-1.474-1.3a.152.152,0,1,1,.2-.228l1.419,1.249,2.289-.385.711-2.541a.151.151,0,0,1,.2-.1l1.793.707a.152.152,0,0,1-.111.282l-1.637-.646-.692,2.472a.152.152,0,0,1-.121.109l-2.455.413-.025,0" transform="translate(-1232.864 -1370.833)" fill="#f2e6dc"/>
          </g>
        </g>
        <g id="Grupo_1186323" data-name="Grupo 1186323" transform="translate(127.111 229.188)">
          <g id="Grupo_1186322" data-name="Grupo 1186322" clip-path="url(#clip-path-11)">
            <path id="Trazado_1000573" data-name="Trazado 1000573" d="M938.9,1577.12l-16.135,6.74-12.27-29.392-2.515-16.58,8.631-3.605,10.019,13.445Z" transform="translate(-897.426 -1530.847)" fill="#f7f1eb"/>
            <rect id="Rectángulo_456632" data-name="Rectángulo 456632" width="17.56" height="10.564" transform="translate(13.57 28.411) rotate(-22.672)" fill="#d87355"/>
            <path id="Trazado_1000574" data-name="Trazado 1000574" d="M913.669,1586.61a.152.152,0,0,1-.14-.093l-9.694-23.222a54.538,54.538,0,0,1-3.589-12.817l-1.512-9.969a.151.151,0,0,1,.091-.162l8.631-3.605a.152.152,0,0,1,.18.049l6.024,8.084a54.511,54.511,0,0,1,6.589,11.564l9.694,23.222a.152.152,0,0,1-.081.2l-16.135,6.74a.154.154,0,0,1-.058.012m-14.617-46.03,1.494,9.852a54.236,54.236,0,0,0,3.569,12.746l9.635,23.082,15.855-6.623-9.636-23.082a54.221,54.221,0,0,0-6.552-11.5l-5.953-7.989Z" transform="translate(-889.58 -1532.923)" fill="#363e44"/>
            <path id="Trazado_1000575" data-name="Trazado 1000575" d="M894.759,1519.189l-9.765,4.079a1,1,0,0,1-1.31-.538l-.643-1.541a1,1,0,0,1,.538-1.309l9.765-4.079a1,1,0,0,1,1.31.538l.643,1.54a1,1,0,0,1-.538,1.309" transform="translate(-876.201 -1515.102)" fill="#d87355"/>
          </g>
        </g>
        <g id="Grupo_1186325" data-name="Grupo 1186325">
          <g id="Grupo_1186324" data-name="Grupo 1186324" clip-path="url(#clip-path-2)">
            <path id="Trazado_1000576" data-name="Trazado 1000576" d="M937.11,1715.054H908.232a.152.152,0,1,1,0-.3H937.11a.152.152,0,1,1,0,.3" transform="translate(-770.399 -1454.765)" fill="#f7f1eb"/>
            <path id="Trazado_1000577" data-name="Trazado 1000577" d="M1068.309,1701.4h-8.87a.152.152,0,1,1,0-.3h8.87a.152.152,0,0,1,0,.3" transform="translate(-898.682 -1443.178)" fill="#f7f1eb"/>
          </g>
        </g>
        <g id="Grupo_1186327" data-name="Grupo 1186327" transform="translate(64.138 219.037)">
          <g id="Grupo_1186326" data-name="Grupo 1186326" clip-path="url(#clip-path-13)">
            <path id="Trazado_1000578" data-name="Trazado 1000578" d="M478.2,1506.347a11.008,11.008,0,1,0,18.486-4.9l.692-3.383a5.419,5.419,0,0,0-10.459-2.771l-1.073,3.281a11,11,0,0,0-7.645,7.776" transform="translate(-469.525 -1484.446)" fill="#f7f1eb"/>
            <path id="Trazado_1000579" data-name="Trazado 1000579" d="M551.355,1465.251h0a4.069,4.069,0,0,1,2.891,4.975l-.3,1.151-7.865-2.084.305-1.151a4.068,4.068,0,0,1,4.974-2.892" transform="translate(-527.419 -1462.015)" fill="#d87355"/>
            <path id="Trazado_1000580" data-name="Trazado 1000580" d="M482.569,1513.094a11.161,11.161,0,0,1-10.769-14.02,11.22,11.22,0,0,1,7.673-7.86l1.048-3.205a5.57,5.57,0,0,1,10.751,2.849l-.675,3.3a11.173,11.173,0,0,1-8.028,18.933m-10.622-13.981.146.039a10.86,10.86,0,0,0,8.132,13.38,10.578,10.578,0,0,0,2.312.255,10.963,10.963,0,0,0,10.342-7.4,10.841,10.841,0,0,0-2.555-11.071.152.152,0,0,1-.04-.136l.692-3.383a5.267,5.267,0,0,0-10.166-2.694l-1.073,3.282a.152.152,0,0,1-.1.1,10.914,10.914,0,0,0-7.54,7.669Z" transform="translate(-464.084 -1478.18)" fill="#363e44"/>
            <path id="Trazado_1000581" data-name="Trazado 1000581" d="M524.836,1517.741a.151.151,0,0,1-.09-.029l-2.208-1.625-2.256,1a.152.152,0,0,1-.181-.045l-1.478-1.9-2.564.673a.152.152,0,0,1-.179-.2l5.372-13.434a.152.152,0,0,1,.282.113l-5.261,13.154,2.369-.622a.152.152,0,0,1,.158.053l1.467,1.883,2.228-.984a.152.152,0,0,1,.151.016l2.068,1.521,1.537-13.757a.152.152,0,0,1,.3.034l-1.566,14.018a.152.152,0,0,1-.09.122.156.156,0,0,1-.061.013" transform="translate(-501.793 -1493.377)" fill="#363e44"/>
          </g>
        </g>
        <g id="Grupo_1186329" data-name="Grupo 1186329">
          <g id="Grupo_1186328" data-name="Grupo 1186328" clip-path="url(#clip-path-2)">
            <path id="Trazado_1000582" data-name="Trazado 1000582" d="M472.669,1612.991H442.73a.152.152,0,1,1,0-.3h29.939a.152.152,0,1,1,0,.3" transform="translate(-375.476 -1368.177)" fill="#f7f1eb"/>
            <path id="Trazado_1000583" data-name="Trazado 1000583" d="M429.58,1630.345H411.114a.152.152,0,0,1,0-.3H429.58a.152.152,0,0,1,0,.3" transform="translate(-348.653 -1382.899)" fill="#f7f1eb"/>
            <path id="Trazado_1000584" data-name="Trazado 1000584" d="M344.287,1407.791H315.409a.152.152,0,0,1,0-.3h28.878a.152.152,0,0,1,0,.3" transform="translate(-267.459 -1194.089)" fill="#f7f1eb"/>
            <path id="Trazado_1000585" data-name="Trazado 1000585" d="M379,1434.841H366.865a.152.152,0,1,1,0-.3H379a.152.152,0,1,1,0,.3" transform="translate(-311.113 -1217.037)" fill="#f7f1eb"/>
            <path id="Trazado_1000586" data-name="Trazado 1000586" d="M239.388,1419.843H210.51a.152.152,0,1,1,0-.3h28.878a.152.152,0,1,1,0,.3" transform="translate(-178.464 -1204.313)" fill="#f7f1eb"/>
          </g>
        </g>
        <g id="Grupo_1186331" data-name="Grupo 1186331" transform="translate(31.595 200.411)">
          <g id="Grupo_1186330" data-name="Grupo 1186330" clip-path="url(#clip-path-15)">
            <path id="Trazado_1000587" data-name="Trazado 1000587" d="M257.057,1381.563a6.479,6.479,0,0,1-1.88-.248.152.152,0,1,1,.088-.29c2.844.866,7.529-.837,10.949-2.081.97-.353,1.886-.686,2.627-.911a61.115,61.115,0,0,1,14.748-1.649.152.152,0,0,1-.01.3,60.686,60.686,0,0,0-14.65,1.636c-.733.223-1.645.555-2.611.906-2.793,1.016-6.42,2.334-9.261,2.334" transform="translate(-247.992 -1368.098)" fill="#363e44"/>
            <path id="Trazado_1000588" data-name="Trazado 1000588" d="M218.28,1365.269a.152.152,0,0,1-.151-.147,6.864,6.864,0,0,1,.848-3.122c.775-1.481,3.39-2.542,4.394-2.9-4.047-1.783-5.273-8.273-5.324-8.557a.152.152,0,0,1,.274-.113,5.53,5.53,0,0,0,2.542,1.734c2.52.937,3.98,4.048,4.212,5.958.367,3.026-1.092,4.109-2.723,4.829a18.551,18.551,0,0,0-3.975,2.286.151.151,0,0,1-.1.035m.191-14.216c.414,1.7,1.909,6.693,5.389,7.911a.152.152,0,0,1,0,.288c-.037.012-3.722,1.193-4.61,2.889a7.1,7.1,0,0,0-.8,2.658,20.174,20.174,0,0,1,3.784-2.129c1.762-.777,2.869-1.842,2.544-4.515-.216-1.781-1.642-4.827-4.017-5.71a6.509,6.509,0,0,1-2.286-1.393" transform="translate(-216.58 -1346.035)" fill="#363e44"/>
            <path id="Trazado_1000589" data-name="Trazado 1000589" d="M288.651,1380.428a.152.152,0,0,1-.13-.23c2.145-3.583-1.44-7.827-1.477-7.869a.152.152,0,0,1,.23-.2c.038.044,3.762,4.454,1.507,8.223a.152.152,0,0,1-.13.074" transform="translate(-275.088 -1364.459)" fill="#363e44"/>
            <path id="Trazado_1000590" data-name="Trazado 1000590" d="M309.965,1374.38a.152.152,0,0,1-.126-.236c2.465-3.664-1.924-8.868-1.969-8.92a.152.152,0,1,1,.23-.2c.188.22,4.584,5.431,1.991,9.287a.151.151,0,0,1-.126.067" transform="translate(-292.756 -1358.431)" fill="#363e44"/>
            <path id="Trazado_1000591" data-name="Trazado 1000591" d="M329.861,1365.152a.152.152,0,0,1-.128-.232c2.353-3.743-2.726-10.13-2.778-10.194a.152.152,0,0,1,.236-.19c.216.268,5.265,6.621,2.8,10.545a.152.152,0,0,1-.129.071" transform="translate(-308.95 -1349.528)" fill="#363e44"/>
            <path id="Trazado_1000592" data-name="Trazado 1000592" d="M353.461,1357.568a.152.152,0,0,1-.135-.219c2.6-5.19-2.722-12.336-2.776-12.407a.152.152,0,0,1,.242-.183c.055.073,5.493,7.367,2.805,12.726a.152.152,0,0,1-.136.084" transform="translate(-328.969 -1341.23)" fill="#363e44"/>
            <path id="Trazado_1000593" data-name="Trazado 1000593" d="M378.245,1351.564a.15.15,0,0,1-.067-.016.152.152,0,0,1-.069-.2c2.7-5.493-2.843-13.571-2.9-13.652a.152.152,0,1,1,.249-.173c.057.082,5.7,8.305,2.922,13.959a.151.151,0,0,1-.136.085" transform="translate(-349.894 -1335.085)" fill="#363e44"/>
            <path id="Trazado_1000594" data-name="Trazado 1000594" d="M405.206,1346a.152.152,0,0,1-.139-.212c3.217-7.446-2.252-14.869-2.308-14.943a.152.152,0,1,1,.243-.182c.057.075,5.631,7.635,2.344,15.245a.152.152,0,0,1-.139.092" transform="translate(-373.264 -1329.269)" fill="#363e44"/>
            <path id="Trazado_1000595" data-name="Trazado 1000595" d="M446.84,1337.717c-.245-1.461,3.066-.25,2.613-.925s-11.2-7.358-12.491-5.859,1.29,3.931,1.078,7.783c-.162,2.918-.347,8.3,1.572,7.45,1.225-.546,10.063-7.034,10.063-7.034-.213-1.295-2.622-.18-2.835-1.415m-4.329,4.3c-.842.18-1.466-.661-1.72-1.855s.217-2.307,1.064-2.493,1.734.643,1.988,1.836a2.117,2.117,0,0,1-1.332,2.511" transform="translate(-401.997 -1329.366)" fill="#e0aa63"/>
            <path id="Trazado_1000596" data-name="Trazado 1000596" d="M438.377,1345.561a.8.8,0,0,1-.464-.147c-1.106-.764-1.049-4.438-.877-7.554a11.287,11.287,0,0,0-.888-4.581c-.492-1.369-.881-2.45-.153-3.292a1.068,1.068,0,0,1,.911-.266c1.651.1,4.987,1.856,6.829,2.9a31.728,31.728,0,0,1,4.992,3.245.276.276,0,0,1,.038.308c-.11.19-.434.165-.969.124-.561-.042-1.328-.1-1.581.177a.423.423,0,0,0-.077.375c.079.458.526.516,1.253.557.682.039,1.455.084,1.582.858a.151.151,0,0,1-.06.147c-.361.265-8.865,6.5-10.091,7.05a1.1,1.1,0,0,1-.445.1m-1.615-15.542a.693.693,0,0,0-.537.166c-.612.708-.268,1.666.209,2.992a11.535,11.535,0,0,1,.905,4.7c-.089,1.613-.362,6.522.746,7.287a.592.592,0,0,0,.613.016c1.135-.505,9.069-6.31,9.955-6.959-.121-.418-.573-.476-1.28-.516-.661-.038-1.409-.081-1.535-.81h0a.714.714,0,0,1,.152-.63c.353-.386,1.171-.324,1.828-.274a4.411,4.411,0,0,0,.643.021c-.522-.628-8.8-5.822-11.573-5.988-.044,0-.086,0-.127,0m4.673,11.328a1.275,1.275,0,0,1-.97-.489,3.389,3.389,0,0,1-.674-1.51c-.276-1.271.254-2.47,1.18-2.673a1.516,1.516,0,0,1,1.35.44,2.874,2.874,0,0,1,.819,1.513,2.259,2.259,0,0,1-1.448,2.691h0a1.244,1.244,0,0,1-.257.028m.225-.176h0Zm-.422-4.221a.967.967,0,0,0-.2.022c-.762.167-1.188,1.2-.947,2.312a3.091,3.091,0,0,0,.606,1.375.932.932,0,0,0,.934.363,1.973,1.973,0,0,0,1.216-2.331,2.57,2.57,0,0,0-.729-1.354,1.311,1.311,0,0,0-.877-.388" transform="translate(-401.145 -1328.519)" fill="#363e44"/>
          </g>
        </g>
      </g>
    </g>
  </g>
</svg>
