<svg xmlns="http://www.w3.org/2000/svg" xmlns:xlink="http://www.w3.org/1999/xlink" width="80" height="80" viewBox="0 0 80 80">
  <defs>
    <clipPath id="clip-path">
      <rect id="Rect치ngulo_456664" data-name="Rect치ngulo 456664" width="56.008" height="56.045" fill="#12263f"/>
    </clipPath>
  </defs>
  <g id="Grupo_1186268" data-name="Grupo 1186268" transform="translate(-704.52 -3293.691)">
    <g id="Grupo_1183033" data-name="Grupo 1183033" transform="translate(524.852 -2227.309)">
      <rect id="Rect치ngulo_402006" data-name="Rect치ngulo 402006" width="80" height="80" rx="5" transform="translate(179.668 5521)" fill="#fa9757"/>
    </g>
    <g id="Grupo_1186399" data-name="Grupo 1186399" transform="translate(716.516 3305.669)">
      <g id="Grupo_1186398" data-name="Grupo 1186398" clip-path="url(#clip-path)">
        <path id="Trazado_1000940" data-name="Trazado 1000940" d="M33.8,51.147H42.58A2.783,2.783,0,0,1,44.148,52.2a2.484,2.484,0,0,1-1.662,3.832l-28.661.011A2.469,2.469,0,0,1,11.911,52.2a2.782,2.782,0,0,1,1.567-1.055h8.783V48.22a.877.877,0,0,0-.131-.131H2.03A2.791,2.791,0,0,1,.064,45.861V21.039a.832.832,0,1,1,1.662.089l0,24.474c.007.648.587.938,1.18.917H53.159a1.132,1.132,0,0,0,1.11-.55c.128-10.727.074-21.5.027-32.23a1.121,1.121,0,0,0-.791-.607H50.1a.877.877,0,0,0-.131.131v1.529h1.966a.924.924,0,0,1,.7.52l.034,28.883c-.09.453-.416.6-.835.65a15.375,15.375,0,0,1-2.922-.029.8.8,0,0,1-.47-1.353,1.909,1.909,0,0,1,.518-.268H51.1V16.453H49.31c-.043,0-.479.446-.663.561-1.23.767-2.71.393-4.086.5a2.961,2.961,0,0,1-2.369,1.912l0,6.595c-.093.561-.219.867-.826.921-1.195.108-2.6-.056-3.81-.043-.771-.241-.445-1.534.048-1.534h2.8a.877.877,0,0,0,.131-.131V19.424a2.945,2.945,0,0,1-2.373-1.908c-1.666-.14-3.669.445-4.882-1.018l-5.8-.049a3.16,3.16,0,0,1-1.484,2.2,4.854,4.854,0,0,1-.89.334h-8.04a.877.877,0,0,0-.131.131V35.2a.877.877,0,0,0,.131.131H18.9a3.131,3.131,0,0,1,.369.2c.326.328.283,1.173-.234,1.335a20.63,20.63,0,0,1-3.1.034c-.2-.031-.573-.293-.573-.475v-17.3a.877.877,0,0,0-.131-.131H8.235A2.981,2.981,0,0,1,6.227,17.5c-.1-.213-.274-1.006-.32-1.035-.122-.078-.745.032-.95-.011V43.195H45.552a1,1,0,0,1,.724.587c.161.719-.33,1.039-.983,1.077H4.474c-.414-.03-.819-.051-1.022-.464-.157-9.577-.017-19.187-.071-28.777a.829.829,0,0,1,.747-.826H5.919V13.263a.877.877,0,0,0-.131-.131H2.555a1.08,1.08,0,0,0-.812.674c-.215.951.1,2.6-.018,3.652-.138,1.216-1.547,1.261-1.664,0a23.035,23.035,0,0,1,.043-3.9c.136-.749,1.142-2.006,1.927-2.006H5.788a.877.877,0,0,0,.131-.131V4.087c0-.048.276-.786.331-.892a2.85,2.85,0,0,1,2.33-1.428l16.424.013a2.919,2.919,0,0,1,2.081,1.414c.055.106.331.844.331.892v7.341a.877.877,0,0,0,.131.131h4.894a.877.877,0,0,0,.131-.131V2.514A3,3,0,0,1,34.987.12C38.963.359,43.378-.231,47.3.107a2.922,2.922,0,0,1,2.662,2.843v8.477a.877.877,0,0,0,.131.131h3.933a2.739,2.739,0,0,1,1.97,2.4l0,31.9a2.791,2.791,0,0,1-1.967,2.228h-20.1a.877.877,0,0,0-.131.131ZM48.014,15.464a2.145,2.145,0,0,0,.294-.974c.312-3.628-.243-7.693,0-11.368-.067-.915-.331-1.285-1.267-1.354-3.78-.281-7.9.221-11.718,0A1.188,1.188,0,0,0,34.3,2.4c-.122,4.226-.086,8.506-.018,12.733.377,1.117,2.654.59,3.568.692.2-.068.118-.351.183-.516.054-.138.207-.24.215-.387.028-.5-1.2-1.338-1.569-1.749A6.373,6.373,0,0,1,42.471,2.667c.7.12,2.065.451,1.659,1.441-.37.9-1.669.167-2.338.111a4.741,4.741,0,0,0-4.487,7.021c.734,1.389,2.2,1.775,2.606,3.337H42.8c.3-1.405,1.623-1.833,2.34-2.9a4.993,4.993,0,0,0,.669-4.133c-.171-.608-1.1-1.7-.25-2.177,1.081-.608,1.645,1.122,1.844,1.894a6.47,6.47,0,0,1-1.371,5.92c-.358.4-1.675,1.291-1.559,1.813.022.1.158.2.206.323.088.224-.054.466.258.528a15.339,15.339,0,0,0,2.352-.008,1.5,1.5,0,0,0,.722-.369M25.466,3.723a2.03,2.03,0,0,0-1.234-.383c-4.925-.344-10.246.268-15.213,0-.743.059-1.365.267-1.443,1.091-.355,3.761.278,8.074,0,11.894.082.874.76,1.038,1.53,1.092,4.925.344,10.246-.268,15.213,0,.6-.051,1.157-.185,1.4-.786L25.76,4.346a1.185,1.185,0,0,0-.294-.623m7.108,11.069V13.263a.877.877,0,0,0-.131-.131H27.549a.877.877,0,0,0-.131.131v1.529Zm7.122,1.4c-.325.293.065,1.073.349,1.312a2.4,2.4,0,0,0,2.755-.131c.162-.193.566-1.181.218-1.181Zm-15.643,31.9c-.029.044-.131.107-.131.131v2.8a.877.877,0,0,0,.131.131h7.953a.877.877,0,0,0,.131-.131v-2.8a.877.877,0,0,0-.131-.131ZM14.026,52.743c-1.045-.009-1.215,1.52-.2,1.639l28.627-.041c.913-.589.38-1.691-.657-1.624Z" transform="translate(0 0)" fill="#12263f"/>
        <path id="Trazado_1000941" data-name="Trazado 1000941" d="M214.5,230.294a2.27,2.27,0,0,1,2.457,1.343c.131.316.21,1.108.318,1.255a8.592,8.592,0,0,0,1.026.469c.333.081.845-.451,1.2-.6a2.279,2.279,0,0,1,3.016,3.016c-.1.247-.612.881-.634,1.019a5.936,5.936,0,0,0,.5,1.209c.147.108.939.187,1.255.318a2.275,2.275,0,0,1,0,4.171c-.316.131-1.108.21-1.255.318a5.936,5.936,0,0,0-.5,1.209c.022.138.531.772.634,1.019a2.279,2.279,0,0,1-3.016,3.016c-.247-.1-.881-.612-1.019-.634a5.937,5.937,0,0,0-1.209.5c-.108.147-.187.939-.318,1.255a2.275,2.275,0,0,1-4.171,0c-.131-.316-.21-1.108-.318-1.255a5.934,5.934,0,0,0-1.209-.5c-.138.022-.772.531-1.019.634a2.279,2.279,0,0,1-3.016-3.016c.1-.247.612-.881.634-1.019a5.937,5.937,0,0,0-.5-1.209c-.147-.108-.939-.187-1.255-.318a2.275,2.275,0,0,1,0-4.171c.316-.131,1.108-.21,1.255-.318a5.931,5.931,0,0,0,.5-1.209c-.022-.138-.531-.772-.634-1.019a2.279,2.279,0,0,1,3.016-3.016c.247.1.881.612,1.019.634a3.85,3.85,0,0,0,1.237-.563c.114-.223.127-.765.237-1.074a2.315,2.315,0,0,1,1.768-1.465m.172,1.655c-.773.17-.348,2.009-1.176,2.322-.619.1-1.777.9-2.341.9-.692-.006-1.635-1.511-2.316-.748-.7.78.984,1.56.729,2.564a16.572,16.572,0,0,1-.865,2.107c-.5.853-2.36.252-2.315,1.359.04.983,1.832.465,2.315,1.276a16.786,16.786,0,0,1,.865,2.107c.255,1-1.5,1.877-.685,2.607.784.7,1.538-.991,2.564-.729a16.569,16.569,0,0,1,2.107.865c.769.451.385,2.051,1.05,2.271,1.208.4.872-1.445,1.314-2.017a9.343,9.343,0,0,1,2.747-1.176c.648.063,1.569,1.493,2.239.744.7-.781-.984-1.56-.729-2.564a16.812,16.812,0,0,1,.865-2.107c.5-.831,2.36-.26,2.315-1.359-.041-.992-1.827-.444-2.315-1.276a16.558,16.558,0,0,1-.865-2.107c-.254-1,1.5-1.878.685-2.607-.738-.658-1.558.838-2.351.786a1.53,1.53,0,0,1-.341-.1,14.772,14.772,0,0,1-2.077-.893c-.717-.546-.174-2.489-1.418-2.215" transform="translate(-186.842 -210.147)" fill="#12263f"/>
        <path id="Trazado_1000942" data-name="Trazado 1000942" d="M107.28,106.284l13-.021a.841.841,0,0,1,.458,1.594c-4.565.11-9.2.11-13.763,0a.824.824,0,0,1,.3-1.573" transform="translate(-97.188 -96.976)" fill="#12263f"/>
        <path id="Trazado_1000943" data-name="Trazado 1000943" d="M121.043,145.612a1.052,1.052,0,0,1-.3.182l-13.528.027a.8.8,0,0,1,.089-1.579h13.2a.811.811,0,0,1,.535,1.369" transform="translate(-97.239 -131.637)" fill="#12263f"/>
        <path id="Trazado_1000944" data-name="Trazado 1000944" d="M114.324,68.692c.4.366.249,1.3-.371,1.365h-6.806a.8.8,0,0,1,.087-1.563c2.074.163,4.523-.234,6.551-.007a1.136,1.136,0,0,1,.539.205" transform="translate(-97.245 -62.436)" fill="#12263f"/>
        <path id="Trazado_1000945" data-name="Trazado 1000945" d="M280.409,301.9c5.154-.805,6.143,7,1.2,7.662-5.072.674-6.043-6.9-1.2-7.662m.087,1.66a2.519,2.519,0,0,0-1.447,1.175,2.219,2.219,0,1,0,1.447-1.175" transform="translate(-253.013 -275.461)" fill="#12263f"/>
      </g>
    </g>
  </g>
</svg>
