<svg xmlns="http://www.w3.org/2000/svg" xmlns:xlink="http://www.w3.org/1999/xlink" width="156" height="156" viewBox="0 0 156 156">
  <defs>
    <clipPath id="clip-path">
      <rect id="Rectángulo_456660" data-name="Rectángulo 456660" width="91.926" height="80.448" fill="#12263f"/>
    </clipPath>
  </defs>
  <g id="Grupo_1183129" data-name="Grupo 1183129" transform="translate(-1234.554 -458.054)">
    <g id="Elipse_12108" data-name="Elipse 12108" transform="translate(1241.554 465.054)" fill="#30df8e" stroke="rgba(255,255,255,0.4)" stroke-width="7">
      <circle cx="71" cy="71" r="71" stroke="none"/>
      <circle cx="71" cy="71" r="74.5" fill="none"/>
    </g>
    <g id="Grupo_1186392" data-name="Grupo 1186392" transform="translate(1266.591 495.83)">
      <g id="Grupo_1186391" data-name="Grupo 1186391" clip-path="url(#clip-path)">
        <path id="Trazado_1000916" data-name="Trazado 1000916" d="M36.915,25.475a1.771,1.771,0,0,0,1.045-.262c1.605-.707,6.728-4.181,7.9-4.257,1.1-.072,6.459,3.683,6.768,3.33a13.817,13.817,0,1,1,27.389,3.1c.136.173,3.227-2.251,3.906-1.905l6.746,3.631a1.709,1.709,0,0,1-.113,2.1L77.876,38.455l13.418,7.538a1.306,1.306,0,0,1,.516,1.626L67.164,61.794,89.149,74.571a1.368,1.368,0,0,1,.387,2.22l-6.416,3.6-.78.06L58.414,66.712c-.337-.086-.587.105-.872.225-3.482,1.464-7.132,4.452-10.69,5.982l-1.222.181c-9.253-4.865-18.34-10.084-27.467-15.2-1.076-.229-8.055,4.8-9.729,5.2a1.748,1.748,0,0,1-.981-.184c-.489-.151-5.963-3.18-6.188-3.453A1.4,1.4,0,0,1,1.423,57.5l7.629-4.513L.6,48.1A1.177,1.177,0,0,1,.371,46.2L23.326,33.194l-6.193-9.248L3.112,15.821a1.364,1.364,0,0,1-.266-1.91A60.822,60.822,0,0,1,9.667,10c.913-.051,3.935,2.3,4.146,2.139C15.257.28,30.329-4.332,38.1,4.886c5.435,6.447,3.112,14.3-1.184,20.589M26.141,2.678c-7.571.959-11.581,8.636-8.868,15.652,2.207,5.707,6.857,10.9,10.236,15.955,3.522-5.394,11.344-13.9,11.287-20.568A11.44,11.44,0,0,0,26.141,2.678M15.007,19.522c-.935-1.127-.753-3.809-1.673-4.636A36.676,36.676,0,0,0,9.85,12.9a23.823,23.823,0,0,0-3.176,1.624c-.156.219.135.581.392.674ZM66.678,45.242c4.35-7.46,15.226-17.415,9.109-26.606-6.287-9.446-21.218-4.5-20.543,6.971.277,4.708,5.6,12.032,8.387,15.9.719,1,1.828,2.769,2.555,3.586.188.212.182.2.492.147M52.812,27.44c-1.632-.378-5.444-3.461-6.767-3.576-1-.087-4.7,2.866-6.033,3.046l.149.493,13.411,7.731a1.442,1.442,0,0,1,.263,1.846L20.727,56.317,45.888,70.449l9.6-5.32c-6.169-3.9-12.76-7.141-18.829-11.178a1.192,1.192,0,0,1,.152-1.55L59.058,39.41A38.826,38.826,0,0,1,52.812,27.44m-2.8,8.52c-1.907-.586-13.809-8.321-14.608-8.08-.337.1-1.422,2.088-1.811,2.484l8.07,4.771a1.422,1.422,0,0,1,.18,1.945L5.009,58.46c0,.2,3.011,2.039,3.571,1.691l40.8-23.519Zm25.958.471,10.948-6.309c-1.009-.5-2.637-2.057-3.733-1.606a40.235,40.235,0,0,0-4.462,2.7ZM38.106,35.96l-6.043-3.32c-.532.092-3.356,5-3.879,5.184-2,.7-2.433-2.576-3.477-2.308L4.054,47.028c1.057.579,7.252,4.41,7.875,4.294l25.543-14.69Zm49.77,10.953L75.138,40.087c-.744.637-2.234,1.062-2.9,1.66-1.453,1.3-3.132,4.865-4.6,6.472-.4.441-.986,1.023-1.656.723-.863-.386-1.384-2.423-2.211-2.23L52.4,53.22l11.986,6.987c7.173-4.156,14.54-7.977,21.75-12.065a5.828,5.828,0,0,0,1.745-1.229M60.7,41.69,40.488,53.22,82.236,77.457a.741.741,0,0,0,.642.073c.367-.076,3.139-1.652,2.855-2.041L48.46,53.811a1.308,1.308,0,0,1,.516-1.626l13.315-7.648c.336-.515-1.492-2.2-1.587-2.846" transform="translate(0 0)" fill="#12263f"/>
        <path id="Trazado_1000917" data-name="Trazado 1000917" d="M249.255,85.246c-6.787-6.785,3.462-17.585,10.641-10.76,7.081,6.732-3.416,17.983-10.641,10.76m4.377-10.1c-5.671.967-4.886,10.289,1.582,9.682,6.319-.594,5.415-10.875-1.582-9.682" transform="translate(-188.204 -55.09)" fill="#12263f"/>
        <path id="Trazado_1000918" data-name="Trazado 1000918" d="M90.217,26.852c12.538-1.815,11.51,16.955-.038,14.677-7.964-1.571-7.412-13.6.038-14.677m.23,2.611c-5.063,1.029-4.55,9.661,1.375,9.661,6.869,0,6.441-11.25-1.375-9.661" transform="translate(-64.313 -20.363)" fill="#12263f"/>
      </g>
    </g>
  </g>
</svg>
