<svg xmlns="http://www.w3.org/2000/svg" xmlns:xlink="http://www.w3.org/1999/xlink" width="156" height="156" viewBox="0 0 156 156">
  <defs>
    <clipPath id="clip-path">
      <rect id="Rectángulo_456658" data-name="Rectángulo 456658" width="80.748" height="70.682" fill="#12263f"/>
    </clipPath>
  </defs>
  <g id="Grupo_1176586" data-name="Grupo 1176586" transform="translate(-1234.554 -458.054)">
    <g id="Elipse_12108" data-name="Elipse 12108" transform="translate(1241.554 465.054)" fill="#30df8e" stroke="rgba(255,255,255,0.4)" stroke-width="7">
      <circle cx="71" cy="71" r="71" stroke="none"/>
      <circle cx="71" cy="71" r="74.5" fill="none"/>
    </g>
    <g id="Grupo_1186388" data-name="Grupo 1186388" transform="translate(1272.18 500.713)">
      <g id="Grupo_1186387" data-name="Grupo 1186387" clip-path="url(#clip-path)">
        <path id="Trazado_1000905" data-name="Trazado 1000905" d="M19.984,50.526c-.181-.214-2.385,1.9-2.879,2.064a2.632,2.632,0,0,1-1.912,0c-1.306-.531-3.432-5.258-4.416-6.522-2.041.543-3.932,1.7-5.925,2.441-.09.311.1.342.2.5,1.747,2.849,4.5,4.222,4.992,8.124A82.276,82.276,0,0,1,10.1,69.8c-.2,1.752-2.163,1.78-2.412-.017-.5-3.631.32-8.332-.006-12.1-.25-2.893-2.789-5.054-4.547-7.152-.258,0-.754,1.769-.715,2.106L3.03,70.2c-.912,1.673-2.223.9-2.417-.8C.011,64.114.564,58.189,0,52.839c.532-6.976,5.841-6.519,10.168-9.2,1.031-.639,2.243-2.342,3.255-3.2A6.272,6.272,0,0,1,14.3,40a5.233,5.233,0,0,0-.067-1.988,19.29,19.29,0,0,0-1.646-1.28A13.72,13.72,0,0,1,9.8,32.564c-.183-.433-.639-2.313-.736-2.392s-.7-.027-.992-.115c-2.643-.8-3.327-4.187-1.894-6.355.206-.312.792-.668.846-.944.073-.373-.337-1.61-.363-2.19A14.14,14.14,0,0,1,10.6,9.969c.446-.444,2.473-1.767,2.621-2.02s.356-2.059.648-2.782C16.357-.981,25.861-.965,28.357,5.126c.291.71.429,2.521.606,2.824.1.164,2.29,1.653,2.733,2.109a14.283,14.283,0,0,1,3.821,10.9c-.028.5-.418,1.46-.352,1.8.054.276.64.633.846.944,1.133,1.714.912,4.753-.9,5.929a7.814,7.814,0,0,1-1.975.546,18.865,18.865,0,0,0-.481,1.841,14.586,14.586,0,0,1-2.9,4.564c-.34.351-1.654,1.2-1.795,1.434A5.108,5.108,0,0,0,27.885,40a6.26,6.26,0,0,1,.878.432c1.012.86,2.224,2.562,3.255,3.2,1.418.879,3.808,1.469,5.391,2.277,6.528,3.332,4.643,9.543,4.369,15.611-.131,2.9-.074,5.828-.357,8.723a1.169,1.169,0,0,1-2.264-.053c.111-2.62.093-5.255.189-7.874.1-2.638.991-9,.067-11.148-.1-.233-.1-.487-.361-.644-1.743,2.127-4.3,4.243-4.547,7.152-.325,3.76.5,8.478-.012,12.095-.232,1.629-1.745,1.8-2.4.419.522-4.73-1.141-11.867,1.04-16.1.933-1.813,2.961-3.383,4-5.08.1-.159.291-.19.2-.5l-5.711-2.4c-.574.148-2.857,4.6-3.483,5.411a2.412,2.412,0,0,1-3.06,1.069c-.989-.327-1.82-1.759-2.879-2.064V70.4a2.04,2.04,0,0,1-.915.712c-.352.037-1.3-.471-1.3-.712ZM26.238,6.537C24.9,1.7,17.5,1.723,15.946,6.435c1.256-.082,2.437-.6,3.737-.7a17.439,17.439,0,0,1,6.554.8m6.617,15.693c.609-.835.15-4.773-.171-5.893C29.047,3.614,8.017,6.181,9.08,20.77c.143,1.958.612,1.5,2.222,2.311.657-2.269,3.979-1.517,2.427.708-.646.926-2.182,2.289-3.379,1.765-.58-.254-1.808-1.9-2.381-.06-.857,2.754,1.923,1.862,2.939,3.134.636.8.921,2.88,1.577,4.073,3.937,7.161,14.745,6.5,17.764-1.069.519-1.3.38-2.949,1.84-3.608,1.334-.6,2.24.169,2.239-1.814,0-2.57-1.8-1.025-3.092-1.356-.647-.166-1.3-1.246-1.892-1.312-.319-.035-.77.194-1.188.165-4.969-.343-10.219-1.094-14.118-4.465-.785-.678-2.235-1.857-1.693-2.89,1.07-2.041,2.919.887,3.943,1.65a19.864,19.864,0,0,0,8.643,3.06c1.638.2,3.757-.022,5.233.215.781.125,2.06,1.817,2.692.95m-7.424,17.2a15.044,15.044,0,0,1-8.675,0,16.536,16.536,0,0,0,.04,2.279c.23.773,3.675,3.44,4.3,4.376.726-1.111,3.792-3.265,4.234-4.238.29-.639.012-1.707.1-2.417m-11,3.433c-.3.416-1.727,1.467-1.687,1.879.032.327,3.173,5.562,3.5,5.56.453-.412,3-2.193,2.913-2.673-.076-.437-4.2-4.013-4.727-4.766m13.318,0c-.53.753-4.651,4.328-4.727,4.766S25.5,49.894,25.938,50.3c.329,0,3.469-5.238,3.5-5.565.037-.42-1.381-1.454-1.683-1.876" transform="translate(0 -0.444)" fill="#12263f"/>
        <path id="Trazado_1000906" data-name="Trazado 1000906" d="M203.09,33.3a2.667,2.667,0,0,1,.788.317c.955.8,2.289,2.672,3.233,3.228,1.88,1.108,4.934,1.66,6.984,2.7,6.233,3.167,4.287,9.545,4.091,15.264-.152,4.432-.047,9.125-.388,13.535-.053.686-.193,2.078-.962,2.283a1.433,1.433,0,0,1-1.367-.574,23.907,23.907,0,0,1-.109-4.347c.077-3.527.493-7.151.622-10.678.117-3.2.153-6.391.192-9.592-.35-.091-.4.145-.606.3-1.25.959-4.241,4.047-4.55,5.538l-.1,18.058c-.246,1.767-2.159,1.716-2.4.2.385-5.675-.57-12.138.012-17.719a8.739,8.739,0,0,1,2.19-4.671c.529-.625,3.976-3.776,4.027-4.057.065-.358-1.166-1.117-1.493-1.291a52.722,52.722,0,0,0-6.425-2.388c-1.886,1.67-3.884,6.976-6.052,7.882a3.411,3.411,0,0,1-2.964-.039c.061,2.862.083,5.721.192,8.583.154,4.038,1.011,9.652.626,13.523-.225,2.259-2.681,1.293-2.429-.823l-.81-19.671h-2.424c-.14,2.042-.1,4.111-.2,6.153-.178,3.483-.445,7-.612,10.486-.059,1.243.286,3.532-.311,4.531a1.117,1.117,0,0,1-2.112-.477q.392-10.706.816-21.4c.012-.314.195-.594.2-.906-5.062,1.933-6.319-5.2-9.218-7.844a33.005,33.005,0,0,0-4.153,1.432c-.942.366-4.068,2.369-4.547.823-.4-1.3.463-1.627,1.436-2.118,2.052-1.036,5.107-1.595,6.984-2.7.941-.554,2.28-2.424,3.233-3.228.267-.225.788-.258.831-.413a14.918,14.918,0,0,0-.053-2.559c-.089-.3-1.672-2.2-2.053-2.991-.3-.621-.9-2.836-1.028-3.008-.162-.211-1.524-.321-2.114-.711-1.667-1.1-1.9-4.281-.818-5.842a14.06,14.06,0,0,1,1.222-1.05c.105-.459-.54-3.191-.614-4-.3-3.227-.313-7.186,2.955-8.946.777-.418,1.724-.458,2.434-.8,3.4-1.616,4.51-3.016,8.837-3.27C204-.54,209.615,4.976,209.111,14.868c-.035.686-.457,2.061-.4,2.622.038.394.484.612.649.97.909,1.973.416,5.1-1.851,5.9-.407.144-1.084-.019-1.324.29-.105.136-.749,2.535-1.068,3.17-.368.732-1.919,2.514-2.013,2.83a13.357,13.357,0,0,0-.01,2.655m3.356-16.767c.524-.724.22-5.564-.016-6.653-1.639-7.56-10.9-8.922-17.087-6.311-1.23.519-2.246,1.543-3.252,1.994-1.257.563-2.5.344-3.38,1.866-.9,1.551-.632,4.451-.409,6.2a28.094,28.094,0,0,0,.625,3.107,8.816,8.816,0,0,0,1.238.631c.507-.086,1.624-2.386,2.846-.982.6.684.261,1.215-.19,1.813-.748.992-2.023,2.147-3.345,1.721-.538-.173-2.092-2.054-2.39,0-.481,3.317,1.892,1.512,3.009,3.216.564.86.836,2.72,1.508,3.94a9.85,9.85,0,0,0,17.63-.94c.564-1.33.55-3.238,2.057-3.8.557-.206,1.591-.049,1.907-.716a5.313,5.313,0,0,0,.067-2.086c-.3-.888-1.529-.33-2.07-.349-1.955-.068-2.286-3.131-2.674-3.226-5.191.809-12.567.908-16.415-3.314-.644-.707-1.433-2.233-.055-2.481,1.417-.255,1.637.818,2.587,1.563,2.925,2.293,7.31,2.489,10.889,2.222,1.037-.078,3.415-.807,4.2-.565.906.278,1.595,4.7,2.72,3.144m-5.607,16.19c-.668-.1-1.067.475-1.613.706a13.271,13.271,0,0,1-8.316.647,30.21,30.21,0,0,1-3.185-1.353c-.182,1.87-.036,2.142,1.207,3.331,1.664,1.594,3.594,2.994,5.322,4.523.94-1.242,6.372-5.045,6.581-6.144.1-.517-.052-1.17,0-1.71m-15.6,3.451c-.267.071-1.85,1.57-1.524,2.052.983.906,4.145,6.755,4.959,6.977,1.015.277,3.076-2.285,3.679-3.077-.957-.623-6.548-6.1-7.114-5.953m17.555,0L196,42.117c-.068.277,3.532,4.45,4.235,2.614l4.361-6.551c.311-.634-1.361-2.114-1.8-2m-7.607,10.27c.109-1.062.043-1.984-1.083-2.407-.979.608-1.045,1.317-.937,2.407Z" transform="translate(-137.876 0)" fill="#12263f"/>
        <path id="Trazado_1000907" data-name="Trazado 1000907" d="M219.242,257.978a39.129,39.129,0,0,1,5.2-.034,1.124,1.124,0,0,1,0,2.209,39.066,39.066,0,0,1-5.2-.034,1.227,1.227,0,0,1,0-2.142" transform="translate(-174.501 -205.84)" fill="#12263f"/>
        <path id="Trazado_1000908" data-name="Trazado 1000908" d="M65.443,285.055c-.425.426-4.629.439-5.085-.165-1.824-2.417,4.9-2.587,5.3-1.26a1.931,1.931,0,0,1-.215,1.425" transform="translate(-47.929 -225.739)" fill="#12263f"/>
      </g>
    </g>
  </g>
</svg>
