<svg xmlns="http://www.w3.org/2000/svg" xmlns:xlink="http://www.w3.org/1999/xlink" width="50" height="50" viewBox="0 0 50 50">
  <defs>
    <clipPath id="clip-path">
      <rect id="Rect치ngulo_454239" data-name="Rect치ngulo 454239" width="38.914" height="38.91" fill="#074528"/>
    </clipPath>
  </defs>
  <g id="Grupo_1176603" data-name="Grupo 1176603" transform="translate(-179.668 -832)">
    <g id="Grupo_1145882" data-name="Grupo 1145882">
      <g id="Grupo_1176135" data-name="Grupo 1176135">
        <rect id="Rect치ngulo_454129" data-name="Rect치ngulo 454129" width="50" height="50" transform="translate(179.668 832)" fill="#30df8e"/>
        <g id="Grupo_1176134" data-name="Grupo 1176134" transform="translate(189.668 829.045)">
          <path id="Trazado_929147" data-name="Trazado 929147" d="M26.864,16.411a8.45,8.45,0,0,0-12.2.3A8.422,8.422,0,1,0,2.675,28.527a2.952,2.952,0,0,0,1.658,5.04,2.954,2.954,0,0,0,2.93,3.144,2.95,2.95,0,0,0,3.684,2.644,2.953,2.953,0,0,0,4.926,1.315c.9-.9,1.617-1.46,1.663-2.816a2.955,2.955,0,0,0,2.8-2.834,2.954,2.954,0,0,0,2.835-2.835,2.956,2.956,0,0,0,2.838-3.019l.855-.855A8.424,8.424,0,0,0,26.864,16.411ZM3.965,29.9l.8-.8A1.065,1.065,0,0,1,6.274,30.6l-.8.8A1.065,1.065,0,0,1,3.965,29.9ZM6.2,33.768a1.058,1.058,0,0,1,.312-.753l.8-.8a1.065,1.065,0,0,1,1.505,1.506l-.709.709a1.116,1.116,0,0,1-.848.406A1.07,1.07,0,0,1,6.2,33.768Zm3.242,3.494a1.07,1.07,0,0,1,0-1.506l.709-.709a1.079,1.079,0,0,1,1.6-.095,1.066,1.066,0,0,1,0,1.506l-.8.8a1.066,1.066,0,0,1-1.506,0Zm5.9,1.276-.8.8a1.065,1.065,0,0,1-1.506,0,1.07,1.07,0,0,1,0-1.506l.8-.8a1.065,1.065,0,0,1,1.506,1.506ZM23.817,30a1.07,1.07,0,0,1-1.506,0l-4.184-4.184L16.8,27.142l4.184,4.184a1.065,1.065,0,1,1-1.506,1.506l-4.113-4.113-.071-.071-1.329,1.329.071.071,4.113,4.113a1.065,1.065,0,0,1-1.506,1.506h0a2.946,2.946,0,0,0-2.8-.729,2.959,2.959,0,0,0-2.836-2.176,2.956,2.956,0,0,0-2.552-2.715,2.951,2.951,0,0,0-4.374-2.77,6.547,6.547,0,1,1,9.248-9.232l-2.324,2.324,1.862,1.862a4.263,4.263,0,0,0,5.279.591l5.669,5.669a1.066,1.066,0,0,1,0,1.506Zm1.717-3.016-.286.286q-.049-.054-.1-.106l-6.925-6.925-.665.665a2.378,2.378,0,0,1-3.359,0l-.533-.533,2.628-2.628a6.534,6.534,0,0,1,9.24,9.24Z" transform="translate(0)" fill="#30df8e"/>
        </g>
      </g>
    </g>
    <g id="Grupo_1176574" data-name="Grupo 1176574" transform="translate(185.211 837.545)">
      <g id="Grupo_1176573" data-name="Grupo 1176573" clip-path="url(#clip-path)">
        <path id="Trazado_988809" data-name="Trazado 988809" d="M33.187,26.113a6.8,6.8,0,0,0,2.866-3.943A6.031,6.031,0,0,0,25.517,17c-.17.2-.563,1.011-.748.966-.06-.014-.555-.845-.7-1.015A6,6,0,0,0,14.9,16.89c-.173.2-.7,1.112-.855,1.074-.06-.015-.54-.837-.7-1.021a6.026,6.026,0,0,0-10.438,5.4,6.848,6.848,0,0,0,2.82,3.774,7.39,7.39,0,0,0-3.485,2.359A19.449,19.449,0,1,1,38.3,24.315c-.129.515-1.293,4.053-1.632,4.05a8.314,8.314,0,0,0-3.485-2.252M19.966,1.584a.746.746,0,0,0-1.014,0c-.484.663-1.317,3.174-1.854,3.562-.593.429-2.925.616-3.778.941-.587.224-.655.562-.371,1.121l3.024,2.384-1.214,3.733c.109.756.505.846,1.158.614.767-.273,2.913-1.657,3.486-1.663a1.265,1.265,0,0,1,.437.106c1.148.411,2.3,1.27,3.478,1.679a.729.729,0,0,0,.817-.492c.145-.52-1.155-3.185-1.206-3.921l3.04-2.44c.339-.674.134-.967-.525-1.181-1.141-.371-2.549-.444-3.705-.853Z" transform="translate(0 0.001)" fill="#074528"/>
        <path id="Trazado_988810" data-name="Trazado 988810" d="M126.955,260.825a19.67,19.67,0,0,1-14.719.03c-.175-2.819-.311-5.584,1.548-7.893a7.434,7.434,0,0,1,11.578,0c1.875,2.329,1.667,5.029,1.593,7.863" transform="translate(-100.114 -223.359)" fill="#074528"/>
        <path id="Trazado_988811" data-name="Trazado 988811" d="M141.84,150.187c7.178-1.034,7.476,9.94.29,9.307-5.28-.466-5.436-8.565-.29-9.307" transform="translate(-123.265 -134.018)" fill="#074528"/>
        <path id="Trazado_988812" data-name="Trazado 988812" d="M241.84,150.187c7.178-1.034,7.476,9.94.29,9.307-5.28-.466-5.436-8.565-.29-9.307" transform="translate(-212.54 -134.018)" fill="#074528"/>
        <path id="Trazado_988813" data-name="Trazado 988813" d="M41.84,150.189c7.162-1.032,7.482,9.941.29,9.307-5.28-.466-5.436-8.565-.29-9.307" transform="translate(-33.99 -134.021)" fill="#074528"/>
        <path id="Trazado_988814" data-name="Trazado 988814" d="M242.809,260.218v-3.486a8.406,8.406,0,0,0-.294-1.422,8.1,8.1,0,0,0-2.064-3.618,7.272,7.272,0,0,1,10.17,1.374,18.737,18.737,0,0,1-5.784,6.017,17.581,17.581,0,0,1-2.028,1.136" transform="translate(-214.663 -223.377)" fill="#074528"/>
        <path id="Trazado_988815" data-name="Trazado 988815" d="M35.408,260.218a18.691,18.691,0,0,1-7.812-7.152,7.272,7.272,0,0,1,10.17-1.374A8.1,8.1,0,0,0,35.7,255.31a8.4,8.4,0,0,0-.294,1.422Z" transform="translate(-24.636 -223.377)" fill="#074528"/>
        <path id="Trazado_988816" data-name="Trazado 988816" d="M114.154,222.959c-.914.156-1.59.869-2.408,1.187a7.75,7.75,0,0,0-2.311-1.187c.506-.5,1.081-.839,1.556-1.392.157-.182.687-1.058.751-1.073.146-.035.727.922.907,1.129.462.532,1.021.852,1.5,1.337" transform="translate(-97.698 -196.845)" fill="#074528"/>
        <path id="Trazado_988817" data-name="Trazado 988817" d="M214.155,222.959a11.479,11.479,0,0,0-2.408,1.187,7.93,7.93,0,0,0-2.311-1.187c.483-.485,1.042-.8,1.5-1.337.18-.207.761-1.164.908-1.129.064.015.594.892.751,1.073.476.552,1.051.895,1.556,1.392" transform="translate(-186.974 -196.845)" fill="#074528"/>
        <path id="Trazado_988818" data-name="Trazado 988818" d="M144,33.365c.325.58.88,2.33,1.339,2.684.478.367,2.4.474,3.059.749.136.132-2.356,1.762-2.448,2.223-.119.6.7,2.149.839,2.815a.683.683,0,0,1-.4-.084,12.615,12.615,0,0,0-2.444-1.1c-.9-.028-2.02,1.083-2.95,1.188.143-.667.959-2.219.839-2.815-.092-.461-2.584-2.091-2.448-2.223.669-.259,2.644-.405,3.107-.809a23.854,23.854,0,0,0,1.265-2.486c.067-.1-.012-.192.239-.138" transform="translate(-124.435 -29.772)" fill="#074528"/>
      </g>
    </g>
  </g>
</svg>
