<svg xmlns="http://www.w3.org/2000/svg" xmlns:xlink="http://www.w3.org/1999/xlink" width="400" height="356" viewBox="0 0 400 356">
  <defs>
    <clipPath id="clip-path">
      <rect id="Rect치ngulo_456655" data-name="Rect치ngulo 456655" width="400" height="303.649" fill="none"/>
    </clipPath>
  </defs>
  <g id="Grupo_1186382" data-name="Grupo 1186382" transform="translate(-914.711 -14012)">
    <rect id="Rect치ngulo_456500" data-name="Rect치ngulo 456500" width="400" height="356" transform="translate(914.711 14012)" fill="none"/>
    <g id="Grupo_1186381" data-name="Grupo 1186381" transform="translate(914.711 14038)">
      <g id="Grupo_1186380" data-name="Grupo 1186380" clip-path="url(#clip-path)">
        <path id="Trazado_1000748" data-name="Trazado 1000748" d="M265.4,266.569A54.283,54.283,0,0,0,265.4,158a22.952,22.952,0,1,1,0-45.9h2.732a23.863,23.863,0,0,0,0-47.725h-8.38a9.29,9.29,0,0,1,0-18.58h6.157a6.412,6.412,0,0,0,0-12.823H211.441a10.075,10.075,0,0,1,0-20.149h6.188a6.412,6.412,0,1,0,0-12.823h-90.7a8.367,8.367,0,0,0,0,16.733h27.56a13.184,13.184,0,0,1,13.146,13.146h0a13.184,13.184,0,0,1-13.146,13.146H65.236A8.39,8.39,0,0,0,56.87,51.39h0a8.39,8.39,0,0,0,8.366,8.365H97.6a12.159,12.159,0,0,1,12.123,12.123h0A12.157,12.157,0,0,1,97.6,84H42.463a31.138,31.138,0,0,0,0,62.276h17.1a29.949,29.949,0,0,1,0,59.9H30.2a30.2,30.2,0,1,0,0,60.393ZM105.525,16.732a8.367,8.367,0,1,1,8.366-8.366,8.366,8.366,0,0,1-8.366,8.366M283.906,45.8a6.412,6.412,0,1,1,6.412-6.412,6.412,6.412,0,0,1-6.412,6.412" transform="translate(0 0)" fill="#fdd5ba" fill-rule="evenodd"/>
        <path id="Trazado_1000749" data-name="Trazado 1000749" d="M365.542,145.5a44.092,44.092,0,0,0,9.75-4.043l8.332,8.331a2.958,2.958,0,0,0,4.172,0l12.762-12.764a2.956,2.956,0,0,0,0-4.17l-8.332-8.333a44.119,44.119,0,0,0,4.044-9.75h11.779A2.956,2.956,0,0,0,411,111.827V93.777a2.957,2.957,0,0,0-2.948-2.949H396.269a44.056,44.056,0,0,0-4.043-9.751l8.331-8.332a2.956,2.956,0,0,0,0-4.17L387.794,55.811a2.957,2.957,0,0,0-4.171,0l-8.332,8.332a44.134,44.134,0,0,0-9.75-4.043V48.322a2.957,2.957,0,0,0-2.949-2.949H344.542a2.958,2.958,0,0,0-2.95,2.949V60.1a44.075,44.075,0,0,0-9.75,4.043l-8.332-8.332a2.957,2.957,0,0,0-4.171,0L306.576,68.576a2.956,2.956,0,0,0,0,4.17l8.332,8.332a44.069,44.069,0,0,0-4.044,9.752H299.086a2.956,2.956,0,0,0-2.948,2.948v18.051a2.957,2.957,0,0,0,2.948,2.948h11.778a44.1,44.1,0,0,0,4.044,9.751l-8.332,8.332a2.958,2.958,0,0,0,0,4.171l12.764,12.764a2.956,2.956,0,0,0,4.17,0l8.333-8.332a44.1,44.1,0,0,0,9.75,4.044v11.779a2.957,2.957,0,0,0,2.949,2.948h18.049a2.957,2.957,0,0,0,2.95-2.948Zm-11.975-19.6a23.1,23.1,0,1,1,23.1-23.1,23.1,23.1,0,0,1-23.1,23.1" transform="translate(-32.904 -5.041)" fill="#f08d1b" fill-rule="evenodd"/>
        <path id="Trazado_1000750" data-name="Trazado 1000750" d="M365.131,145.5a44.075,44.075,0,0,0,9.75-4.043l8.332,8.331a2.958,2.958,0,0,0,4.172,0l12.763-12.764a2.956,2.956,0,0,0,0-4.17l-8.332-8.333a44.075,44.075,0,0,0,4.044-9.75h11.779a2.956,2.956,0,0,0,2.948-2.948V93.777a2.957,2.957,0,0,0-2.948-2.949H395.859a44.1,44.1,0,0,0-4.044-9.751q4.165-4.165,8.331-8.332a2.956,2.956,0,0,0,0-4.17L387.383,55.811a2.957,2.957,0,0,0-4.171,0q-4.165,4.167-8.332,8.332a44.1,44.1,0,0,0-9.75-4.043V48.322a2.957,2.957,0,0,0-2.949-2.949H344.131a2.957,2.957,0,0,0-2.95,2.949V60.1a44.05,44.05,0,0,0-9.749,4.043L323.1,55.812a2.956,2.956,0,0,0-4.17,0L306.165,68.576a2.956,2.956,0,0,0,0,4.17l8.331,8.332a44.067,44.067,0,0,0-4.044,9.752H298.675a2.956,2.956,0,0,0-2.948,2.948v18.051a2.957,2.957,0,0,0,2.948,2.948h11.779a44.059,44.059,0,0,0,4.043,9.751l-8.331,8.332a2.957,2.957,0,0,0,0,4.171l12.763,12.764a2.956,2.956,0,0,0,4.17,0l8.333-8.332a44.138,44.138,0,0,0,9.75,4.044v11.779a2.957,2.957,0,0,0,2.949,2.948h18.05a2.957,2.957,0,0,0,2.949-2.948Zm-11.974-19.6a23.1,23.1,0,1,1,23.1-23.1,23.1,23.1,0,0,1-23.1,23.1" transform="translate(-32.859 -5.041)" fill="#f08d1b" fill-rule="evenodd"/>
        <path id="Trazado_1000751" data-name="Trazado 1000751" d="M364.72,145.5a44.083,44.083,0,0,0,9.751-4.043l8.331,8.331a2.958,2.958,0,0,0,4.172,0l12.763-12.764a2.956,2.956,0,0,0,0-4.17l-8.332-8.333a44.035,44.035,0,0,0,4.044-9.75h11.779a2.957,2.957,0,0,0,2.949-2.948V93.777a2.958,2.958,0,0,0-2.949-2.949H395.448a44.1,44.1,0,0,0-4.044-9.751l8.332-8.332a2.957,2.957,0,0,0,0-4.17L386.972,55.811a2.957,2.957,0,0,0-4.171,0q-4.165,4.167-8.332,8.332A44.11,44.11,0,0,0,364.72,60.1V48.322a2.958,2.958,0,0,0-2.95-2.949H343.72a2.957,2.957,0,0,0-2.949,2.949V60.1a44.057,44.057,0,0,0-9.75,4.043l-8.332-8.332a2.958,2.958,0,0,0-4.172,0L305.755,68.576a2.956,2.956,0,0,0,0,4.17l8.332,8.332a44.026,44.026,0,0,0-4.044,9.752H298.265a2.957,2.957,0,0,0-2.949,2.948v18.051a2.957,2.957,0,0,0,2.949,2.948h11.778a44.016,44.016,0,0,0,4.044,9.751l-8.332,8.332a2.958,2.958,0,0,0,0,4.171l12.763,12.764a2.959,2.959,0,0,0,4.172,0q4.167-4.165,8.332-8.332a44.114,44.114,0,0,0,9.749,4.044v11.779a2.957,2.957,0,0,0,2.95,2.948H361.77a2.957,2.957,0,0,0,2.949-2.948Zm-11.974-19.6a23.1,23.1,0,1,1,23.1-23.1,23.1,23.1,0,0,1-23.1,23.1" transform="translate(-32.813 -5.041)" fill="#f08d1b" fill-rule="evenodd"/>
        <path id="Trazado_1000752" data-name="Trazado 1000752" d="M364.309,145.5a44.092,44.092,0,0,0,9.75-4.043l8.332,8.331a2.957,2.957,0,0,0,4.171,0l12.764-12.764a2.956,2.956,0,0,0,0-4.17l-8.332-8.333a44.078,44.078,0,0,0,4.044-9.75h11.779a2.956,2.956,0,0,0,2.948-2.948V93.777a2.957,2.957,0,0,0-2.948-2.949H395.037a44.054,44.054,0,0,0-4.043-9.751l8.331-8.332a2.956,2.956,0,0,0,0-4.17L386.562,55.811a2.957,2.957,0,0,0-4.171,0l-8.333,8.332a44.109,44.109,0,0,0-9.749-4.043V48.322a2.957,2.957,0,0,0-2.949-2.949h-18.05a2.957,2.957,0,0,0-2.949,2.949V60.1a44.074,44.074,0,0,0-9.75,4.043l-8.332-8.332a2.957,2.957,0,0,0-4.171,0L305.344,68.576a2.956,2.956,0,0,0,0,4.17l8.331,8.332a44.112,44.112,0,0,0-4.044,9.752H297.854a2.957,2.957,0,0,0-2.949,2.948v18.051a2.958,2.958,0,0,0,2.949,2.948h11.778a44.1,44.1,0,0,0,4.044,9.751l-8.331,8.332a2.957,2.957,0,0,0,0,4.171l12.763,12.764a2.956,2.956,0,0,0,4.17,0q4.167-4.165,8.332-8.332a44.126,44.126,0,0,0,9.751,4.044v11.779a2.957,2.957,0,0,0,2.949,2.948h18.049a2.958,2.958,0,0,0,2.95-2.948Zm-11.975-19.6a23.1,23.1,0,1,1,23.1-23.1,23.1,23.1,0,0,1-23.1,23.1" transform="translate(-32.767 -5.041)" fill="#f08d1b" fill-rule="evenodd"/>
        <path id="Trazado_1000753" data-name="Trazado 1000753" d="M363.9,145.5a44.1,44.1,0,0,0,9.751-4.043l8.332,8.331a2.956,2.956,0,0,0,4.17,0q6.383-6.381,12.763-12.764a2.955,2.955,0,0,0,0-4.17l-8.332-8.333a44.081,44.081,0,0,0,4.044-9.75H406.4a2.958,2.958,0,0,0,2.95-2.948V93.777a2.959,2.959,0,0,0-2.95-2.949H394.626a44.1,44.1,0,0,0-4.043-9.751q4.164-4.165,8.33-8.332a2.954,2.954,0,0,0,0-4.17q-6.38-6.381-12.763-12.764a2.955,2.955,0,0,0-4.169,0l-8.333,8.332A44.124,44.124,0,0,0,363.9,60.1V48.322a2.956,2.956,0,0,0-2.949-2.949H342.9a2.958,2.958,0,0,0-2.95,2.949V60.1a44.073,44.073,0,0,0-9.75,4.043q-4.164-4.167-8.331-8.332a2.959,2.959,0,0,0-4.172,0q-6.38,6.381-12.763,12.764a2.958,2.958,0,0,0,0,4.17l8.332,8.332a44.07,44.07,0,0,0-4.045,9.752H297.443a2.956,2.956,0,0,0-2.948,2.948v18.051a2.956,2.956,0,0,0,2.948,2.948h11.78a44.013,44.013,0,0,0,4.043,9.751l-8.332,8.332a2.958,2.958,0,0,0,0,4.171L317.7,149.793a2.959,2.959,0,0,0,4.172,0l8.332-8.332a44.1,44.1,0,0,0,9.75,4.044v11.779a2.956,2.956,0,0,0,2.948,2.948h18.049a2.957,2.957,0,0,0,2.95-2.948Zm-11.973-19.6a23.1,23.1,0,1,1,23.1-23.1,23.1,23.1,0,0,1-23.1,23.1" transform="translate(-32.722 -5.041)" fill="#f08d1b" fill-rule="evenodd"/>
        <path id="Trazado_1000754" data-name="Trazado 1000754" d="M363.487,145.5a44.082,44.082,0,0,0,9.751-4.043l8.332,8.331a2.957,2.957,0,0,0,4.171,0L398.5,137.029a2.956,2.956,0,0,0,0-4.17l-8.332-8.333a44.035,44.035,0,0,0,4.044-9.75h11.779a2.957,2.957,0,0,0,2.949-2.948V93.777a2.958,2.958,0,0,0-2.949-2.949H394.215a44.058,44.058,0,0,0-4.044-9.751l8.332-8.332a2.957,2.957,0,0,0,0-4.17L385.739,55.811a2.956,2.956,0,0,0-4.17,0q-4.165,4.167-8.332,8.332a44.123,44.123,0,0,0-9.751-4.043V48.322a2.957,2.957,0,0,0-2.949-2.949H342.487a2.957,2.957,0,0,0-2.949,2.949V60.1a44.057,44.057,0,0,0-9.75,4.043l-8.332-8.332a2.958,2.958,0,0,0-4.172,0L304.521,68.576a2.957,2.957,0,0,0,0,4.17l8.331,8.332a44.067,44.067,0,0,0-4.044,9.752H297.031a2.957,2.957,0,0,0-2.948,2.948v18.051a2.958,2.958,0,0,0,2.948,2.948H308.81a44.057,44.057,0,0,0,4.043,9.751q-4.164,4.167-8.331,8.332a2.958,2.958,0,0,0,0,4.171l12.764,12.764a2.957,2.957,0,0,0,4.171,0q4.167-4.165,8.332-8.332a44.112,44.112,0,0,0,9.749,4.044v11.779a2.957,2.957,0,0,0,2.95,2.948h18.049a2.957,2.957,0,0,0,2.949-2.948Zm-11.974-19.6a23.1,23.1,0,1,1,23.1-23.1,23.1,23.1,0,0,1-23.1,23.1" transform="translate(-32.676 -5.041)" fill="#f08d1b" fill-rule="evenodd"/>
        <path id="Trazado_1000755" data-name="Trazado 1000755" d="M363.076,145.5a44.082,44.082,0,0,0,9.751-4.043l8.331,8.331a2.958,2.958,0,0,0,4.172,0q6.383-6.381,12.763-12.764a2.956,2.956,0,0,0,0-4.17l-8.332-8.333a44.119,44.119,0,0,0,4.044-9.75h11.779a2.956,2.956,0,0,0,2.948-2.948V93.777a2.957,2.957,0,0,0-2.948-2.949H393.8a44.057,44.057,0,0,0-4.043-9.751l8.331-8.332a2.956,2.956,0,0,0,0-4.17L385.329,55.811a2.959,2.959,0,0,0-4.172,0q-4.165,4.167-8.332,8.332a44.109,44.109,0,0,0-9.749-4.043V48.322a2.958,2.958,0,0,0-2.949-2.949h-18.05a2.957,2.957,0,0,0-2.949,2.949V60.1a44.1,44.1,0,0,0-9.751,4.043l-8.332-8.332a2.957,2.957,0,0,0-4.171,0L304.111,68.576a2.956,2.956,0,0,0,0,4.17l8.332,8.332a44.068,44.068,0,0,0-4.044,9.752H296.621a2.957,2.957,0,0,0-2.949,2.948v18.051a2.958,2.958,0,0,0,2.949,2.948H308.4a44.06,44.06,0,0,0,4.044,9.751l-8.332,8.332a2.958,2.958,0,0,0,0,4.171l12.764,12.764a2.956,2.956,0,0,0,4.17,0q4.167-4.165,8.332-8.332a44.127,44.127,0,0,0,9.751,4.044v11.779a2.957,2.957,0,0,0,2.949,2.948h18.049a2.957,2.957,0,0,0,2.949-2.948ZM351.1,125.9a23.1,23.1,0,1,1,23.1-23.1,23.1,23.1,0,0,1-23.1,23.1" transform="translate(-32.63 -5.041)" fill="#f08d1b" fill-rule="evenodd"/>
        <path id="Trazado_1000756" data-name="Trazado 1000756" d="M362.666,145.5a44.075,44.075,0,0,0,9.75-4.043l8.332,8.331a2.957,2.957,0,0,0,4.171,0l12.763-12.764a2.956,2.956,0,0,0,0-4.17l-8.332-8.333a44.074,44.074,0,0,0,4.044-9.75h11.779a2.956,2.956,0,0,0,2.948-2.948V93.777a2.957,2.957,0,0,0-2.948-2.949H393.394a44.1,44.1,0,0,0-4.044-9.751q4.165-4.165,8.331-8.332a2.956,2.956,0,0,0,0-4.17L384.918,55.811a2.956,2.956,0,0,0-4.17,0l-8.332,8.332a44.124,44.124,0,0,0-9.751-4.043V48.322a2.957,2.957,0,0,0-2.949-2.949H341.666a2.958,2.958,0,0,0-2.95,2.949V60.1a44.075,44.075,0,0,0-9.75,4.043l-8.332-8.332a2.957,2.957,0,0,0-4.171,0L303.7,68.576a2.956,2.956,0,0,0,0,4.17l8.331,8.332a44.113,44.113,0,0,0-4.044,9.752H296.21a2.956,2.956,0,0,0-2.948,2.948v18.051a2.957,2.957,0,0,0,2.948,2.948h11.779a44.057,44.057,0,0,0,4.043,9.751l-8.331,8.332a2.957,2.957,0,0,0,0,4.171l12.763,12.764a2.957,2.957,0,0,0,4.171,0q4.167-4.165,8.332-8.332a44.138,44.138,0,0,0,9.75,4.044v11.779a2.957,2.957,0,0,0,2.949,2.948h18.049a2.957,2.957,0,0,0,2.95-2.948ZM350.69,125.9a23.1,23.1,0,1,1,23.1-23.1,23.1,23.1,0,0,1-23.1,23.1" transform="translate(-32.585 -5.041)" fill="#f08d1b" fill-rule="evenodd"/>
        <path id="Trazado_1000757" data-name="Trazado 1000757" d="M362.255,145.5a44.1,44.1,0,0,0,9.751-4.043l8.331,8.331a2.958,2.958,0,0,0,4.172,0l12.763-12.764a2.956,2.956,0,0,0,0-4.17l-8.332-8.333a44.033,44.033,0,0,0,4.044-9.75H404.76a2.957,2.957,0,0,0,2.949-2.948V93.777a2.958,2.958,0,0,0-2.949-2.949H392.983a44.1,44.1,0,0,0-4.044-9.751l8.332-8.332a2.957,2.957,0,0,0,0-4.17L384.507,55.811a2.957,2.957,0,0,0-4.171,0q-4.165,4.167-8.332,8.332a44.11,44.11,0,0,0-9.749-4.043V48.322a2.958,2.958,0,0,0-2.95-2.949H341.255a2.957,2.957,0,0,0-2.949,2.949V60.1a44.056,44.056,0,0,0-9.75,4.043l-8.332-8.332a2.957,2.957,0,0,0-4.171,0L303.289,68.576a2.956,2.956,0,0,0,0,4.17l8.332,8.332a44.027,44.027,0,0,0-4.044,9.752H295.8a2.956,2.956,0,0,0-2.948,2.948v18.051a2.957,2.957,0,0,0,2.948,2.948h11.779a44.016,44.016,0,0,0,4.044,9.751l-8.332,8.332a2.957,2.957,0,0,0,0,4.171l12.763,12.764a2.957,2.957,0,0,0,4.171,0l8.332-8.332a44.137,44.137,0,0,0,9.75,4.044v11.779a2.957,2.957,0,0,0,2.949,2.948h18.05a2.957,2.957,0,0,0,2.949-2.948ZM350.28,125.9a23.1,23.1,0,1,1,23.1-23.1,23.1,23.1,0,0,1-23.1,23.1" transform="translate(-32.539 -5.041)" fill="#f08d1b" fill-rule="evenodd"/>
        <path id="Trazado_1000758" data-name="Trazado 1000758" d="M361.844,145.5a44.083,44.083,0,0,0,9.751-4.043l8.331,8.331a2.958,2.958,0,0,0,4.172,0l12.764-12.764a2.957,2.957,0,0,0,0-4.17l-8.332-8.333a44.078,44.078,0,0,0,4.044-9.75H404.35a2.956,2.956,0,0,0,2.948-2.948V93.777a2.957,2.957,0,0,0-2.948-2.949H392.572a44.016,44.016,0,0,0-4.044-9.751l8.332-8.332a2.957,2.957,0,0,0,0-4.17L384.1,55.811a2.959,2.959,0,0,0-4.172,0q-4.165,4.167-8.332,8.332a44.11,44.11,0,0,0-9.749-4.043V48.322a2.958,2.958,0,0,0-2.95-2.949H340.844a2.957,2.957,0,0,0-2.949,2.949V60.1a44.056,44.056,0,0,0-9.75,4.043l-8.332-8.332a2.958,2.958,0,0,0-4.172,0L302.879,68.576a2.956,2.956,0,0,0,0,4.17l8.332,8.332a44.068,44.068,0,0,0-4.044,9.752H295.389a2.957,2.957,0,0,0-2.949,2.948v18.051a2.958,2.958,0,0,0,2.949,2.948h11.778a44.1,44.1,0,0,0,4.044,9.751l-8.332,8.332a2.958,2.958,0,0,0,0,4.171l12.764,12.764a2.957,2.957,0,0,0,4.171,0q4.167-4.165,8.332-8.332a44.1,44.1,0,0,0,9.75,4.044v11.779a2.957,2.957,0,0,0,2.949,2.948h18.049a2.957,2.957,0,0,0,2.949-2.948Zm-11.974-19.6a23.1,23.1,0,1,1,23.1-23.1,23.1,23.1,0,0,1-23.1,23.1" transform="translate(-32.493 -5.041)" fill="#f08d1b" fill-rule="evenodd"/>
        <path id="Trazado_1000759" data-name="Trazado 1000759" d="M361.434,145.5a44.075,44.075,0,0,0,9.75-4.043l8.332,8.331a2.956,2.956,0,0,0,4.17,0l12.764-12.764a2.956,2.956,0,0,0,0-4.17l-8.332-8.333a44.074,44.074,0,0,0,4.044-9.75h11.779a2.956,2.956,0,0,0,2.948-2.948V93.777a2.957,2.957,0,0,0-2.948-2.949H392.161a44.056,44.056,0,0,0-4.043-9.751l8.331-8.332a2.956,2.956,0,0,0,0-4.17L383.686,55.811a2.956,2.956,0,0,0-4.17,0l-8.333,8.332a44.116,44.116,0,0,0-9.75-4.043V48.322a2.957,2.957,0,0,0-2.949-2.949H340.434a2.958,2.958,0,0,0-2.95,2.949V60.1a44.075,44.075,0,0,0-9.75,4.043q-4.165-4.167-8.332-8.332a2.957,2.957,0,0,0-4.171,0q-6.381,6.381-12.763,12.764a2.956,2.956,0,0,0,0,4.17l8.331,8.332a44.11,44.11,0,0,0-4.044,9.752H294.978a2.956,2.956,0,0,0-2.948,2.948v18.051a2.957,2.957,0,0,0,2.948,2.948h11.779a44.057,44.057,0,0,0,4.043,9.751l-8.331,8.332a2.957,2.957,0,0,0,0,4.171l12.763,12.764a2.956,2.956,0,0,0,4.17,0l8.333-8.332a44.118,44.118,0,0,0,9.75,4.044v11.779a2.957,2.957,0,0,0,2.949,2.948h18.049a2.957,2.957,0,0,0,2.95-2.948Zm-11.974-19.6a23.1,23.1,0,1,1,23.1-23.1,23.1,23.1,0,0,1-23.1,23.1" transform="translate(-32.448 -5.041)" fill="#f08d1b" fill-rule="evenodd"/>
        <path id="Trazado_1000760" data-name="Trazado 1000760" d="M361.023,145.5a44.092,44.092,0,0,0,9.75-4.043l8.331,8.331a2.959,2.959,0,0,0,4.172,0l12.763-12.764a2.956,2.956,0,0,0,0-4.17l-8.332-8.333a44.077,44.077,0,0,0,4.044-9.75h11.779a2.956,2.956,0,0,0,2.948-2.948V93.777a2.957,2.957,0,0,0-2.948-2.949H391.751a44.1,44.1,0,0,0-4.044-9.751l8.331-8.332a2.956,2.956,0,0,0,0-4.17L383.276,55.811a2.959,2.959,0,0,0-4.172,0q-4.165,4.167-8.332,8.332a44.109,44.109,0,0,0-9.749-4.043V48.322a2.957,2.957,0,0,0-2.949-2.949H340.024a2.957,2.957,0,0,0-2.95,2.949V60.1a44.076,44.076,0,0,0-9.75,4.043l-8.332-8.332a2.957,2.957,0,0,0-4.171,0q-6.38,6.381-12.763,12.764a2.956,2.956,0,0,0,0,4.17l8.331,8.332a44.069,44.069,0,0,0-4.044,9.752H294.568a2.957,2.957,0,0,0-2.949,2.948v18.051a2.958,2.958,0,0,0,2.949,2.948h11.778a44.1,44.1,0,0,0,4.044,9.751l-8.331,8.332a2.957,2.957,0,0,0,0,4.171l12.763,12.764a2.956,2.956,0,0,0,4.17,0q4.167-4.165,8.332-8.332a44.128,44.128,0,0,0,9.751,4.044v11.779a2.957,2.957,0,0,0,2.949,2.948h18.049a2.958,2.958,0,0,0,2.95-2.948Zm-11.975-19.6a23.1,23.1,0,1,1,23.1-23.1,23.1,23.1,0,0,1-23.1,23.1" transform="translate(-32.402 -5.041)" fill="#f08d1b" fill-rule="evenodd"/>
        <path id="Trazado_1000761" data-name="Trazado 1000761" d="M360.612,145.5a44.075,44.075,0,0,0,9.75-4.043l8.332,8.331a2.957,2.957,0,0,0,4.171,0l12.763-12.764a2.956,2.956,0,0,0,0-4.17l-8.332-8.333a44.078,44.078,0,0,0,4.044-9.75h11.779a2.957,2.957,0,0,0,2.949-2.948V93.777a2.958,2.958,0,0,0-2.949-2.949H391.34a44.1,44.1,0,0,0-4.044-9.751q4.165-4.165,8.331-8.332a2.956,2.956,0,0,0,0-4.17L382.864,55.811a2.956,2.956,0,0,0-4.17,0q-4.165,4.167-8.332,8.332a44.123,44.123,0,0,0-9.751-4.043V48.322a2.957,2.957,0,0,0-2.949-2.949H339.612a2.958,2.958,0,0,0-2.95,2.949V60.1a44.067,44.067,0,0,0-9.749,4.043l-8.332-8.332a2.957,2.957,0,0,0-4.171,0L301.646,68.576a2.956,2.956,0,0,0,0,4.17l8.331,8.332a44.065,44.065,0,0,0-4.044,9.752H294.156a2.956,2.956,0,0,0-2.948,2.948v18.051a2.957,2.957,0,0,0,2.948,2.948h11.779a44.056,44.056,0,0,0,4.043,9.751q-4.164,4.167-8.331,8.332a2.957,2.957,0,0,0,0,4.171l12.763,12.764a2.958,2.958,0,0,0,4.171,0l8.333-8.332a44.112,44.112,0,0,0,9.749,4.044v11.779a2.957,2.957,0,0,0,2.949,2.948h18.05a2.957,2.957,0,0,0,2.949-2.948Zm-11.974-19.6a23.1,23.1,0,1,1,23.1-23.1,23.1,23.1,0,0,1-23.1,23.1" transform="translate(-32.356 -5.041)" fill="#f08d1b" fill-rule="evenodd"/>
        <path id="Trazado_1000762" data-name="Trazado 1000762" d="M360.2,145.5a44.08,44.08,0,0,0,9.751-4.043l8.331,8.331a2.958,2.958,0,0,0,4.172,0q6.381-6.381,12.763-12.764a2.956,2.956,0,0,0,0-4.17l-8.332-8.333a44.033,44.033,0,0,0,4.044-9.75h11.779a2.957,2.957,0,0,0,2.949-2.948V93.777a2.958,2.958,0,0,0-2.949-2.949H390.929a44.018,44.018,0,0,0-4.044-9.751l8.332-8.332a2.957,2.957,0,0,0,0-4.17L382.453,55.811a2.957,2.957,0,0,0-4.171,0q-4.165,4.167-8.332,8.332A44.109,44.109,0,0,0,360.2,60.1V48.322a2.958,2.958,0,0,0-2.95-2.949H339.2a2.957,2.957,0,0,0-2.949,2.949V60.1a44.079,44.079,0,0,0-9.751,4.043l-8.332-8.332a2.957,2.957,0,0,0-4.171,0L301.236,68.576a2.956,2.956,0,0,0,0,4.17l8.332,8.332a44.027,44.027,0,0,0-4.044,9.752H293.746a2.957,2.957,0,0,0-2.949,2.948v18.051a2.957,2.957,0,0,0,2.949,2.948h11.778a44.018,44.018,0,0,0,4.044,9.751l-8.332,8.332a2.958,2.958,0,0,0,0,4.171L314,149.793a2.957,2.957,0,0,0,4.171,0q4.167-4.165,8.332-8.332a44.127,44.127,0,0,0,9.751,4.044v11.779a2.957,2.957,0,0,0,2.949,2.948h18.049a2.957,2.957,0,0,0,2.949-2.948Zm-11.974-19.6a23.1,23.1,0,1,1,23.1-23.1,23.1,23.1,0,0,1-23.1,23.1" transform="translate(-32.311 -5.041)" fill="#f08d1b" fill-rule="evenodd"/>
        <path id="Trazado_1000763" data-name="Trazado 1000763" d="M359.79,145.5a44.075,44.075,0,0,0,9.75-4.043q4.167,4.165,8.332,8.331a2.957,2.957,0,0,0,4.171,0l12.764-12.764a2.956,2.956,0,0,0,0-4.17l-8.332-8.333a44.079,44.079,0,0,0,4.044-9.75H402.3a2.956,2.956,0,0,0,2.948-2.948V93.777a2.957,2.957,0,0,0-2.948-2.949H390.518a44.056,44.056,0,0,0-4.043-9.751l8.331-8.332a2.956,2.956,0,0,0,0-4.17L382.043,55.811a2.957,2.957,0,0,0-4.171,0q-4.165,4.167-8.332,8.332a44.134,44.134,0,0,0-9.75-4.043V48.322a2.957,2.957,0,0,0-2.949-2.949H338.79a2.958,2.958,0,0,0-2.949,2.949V60.1a44.074,44.074,0,0,0-9.75,4.043l-8.332-8.332a2.958,2.958,0,0,0-4.172,0L300.825,68.576a2.956,2.956,0,0,0,0,4.17l8.331,8.332a44.112,44.112,0,0,0-4.044,9.752H293.335a2.957,2.957,0,0,0-2.949,2.948v18.051a2.958,2.958,0,0,0,2.949,2.948h11.778a44.1,44.1,0,0,0,4.044,9.751l-8.331,8.332a2.957,2.957,0,0,0,0,4.171l12.763,12.764a2.957,2.957,0,0,0,4.171,0q4.167-4.165,8.332-8.332a44.1,44.1,0,0,0,9.75,4.044v11.779a2.957,2.957,0,0,0,2.949,2.948H356.84a2.957,2.957,0,0,0,2.95-2.948Zm-11.975-19.6a23.1,23.1,0,1,1,23.1-23.1,23.1,23.1,0,0,1-23.1,23.1" transform="translate(-32.265 -5.041)" fill="#f08d1b" fill-rule="evenodd"/>
        <path id="Trazado_1000764" data-name="Trazado 1000764" d="M359.38,145.5a44.1,44.1,0,0,0,9.751-4.043l8.331,8.331a2.958,2.958,0,0,0,4.172,0L394.4,137.029a2.956,2.956,0,0,0,0-4.17l-8.332-8.333a44.078,44.078,0,0,0,4.044-9.75h11.779a2.956,2.956,0,0,0,2.948-2.948V93.777a2.957,2.957,0,0,0-2.948-2.949H390.107a44.056,44.056,0,0,0-4.043-9.751q4.165-4.165,8.331-8.332a2.956,2.956,0,0,0,0-4.17L381.632,55.811a2.957,2.957,0,0,0-4.171,0l-8.332,8.332a44.1,44.1,0,0,0-9.75-4.043V48.322a2.957,2.957,0,0,0-2.949-2.949H338.38a2.957,2.957,0,0,0-2.949,2.949V60.1a44.063,44.063,0,0,0-9.751,4.043q-4.165-4.167-8.332-8.332a2.956,2.956,0,0,0-4.17,0L300.414,68.576a2.956,2.956,0,0,0,0,4.17l8.331,8.332a44.11,44.11,0,0,0-4.044,9.752H292.924a2.956,2.956,0,0,0-2.948,2.948v18.051a2.957,2.957,0,0,0,2.948,2.948H304.7a44.056,44.056,0,0,0,4.043,9.751q-4.164,4.167-8.331,8.332a2.957,2.957,0,0,0,0,4.171l12.763,12.764a2.956,2.956,0,0,0,4.17,0l8.333-8.332a44.12,44.12,0,0,0,9.75,4.044v11.779a2.957,2.957,0,0,0,2.95,2.948h18.048a2.958,2.958,0,0,0,2.95-2.948Zm-11.974-19.6a23.1,23.1,0,1,1,23.1-23.1,23.1,23.1,0,0,1-23.1,23.1" transform="translate(-32.22 -5.041)" fill="#f08d1b" fill-rule="evenodd"/>
        <path id="Trazado_1000765" data-name="Trazado 1000765" d="M358.969,145.5a44.083,44.083,0,0,0,9.751-4.043l8.331,8.331a2.958,2.958,0,0,0,4.172,0l12.763-12.764a2.956,2.956,0,0,0,0-4.17l-8.332-8.333a44.033,44.033,0,0,0,4.044-9.75h11.779a2.957,2.957,0,0,0,2.949-2.948V93.777a2.958,2.958,0,0,0-2.949-2.949H389.7a44.058,44.058,0,0,0-4.044-9.751l8.332-8.332a2.957,2.957,0,0,0,0-4.17L381.221,55.811a2.958,2.958,0,0,0-4.171,0q-4.165,4.167-8.332,8.332a44.1,44.1,0,0,0-9.75-4.043V48.322a2.957,2.957,0,0,0-2.949-2.949H337.969a2.957,2.957,0,0,0-2.949,2.949V60.1a44.056,44.056,0,0,0-9.75,4.043l-8.332-8.332a2.958,2.958,0,0,0-4.172,0L300,68.576a2.956,2.956,0,0,0,0,4.17l8.332,8.332a44.068,44.068,0,0,0-4.044,9.752H292.513a2.957,2.957,0,0,0-2.948,2.948v18.051a2.958,2.958,0,0,0,2.948,2.948h11.779a44.058,44.058,0,0,0,4.044,9.751L300,132.859a2.958,2.958,0,0,0,0,4.171l12.764,12.764a2.957,2.957,0,0,0,4.171,0q4.167-4.165,8.332-8.332a44.112,44.112,0,0,0,9.749,4.044v11.779a2.957,2.957,0,0,0,2.95,2.948h18.049a2.957,2.957,0,0,0,2.949-2.948Zm-11.974-19.6a23.1,23.1,0,1,1,23.1-23.1,23.1,23.1,0,0,1-23.1,23.1" transform="translate(-32.174 -5.041)" fill="#f08d1b" fill-rule="evenodd"/>
        <path id="Trazado_1000766" data-name="Trazado 1000766" d="M358.558,145.5a44.082,44.082,0,0,0,9.751-4.043l8.332,8.331a2.957,2.957,0,0,0,4.171,0l12.764-12.764a2.956,2.956,0,0,0,0-4.17l-8.332-8.333a44.116,44.116,0,0,0,4.044-9.75h11.779a2.956,2.956,0,0,0,2.948-2.948V93.777a2.957,2.957,0,0,0-2.948-2.949H389.286a44.057,44.057,0,0,0-4.043-9.751l8.331-8.332a2.956,2.956,0,0,0,0-4.17L380.811,55.811a2.957,2.957,0,0,0-4.171,0q-4.165,4.167-8.332,8.332a44.134,44.134,0,0,0-9.75-4.043V48.322a2.957,2.957,0,0,0-2.949-2.949h-18.05a2.957,2.957,0,0,0-2.949,2.949V60.1a44.076,44.076,0,0,0-9.75,4.043q-4.165-4.167-8.332-8.332a2.957,2.957,0,0,0-4.171,0L299.593,68.576a2.956,2.956,0,0,0,0,4.17l8.331,8.332a44.068,44.068,0,0,0-4.044,9.752H292.1a2.956,2.956,0,0,0-2.948,2.948v18.051a2.957,2.957,0,0,0,2.948,2.948h11.778a44.1,44.1,0,0,0,4.044,9.751l-8.331,8.332a2.957,2.957,0,0,0,0,4.171l12.763,12.764a2.956,2.956,0,0,0,4.17,0l8.333-8.332a44.1,44.1,0,0,0,9.75,4.044v11.779a2.957,2.957,0,0,0,2.949,2.948h18.049a2.957,2.957,0,0,0,2.949-2.948Zm-11.974-19.6a23.1,23.1,0,1,1,23.1-23.1,23.1,23.1,0,0,1-23.1,23.1" transform="translate(-32.128 -5.041)" fill="#f08d1b" fill-rule="evenodd"/>
        <path id="Trazado_1000767" data-name="Trazado 1000767" d="M358.148,145.5a44.075,44.075,0,0,0,9.75-4.043l8.332,8.331a2.958,2.958,0,0,0,4.172,0l12.763-12.764a2.956,2.956,0,0,0,0-4.17l-8.332-8.333a44.075,44.075,0,0,0,4.044-9.75h11.779a2.956,2.956,0,0,0,2.948-2.948V93.777a2.957,2.957,0,0,0-2.948-2.949H388.876a44.1,44.1,0,0,0-4.044-9.751q4.165-4.165,8.331-8.332a2.956,2.956,0,0,0,0-4.17L380.4,55.811a2.957,2.957,0,0,0-4.171,0q-4.165,4.167-8.332,8.332a44.116,44.116,0,0,0-9.75-4.043V48.322a2.957,2.957,0,0,0-2.949-2.949H337.148a2.957,2.957,0,0,0-2.95,2.949V60.1a44.074,44.074,0,0,0-9.75,4.043q-4.165-4.167-8.332-8.332a2.956,2.956,0,0,0-4.17,0L299.182,68.576a2.956,2.956,0,0,0,0,4.17l8.331,8.332a44.064,44.064,0,0,0-4.044,9.752H291.692a2.956,2.956,0,0,0-2.948,2.948v18.051a2.957,2.957,0,0,0,2.948,2.948h11.779a44.054,44.054,0,0,0,4.043,9.751l-8.331,8.332a2.957,2.957,0,0,0,0,4.171l12.763,12.764a2.956,2.956,0,0,0,4.17,0l8.333-8.332a44.139,44.139,0,0,0,9.75,4.044v11.779a2.957,2.957,0,0,0,2.949,2.948H355.2a2.957,2.957,0,0,0,2.95-2.948Zm-11.974-19.6a23.1,23.1,0,1,1,23.1-23.1,23.1,23.1,0,0,1-23.1,23.1" transform="translate(-32.083 -5.041)" fill="#f08d1b" fill-rule="evenodd"/>
        <path id="Trazado_1000768" data-name="Trazado 1000768" d="M357.736,145.5a44.1,44.1,0,0,0,9.751-4.043l8.331,8.331a2.958,2.958,0,0,0,4.172,0l12.763-12.764a2.956,2.956,0,0,0,0-4.17l-8.332-8.333a44.033,44.033,0,0,0,4.044-9.75h11.779a2.957,2.957,0,0,0,2.949-2.948V93.777a2.958,2.958,0,0,0-2.949-2.949H388.464a44.06,44.06,0,0,0-4.044-9.751l8.332-8.332a2.957,2.957,0,0,0,0-4.17L379.988,55.811a2.957,2.957,0,0,0-4.171,0q-4.165,4.167-8.332,8.332a44.109,44.109,0,0,0-9.749-4.043V48.322a2.958,2.958,0,0,0-2.95-2.949H336.736a2.957,2.957,0,0,0-2.949,2.949V60.1a44.056,44.056,0,0,0-9.75,4.043l-8.332-8.332a2.958,2.958,0,0,0-4.172,0L298.771,68.576a2.956,2.956,0,0,0,0,4.17l8.332,8.332a44.026,44.026,0,0,0-4.044,9.752H291.28a2.956,2.956,0,0,0-2.948,2.948v18.051a2.957,2.957,0,0,0,2.948,2.948h11.779a44.016,44.016,0,0,0,4.044,9.751l-8.332,8.332a2.957,2.957,0,0,0,0,4.171l12.763,12.764a2.959,2.959,0,0,0,4.172,0q4.167-4.165,8.332-8.332a44.113,44.113,0,0,0,9.749,4.044v11.779a2.957,2.957,0,0,0,2.949,2.948h18.05a2.957,2.957,0,0,0,2.949-2.948Zm-11.974-19.6a23.1,23.1,0,1,1,23.1-23.1,23.1,23.1,0,0,1-23.1,23.1" transform="translate(-32.037 -5.041)" fill="#f08d1b" fill-rule="evenodd"/>
        <path id="Trazado_1000769" data-name="Trazado 1000769" d="M357.325,145.5a44.083,44.083,0,0,0,9.751-4.043l8.332,8.331a2.957,2.957,0,0,0,4.171,0l12.764-12.764a2.957,2.957,0,0,0,0-4.17l-8.332-8.333a44.079,44.079,0,0,0,4.044-9.75h11.779a2.956,2.956,0,0,0,2.948-2.948V93.777a2.957,2.957,0,0,0-2.948-2.949H388.053a44.056,44.056,0,0,0-4.043-9.751l8.331-8.332a2.957,2.957,0,0,0,0-4.17L379.578,55.811a2.957,2.957,0,0,0-4.171,0l-8.333,8.332a44.11,44.11,0,0,0-9.749-4.043V48.322a2.958,2.958,0,0,0-2.95-2.949H336.325a2.957,2.957,0,0,0-2.949,2.949V60.1a44.075,44.075,0,0,0-9.75,4.043l-8.332-8.332a2.957,2.957,0,0,0-4.171,0L298.36,68.576a2.956,2.956,0,0,0,0,4.17l8.332,8.332a44.068,44.068,0,0,0-4.044,9.752H290.87a2.957,2.957,0,0,0-2.949,2.948v18.051a2.958,2.958,0,0,0,2.949,2.948h11.778a44.1,44.1,0,0,0,4.044,9.751l-8.332,8.332a2.958,2.958,0,0,0,0,4.171l12.764,12.764a2.956,2.956,0,0,0,4.17,0q4.167-4.165,8.332-8.332a44.127,44.127,0,0,0,9.751,4.044v11.779a2.957,2.957,0,0,0,2.949,2.948h18.049a2.957,2.957,0,0,0,2.949-2.948ZM345.35,125.9a23.1,23.1,0,1,1,23.1-23.1,23.1,23.1,0,0,1-23.1,23.1" transform="translate(-31.991 -5.041)" fill="#f08d1b" fill-rule="evenodd"/>
        <path id="Trazado_1000770" data-name="Trazado 1000770" d="M356.915,145.5a44.1,44.1,0,0,0,9.751-4.043L375,149.793a2.957,2.957,0,0,0,4.171,0l12.763-12.764a2.956,2.956,0,0,0,0-4.17l-8.332-8.333a44.077,44.077,0,0,0,4.044-9.75H399.42a2.957,2.957,0,0,0,2.949-2.948V93.777a2.958,2.958,0,0,0-2.949-2.949H387.642a44.054,44.054,0,0,0-4.043-9.751l8.331-8.332a2.956,2.956,0,0,0,0-4.17L379.167,55.811a2.956,2.956,0,0,0-4.17,0l-8.333,8.332a44.118,44.118,0,0,0-9.75-4.043V48.322a2.957,2.957,0,0,0-2.949-2.949H335.915a2.958,2.958,0,0,0-2.95,2.949V60.1a44.074,44.074,0,0,0-9.75,4.043l-8.332-8.332a2.957,2.957,0,0,0-4.171,0L297.949,68.576a2.956,2.956,0,0,0,0,4.17l8.331,8.332a44.112,44.112,0,0,0-4.044,9.752H290.459a2.956,2.956,0,0,0-2.948,2.948v18.051a2.957,2.957,0,0,0,2.948,2.948h11.779a44.056,44.056,0,0,0,4.043,9.751l-8.331,8.332a2.957,2.957,0,0,0,0,4.171l12.763,12.764a2.957,2.957,0,0,0,4.171,0l8.333-8.332a44.1,44.1,0,0,0,9.749,4.044v11.779a2.957,2.957,0,0,0,2.949,2.948h18.049a2.957,2.957,0,0,0,2.95-2.948ZM344.94,125.9a23.1,23.1,0,1,1,23.1-23.1,23.1,23.1,0,0,1-23.1,23.1" transform="translate(-31.946 -5.041)" fill="#f08d1b" fill-rule="evenodd"/>
        <path id="Trazado_1000771" data-name="Trazado 1000771" d="M356.915,145.5a44.1,44.1,0,0,0,9.751-4.043L375,149.793a2.957,2.957,0,0,0,4.171,0l12.763-12.764a2.956,2.956,0,0,0,0-4.17l-8.332-8.333a44.077,44.077,0,0,0,4.044-9.75H399.42a2.957,2.957,0,0,0,2.949-2.948V93.777a2.958,2.958,0,0,0-2.949-2.949H387.642a44.054,44.054,0,0,0-4.043-9.751l8.331-8.332a2.956,2.956,0,0,0,0-4.17L379.167,55.811a2.956,2.956,0,0,0-4.17,0l-8.333,8.332a44.118,44.118,0,0,0-9.75-4.043V48.322a2.957,2.957,0,0,0-2.949-2.949H335.915a2.958,2.958,0,0,0-2.95,2.949V60.1a44.074,44.074,0,0,0-9.75,4.043l-8.332-8.332a2.957,2.957,0,0,0-4.171,0L297.949,68.576a2.956,2.956,0,0,0,0,4.17l8.331,8.332a44.112,44.112,0,0,0-4.044,9.752H290.459a2.956,2.956,0,0,0-2.948,2.948v18.051a2.957,2.957,0,0,0,2.948,2.948h11.779a44.056,44.056,0,0,0,4.043,9.751l-8.331,8.332a2.957,2.957,0,0,0,0,4.171l12.763,12.764a2.957,2.957,0,0,0,4.171,0l8.333-8.332a44.1,44.1,0,0,0,9.749,4.044v11.779a2.957,2.957,0,0,0,2.949,2.948h18.049a2.957,2.957,0,0,0,2.95-2.948ZM344.94,125.9a23.1,23.1,0,1,1,23.1-23.1,23.1,23.1,0,0,1-23.1,23.1" transform="translate(-31.946 -5.041)" fill="#f9c00b" fill-rule="evenodd"/>
        <path id="Trazado_1000772" data-name="Trazado 1000772" d="M348.633,132.838a26.341,26.341,0,1,0-18.627-7.716,26.259,26.259,0,0,0,18.627,7.716m19.718-6.623a27.887,27.887,0,1,1,8.167-19.718,27.8,27.8,0,0,1-8.167,19.718" transform="translate(-35.639 -8.734)" fill="#fff" fill-rule="evenodd"/>
        <path id="Trazado_1000773" data-name="Trazado 1000773" d="M346.946,144.646a39.838,39.838,0,1,0-28.169-11.668,39.707,39.707,0,0,0,28.169,11.668m29.26-10.577a41.379,41.379,0,1,1,12.121-29.26,41.247,41.247,0,0,1-12.121,29.26" transform="translate(-33.952 -7.048)" fill="#fff" fill-rule="evenodd"/>
        <path id="Trazado_1000774" data-name="Trazado 1000774" d="M131.611,76.051a1.449,1.449,0,0,1-.384-.638,7.615,7.615,0,0,0-.39-.964,1.508,1.508,0,0,0-.237-.336c-.284-.292-.95-.58-2.652-.229a18.171,18.171,0,0,0-4.34,1.649c-.9.464-.173.719.332.753s3.795-.082,4.881.421,1.046.654,1.167.76,1.662-.61,1.625-1.416" transform="translate(-13.687 -8.191)" fill="#f6cccf" fill-rule="evenodd"/>
        <path id="Trazado_1000775" data-name="Trazado 1000775" d="M130.634,74.23a.594.594,0,0,0,.242-.554,4.538,4.538,0,0,0-.907-1.838c-.355-.334-1.393.223-3.294.923L123.834,73.8c-1.036.38-2.455,1.242-2.478,1.7s1.1.993,2.535.566c0,0-.35-.084-.085-.483a6.6,6.6,0,0,1,3.412-1.607c1.988-.476,3.241-.018,3.416.249" transform="translate(-13.484 -7.971)" fill="#00497f" fill-rule="evenodd"/>
        <path id="Trazado_1000776" data-name="Trazado 1000776" d="M139.786,83.192s-7.264-6.995-7.648-7.38-1.922.116-2.037.922,7.648,11.185,7.648,11.185Z" transform="translate(-14.456 -8.409)" fill="#01020e" fill-rule="evenodd"/>
        <path id="Trazado_1000777" data-name="Trazado 1000777" d="M145.62,73.67a1.441,1.441,0,0,1,.2-.717,7.553,7.553,0,0,0,.431-.946,1.5,1.5,0,0,0,.082-.4c.016-.408-.232-1.09-1.657-2.084a18.1,18.1,0,0,0-4.181-2.02c-.952-.331-.641.368-.319.757s2.668,2.7,3.05,3.836.244,1.209.25,1.37,1.585.787,2.146.206" transform="translate(-15.54 -7.491)" fill="#f6cccf" fill-rule="evenodd"/>
        <path id="Trazado_1000778" data-name="Trazado 1000778" d="M146.122,71.836a.592.592,0,0,0,.569-.2,4.54,4.54,0,0,0,.712-1.924c0-.486-1.12-.856-2.935-1.758l-2.71-1.348c-.988-.49-2.588-.928-2.938-.629s.033,1.48,1.331,2.231c0,0-.179-.312.291-.394a6.585,6.585,0,0,1,3.514,1.374c1.713,1.116,2.241,2.34,2.167,2.651" transform="translate(-15.411 -7.32)" fill="#00497f" fill-rule="evenodd"/>
        <path id="Trazado_1000779" data-name="Trazado 1000779" d="M159.725,88.083l-.683,2.337H141.316a3.149,3.149,0,0,1-3.5-2.8c-.18-1.369,4.492-12.068,5.4-13.995.46-.971,2.528-.811,2.288.492-.477,2.593-2.484,10.142-2.484,10.85,0,.846.231.962,1.769.653s8.8-4.612,12.452-4.227,2.479,6.687,2.479,6.687" transform="translate(-15.313 -8.112)" fill="#0e1632" fill-rule="evenodd"/>
        <path id="Trazado_1000780" data-name="Trazado 1000780" d="M175.847,79.7c-1.476-5.029,1.592-7.092,4.326-7.63A5.774,5.774,0,0,0,183.4,69.1c1.069-3.258,4.036-6.385,7.032-4.162,7.06-.352,5.542,5.339,3.322,8.688-.614.927-.381,2.153.2,3.391,1.414,3.012-.9,5.451-2.323,6.73-2.308,2.076-.274,5.694-6.115,5.694-3.282,0-3.957-2.071-4.04-6.206-.069-3.428-2.073-1.591-5.625-3.538" transform="translate(-19.496 -7.132)" fill="#01020e" fill-rule="evenodd"/>
        <path id="Trazado_1000781" data-name="Trazado 1000781" d="M197.535,82.012s.8.279.986.611c0,0-3.25,6.389-4.092,7.4a1.907,1.907,0,0,1-2.325.76l-.045-.017a24.193,24.193,0,0,1-5.3-3c-2.826-2.092-4.882-5.029-4.4-5.983a1.837,1.837,0,0,1,2.767-.886c1.231.8,3.133,4.04,5.143,5.823,1.978,1.756,2.382,1.3,2.521,1.14l.006-.007c1.507-1.8,3.348-4.076,4.739-5.842" transform="translate(-20.254 -8.951)" fill="#00497f" fill-rule="evenodd"/>
        <path id="Trazado_1000782" data-name="Trazado 1000782" d="M187.378,76.176l-.263,1.1a.748.748,0,0,0-.817.189,21.573,21.573,0,0,0-1.992,3.764s-.068.069-.2-.039-1.156-2.647-2.286-3.538l5.045-5.379Z" transform="translate(-20.203 -8.03)" fill="#fbddb1" fill-rule="evenodd"/>
        <path id="Trazado_1000783" data-name="Trazado 1000783" d="M187.378,76.176l-.263,1.1a.748.748,0,0,0-.817.189,21.573,21.573,0,0,0-1.992,3.764s-.068.069-.2-.039-1.156-2.647-2.286-3.538l5.045-5.379Z" transform="translate(-20.203 -8.03)" fill="none" stroke="#1b1b1b" stroke-linecap="round" stroke-linejoin="round" stroke-width="0.216"/>
        <path id="Trazado_1000784" data-name="Trazado 1000784" d="M193.822,67.79a9.6,9.6,0,0,1,.595,1.677c.425,1.732-.9,6.357-2.444,6.269a.944.944,0,0,1-.549-.236c-.078-.064-.572.457-1.013.868-1.712,1.6-2.223-1.944-3.122-2.686-.468-.388-.862,1.162-.831-.3a1.954,1.954,0,0,1,1.153-1.862c-.615-1.991,1.436-2.93.824-.908,0,0,3.388-4.151,5.388-2.826" transform="translate(-20.717 -7.503)" fill="#f6cccf" fill-rule="evenodd"/>
        <path id="Trazado_1000785" data-name="Trazado 1000785" d="M194.739,68.926c-1.4,3.657-3.594.388-6.057,1.516l1.287-3,1.076-1.192a8.4,8.4,0,0,1,1.828-.265c.148.117,2.4,1.673,1.866,2.94" transform="translate(-20.965 -7.329)" fill="#01020e" fill-rule="evenodd"/>
        <path id="Trazado_1000786" data-name="Trazado 1000786" d="M184.105,69.958l2.6,1.836c1.252,2.239,3.029,8.949.1,12.852-2.326,1.583-7.179-7.424-8.531-6.754l.574-2.587s6.065-2.258,5.265-5.348" transform="translate(-19.807 -7.773)" fill="#01020e" fill-rule="evenodd"/>
        <path id="Trazado_1000787" data-name="Trazado 1000787" d="M182.015,76.1a4.3,4.3,0,0,0-4.764-.459c-2.653,1.42-3.921,3.226-8.917,4.724a18.477,18.477,0,0,1-8.916.347c-.461.076-.961,1.691-.5,4.342s1.153,5.534,2.921,5.727,7.456-.846,10.453-2.345,4.266-.269,6.073-.807,1.652-2.306,2.959-4.381,2.351-4.979.692-7.148" transform="translate(-17.637 -8.345)" fill="#0076bd" fill-rule="evenodd"/>
        <path id="Trazado_1000788" data-name="Trazado 1000788" d="M200.3,82.735a1.054,1.054,0,0,1,.2-.216,1.58,1.58,0,0,0,.7-.938c.06-.453-1.635-.813-1.642-.717s-.771.742-.724,1.036a4.331,4.331,0,0,0,.228.727.335.335,0,0,1,.412.025.736.736,0,0,0,.832.084" transform="translate(-22.091 -8.983)" fill="#f09da7" fill-rule="evenodd"/>
        <path id="Trazado_1000789" data-name="Trazado 1000789" d="M202.267,75.43s.276.083.277.277-.768,4.616-.854,4.789-.172.451-2.027.194c0,0-.322-.071-.388-.242s.5-4.127.538-4.589a.548.548,0,0,1,.6-.559c.268-.015,1.858.13,1.858.13" transform="translate(-22.141 -8.367)" fill="#01020e" fill-rule="evenodd"/>
        <path id="Trazado_1000790" data-name="Trazado 1000790" d="M196.669,81.467s.837.291,1.032.639c0,0-3.467,6.838-4.523,8.106a2.226,2.226,0,0,1-2.435.795s-.016,0-.047-.017h0a25.26,25.26,0,0,1-5.544-3.138c-2.959-2.191-5.111-5.266-4.612-6.265.363-.725,3.688-2.584,4.745-2.414a11.737,11.737,0,0,0,1.941,5.9,16.293,16.293,0,0,0,1.6,1.68c2.072,1.839,2.5,1.357,2.639,1.194l.007-.008c1.578-1.885,3.743-4.626,5.2-6.474" transform="translate(-20.052 -8.796)" fill="#0076bd" fill-rule="evenodd"/>
        <path id="Trazado_1000791" data-name="Trazado 1000791" d="M199.626,82.264a4.639,4.639,0,0,1,.943-.54c.651-.3,1.2-.552,1.3-.772a.445.445,0,0,0-.061-.527c-.115-.081-.435-.011-.564-.065s.225-.221.449-.25a3.189,3.189,0,0,0,.587-.06.181.181,0,0,0,.074-.217c-.017-.041-.2-.06-.439-.094a1.29,1.29,0,0,0-.605,0,1.567,1.567,0,0,1-.485.067.33.33,0,0,1,.02-.335,2.323,2.323,0,0,1,.535-.452c.111-.068.464-.014.631-.063s.169-.246-.025-.3a3.442,3.442,0,0,0-.7-.055c-.286-.008-.416.157-.8.369a3.318,3.318,0,0,0-1.3,1.066c-.222.456-.315,1.063-.5,1.367s.148.7.938.86" transform="translate(-22.071 -8.734)" fill="#f6cccf" fill-rule="evenodd"/>
        <path id="Trazado_1000792" data-name="Trazado 1000792" d="M369.029,256.659s18.63-7.794,17.166-30.713,12.964-28.972,17.02-35.43-2.955-17.957-1.3-27.4,12.839-11.112,8.741-24.58.652-18.076,8.544-31.518S418.773,71.4,414,71.135s.636,5.2-4.3,14.161-22.844,10.373-29,17.7,2.743,18.407-4.41,28.394-25.7,5.224-31.492,15.008,5.092,22.935.787,33.333-17.492,15.429-23.526,23.577-17.363,23.773-2.536,44.7,49.513,8.649,49.513,8.649" transform="translate(-34.689 -7.903)" fill="#e03c82" fill-rule="evenodd"/>
        <path id="Trazado_1000793" data-name="Trazado 1000793" d="M387,237.107q.248-1.331.393-2.755l-50.8,23.423,5.2-10.827a1.334,1.334,0,0,0,.066-.139l2.664-5.551,43.015-19.835q.117-1.409.322-2.721l-41.751,19.252,4.7-9.794,39.738-18.324a30.712,30.712,0,0,1,1.933-3.462l-40.085,18.483,2.333-4.863a1.139,1.139,0,0,0,.071-.148L365,198.579l39.777-18.34c-.164-.772-.337-1.552-.507-2.339l-37.685,17.376,5.1-10.618,31.339-14.45a23.356,23.356,0,0,1-.044-2.552l-29.708,13.7,3.832-7.987a1.225,1.225,0,0,0,.055-.114l11.134-23.2,23.257-10.724q-.325-1.205-.549-2.319l-21.121,9.74,9.722-20.26a1.179,1.179,0,0,0,.056-.118L415.7,92.926a1.167,1.167,0,1,0-2.1-1.011L399.016,122.3l-5.011-24.117c-.741.3-1.476.6-2.2.91l5.544,26.681-10.958,22.835c-.017.031-.031.061-.044.092l-10.134,21.118-10.968-29.456c-.764.179-1.535.347-2.307.508l11.869,31.876-3.861,8.048L356.47,142.284c-.772.2-1.525.41-2.258.646l15.124,40.238-.291.133a1.168,1.168,0,0,0-.246,1.972l-5.693,11.862a1.1,1.1,0,0,0-.049.1l-9.215,19.2-10.724-28.531c-.564.656-1.162,1.29-1.784,1.906l11.106,29.547-2.371,4.94-11.892-31.64q-.944.788-1.917,1.549l12.407,33.012-6.044,12.6c-.016.031-.032.063-.045.1l-1.673,3.486L325.672,202.87c-.629.636-1.22,1.289-1.764,1.961L339.5,246.323l-6.391,13.318c-.016.03-.031.061-.044.092l-.02.042q1.341.537,2.718.956Z" transform="translate(-35.99 -10.139)" fill="#b92f6d" fill-rule="evenodd"/>
        <path id="Trazado_1000794" data-name="Trazado 1000794" d="M101.944,185.484s-16.2-6.777-14.924-26.7-11.271-25.188-14.8-30.8,2.569-15.612,1.128-23.825-11.163-9.661-7.6-21.369-.566-15.716-7.428-27.4.374-30.965,4.529-31.195S62.3,28.711,66.59,36.5,86.451,45.519,91.8,51.89s-2.384,16,3.835,24.686,22.347,4.541,27.38,13.047-4.426,19.94-.684,28.98,15.209,13.415,20.454,20.5,15.1,20.668,2.205,38.862-43.046,7.52-43.046,7.52" transform="translate(-6.165 -2.687)" fill="#f9c00b" fill-rule="evenodd"/>
        <path id="Trazado_1000795" data-name="Trazado 1000795" d="M88.31,168.485q-.215-1.156-.342-2.394l44.165,20.364-4.516-9.413a.83.83,0,0,1-.058-.12l-2.316-4.826-37.4-17.244q-.1-1.228-.28-2.366l36.3,16.737-4.086-8.516L85.23,144.778a26.836,26.836,0,0,0-1.68-3.012l34.85,16.07-2.028-4.228a1.023,1.023,0,0,1-.062-.13l-8.872-18.489L72.855,119.044c.142-.67.292-1.349.44-2.033l32.764,15.107-4.429-9.231L74.384,110.324a20.371,20.371,0,0,0,.038-2.219l25.828,11.909-3.332-6.944a.994.994,0,0,1-.048-.1L87.191,92.8l-20.22-9.324q.283-1.048.477-2.016l18.364,8.467L77.36,72.313a.84.84,0,0,1-.049-.1L63.358,43.134a1.015,1.015,0,0,1,1.83-.879L77.866,68.676l4.356-20.968c.644.262,1.284.525,1.912.792L79.316,71.7l9.527,19.853c.013.027.026.052.037.079l8.811,18.361,9.537-25.609c.664.156,1.334.3,2.005.442l-10.32,27.713,3.357,7,12.586-33.486c.67.172,1.326.356,1.963.563L103.67,121.591l.252.117a1.015,1.015,0,0,1,.214,1.713l4.948,10.313c.016.03.03.06.044.091l8.012,16.694,9.323-24.8c.491.569,1.01,1.12,1.551,1.656l-9.655,25.688,2.06,4.294,10.339-27.508q.821.685,1.668,1.348l-10.787,28.7,5.254,10.949c.014.028.028.056.04.084l1.454,3.03,13.244-35.236c.547.553,1.06,1.119,1.533,1.7L129.607,176.5l5.556,11.578a.759.759,0,0,1,.038.082l.018.036q-1.167.468-2.364.831Z" transform="translate(-7.029 -4.631)" fill="#f08d1b" fill-rule="evenodd"/>
        <path id="Trazado_1000796" data-name="Trazado 1000796" d="M89.415,226.294s-16.01-3.5-18.187-22.012-14.578-21.236-18.758-25.8-.262-14.766-2.965-22.065-11.871-7-10.565-18.346-3.158-14.335-11.421-23.913-4.856-28.5-1.08-29.4.252,4.245,5.5,10.676,19.751,4.947,25.734,9.9.5,15.1,7.665,22.022,21.282.42,27.332,7.384-.716,19.052,4.237,26.724,16.216,9.765,22.222,15.388,17.331,16.444,8.549,35.314-38.263,14.132-38.263,14.132" transform="translate(-2.491 -9.406)" fill="#e03c82" fill-rule="evenodd"/>
        <path id="Trazado_1000797" data-name="Trazado 1000797" d="M73.72,213.117c-.261-.684-.5-1.4-.716-2.141l43.972,11.284-5.728-7.885a.827.827,0,0,1-.073-.1l-2.938-4.043L71,200.676q-.3-1.109-.653-2.125l36.139,9.274-5.181-7.132-34.4-8.828a24.878,24.878,0,0,0-2.048-2.483l34.7,8.9-2.572-3.54a1.056,1.056,0,0,1-.079-.108L85.658,179.15l-34.431-8.836c.019-.64.043-1.288.063-1.941l32.62,8.371-5.618-7.732-27.125-6.96a19.415,19.415,0,0,0-.338-2.044l25.716,6.6-4.225-5.816a.941.941,0,0,1-.06-.083l-12.276-16.9-20.13-5.164c.055-.674.089-1.316.1-1.932L58.236,141.4,47.518,126.65c-.022-.028-.043-.057-.062-.086L29.762,102.209a.947.947,0,1,1,1.532-1.114l16.077,22.13.479-19.983c.636.132,1.268.267,1.889.405l-.53,22.108,12.081,16.629q.025.032.048.067l11.172,15.38,4.457-25.116c.636.031,1.276.052,1.916.068l-4.823,27.179,4.258,5.861,5.934-32.86c.644.044,1.277.1,1.9.186l-6.2,34.33.252.065a.946.946,0,0,1,.684,1.151.926.926,0,0,1-.2.386l6.276,8.639a.733.733,0,0,1,.055.075l10.16,13.985,4.395-24.341q.82.661,1.7,1.26l-4.553,25.209,2.612,3.6,4.876-26.994c.579.327,1.166.645,1.757.958l-5.086,28.163,6.663,9.172a.848.848,0,0,1,.051.071l1.844,2.538,6.244-34.58c.595.416,1.163.851,1.694,1.307l-6.393,35.4,7.046,9.7c.017.021.034.044.049.068l.022.029q-.992.627-2.031,1.161Z" transform="translate(-3.287 -11.189)" fill="#b92f6d" fill-rule="evenodd"/>
        <path id="Trazado_1000798" data-name="Trazado 1000798" d="M106.031,276.858H324.993a12.209,12.209,0,0,0,12.173-12.172V104.779a12.209,12.209,0,0,0-12.173-12.173H106.031a12.21,12.21,0,0,0-12.173,12.173V264.686a12.209,12.209,0,0,0,12.173,12.172" transform="translate(-10.429 -10.29)" fill="#01020e" fill-rule="evenodd"/>
        <path id="Trazado_1000799" data-name="Trazado 1000799" d="M94.432,276.858H313.394a12.208,12.208,0,0,0,12.172-12.172V104.779a12.209,12.209,0,0,0-12.172-12.173H94.432a12.21,12.21,0,0,0-12.173,12.173V264.686a12.209,12.209,0,0,0,12.173,12.172" transform="translate(-9.14 -10.29)" fill="#0e1632" fill-rule="evenodd"/>
        <path id="Trazado_1000800" data-name="Trazado 1000800" d="M101.7,106.3H300.454a5.763,5.763,0,0,1,5.746,5.746V260.462a5.763,5.763,0,0,1-5.746,5.746H101.7a5.763,5.763,0,0,1-5.746-5.746V112.047A5.763,5.763,0,0,1,101.7,106.3" transform="translate(-10.662 -11.811)" fill="#f2f8c2" fill-rule="evenodd"/>
        <path id="Trazado_1000801" data-name="Trazado 1000801" d="M109.195,201.488h84.854a5.431,5.431,0,0,1,5.416,5.416v57.613a5.432,5.432,0,0,1-5.416,5.416H109.195a5.431,5.431,0,0,1-5.416-5.416V206.9a5.431,5.431,0,0,1,5.416-5.416" transform="translate(-11.531 -22.388)" fill="#97a4ac" fill-rule="evenodd"/>
        <path id="Trazado_1000802" data-name="Trazado 1000802" d="M343.8,222.333h0a1.549,1.549,0,0,0,1.545-1.545V155.537a1.55,1.55,0,0,0-1.545-1.546h0a1.55,1.55,0,0,0-1.545,1.546v65.252a1.549,1.549,0,0,0,1.545,1.545" transform="translate(-38.029 -17.11)" fill="#acabbb" fill-rule="evenodd"/>
        <path id="Trazado_1000803" data-name="Trazado 1000803" d="M343.8,238.12h0a1.546,1.546,0,0,0,0-3.092h0a1.546,1.546,0,0,0,0,3.092Z" transform="translate(-38.029 -26.114)" fill="none" stroke="#1d1f1f" stroke-linecap="round" stroke-linejoin="round" stroke-width="0.216"/>
        <path id="Trazado_1000804" data-name="Trazado 1000804" d="M339.754,296.32c8.77-11.232,20.054-11.227,25.323-14.477,6.49-4.006,5.275-17.42,10.932-25.164s16.427-4.3,18.692-18.2,8.563-15.933,21.578-24.512,15.335-32.149,11.163-34.5-1.724,4.948-10.109,10.809-25.076-.774-33.836,3.085S377.835,211.1,367.008,216.9s-25.37-6.656-34.883-.433-5.555,22.828-14.006,30.259S295.612,252.853,286.6,257.5c-8.989,4.637-25.995,13.63-22.031,38.821Z" transform="translate(-29.331 -19.892)" fill="#f9c00b" fill-rule="evenodd"/>
        <path id="Trazado_1000805" data-name="Trazado 1000805" d="M295.552,297.966l8.154-6.41,43.745,1.1a30.985,30.985,0,0,1,3.263-2.255l-44.128-1.107,4.24-3.334a1.09,1.09,0,0,0,.129-.1L329.5,271.278l43.788,1.1c.193-.764.383-1.541.578-2.323l-41.485-1.041,9.259-7.278,34.5.866a23.7,23.7,0,0,1,1.088-2.31l-32.7-.82,6.964-5.475a1.172,1.172,0,0,0,.1-.078l20.233-15.907,25.6.642q.24-1.225.531-2.324l-23.252-.582,17.667-13.889a1.121,1.121,0,0,0,.1-.082l29.162-22.926a1.167,1.167,0,1,0-1.443-1.836l-26.5,20.832,6.148-23.852c-.8-.057-1.591-.11-2.375-.154l-6.8,26.388-19.911,15.653c-.028.02-.054.041-.08.063l-18.414,14.477,3.158-31.273c-.764-.176-1.531-.366-2.293-.563L349.7,252.428l-7.017,5.517L346.69,217c-.78-.164-1.551-.306-2.312-.417l-4.188,42.782-.319-.007a1.168,1.168,0,0,0-1.092,1.66l-10.344,8.132c-.031.023-.061.046-.09.07L311.6,282.379l2.97-30.333c-.8.339-1.612.643-2.442.922l-3.076,31.415-4.307,3.385,3.294-33.639c-.8.193-1.6.372-2.405.544l-3.436,35.1-10.425,8.195Zm-7.176,0h-2.352l3.841-39.218c.785-.363,1.6-.687,2.447-.98Z" transform="translate(-31.78 -21.538)" fill="#f08d1b" fill-rule="evenodd"/>
        <path id="Trazado_1000806" data-name="Trazado 1000806" d="M113.708,208.228q19.467.013,38.915.034,19.464,0,38.916.025c.459,0,.846.774.847,1.7,0,1.646,0,3.268,0,4.891,0,.948-.388,1.7-.845,1.7-12.977-.03-25.934-.012-38.912-.028s-25.936-.027-38.912-.036c-.458,0-.829-.748-.83-1.7,0-1.62,0-3.242-.005-4.888,0-.923.368-1.7.827-1.7" transform="translate(-12.542 -23.136)" fill="#fff" fill-rule="evenodd"/>
        <path id="Trazado_1000807" data-name="Trazado 1000807" d="M113.728,226.3c9.449.033,18.916.022,28.348.028,9.467.007,18.951.038,28.418.041.459,0,.829.75.83,1.673,0,1.647,0,3.293,0,4.915,0,.923-.369,1.672-.828,1.67-9.466-.028-18.948-.024-28.416-.043-9.428-.02-18.9-.019-28.346-.028-.458,0-.829-.748-.83-1.671,0-1.621,0-3.268-.005-4.913,0-.923.368-1.673.827-1.672" transform="translate(-12.545 -25.144)" fill="#fff" fill-rule="evenodd"/>
        <path id="Trazado_1000808" data-name="Trazado 1000808" d="M113.749,244.338c7.615-.009,15.268.036,22.915.049q11.427.019,22.914.016c.458,0,.828.751.829,1.7,0,1.647,0,3.244,0,4.865,0,.923-.369,1.7-.827,1.694-7.649-.027-15.294,0-22.912-.017s-15.3-.059-22.912-.051c-.459,0-.829-.772-.83-1.7q0-2.395-.006-4.864c0-.948.369-1.7.827-1.7" transform="translate(-12.547 -27.149)" fill="#fff" fill-rule="evenodd"/>
        <path id="Trazado_1000809" data-name="Trazado 1000809" d="M113.769,262.351q16.733.048,33.466.039,16.727.013,33.484.032c.457,0,.828.776.828,1.7,0,1.647,0,3.268,0,4.891,0,.948-.37,1.693-.828,1.693q-16.732,0-33.481-.034c-11.135-.009-22.308-.032-33.462-.041-.459,0-.829-.748-.83-1.7,0-1.62,0-3.241-.006-4.888,0-.923.369-1.7.827-1.7" transform="translate(-12.549 -29.15)" fill="#fff" fill-rule="evenodd"/>
        <path id="Trazado_1000810" data-name="Trazado 1000810" d="M108.317,135.883h39.741a4.552,4.552,0,0,1,4.539,4.539v14.012a4.551,4.551,0,0,1-4.539,4.539H108.317a4.552,4.552,0,0,1-4.539-4.539V140.422a4.552,4.552,0,0,1,4.539-4.539" transform="translate(-11.531 -15.098)" fill="#97a4ac" fill-rule="evenodd"/>
        <path id="Trazado_1000811" data-name="Trazado 1000811" d="M105.592,176.687h83.924a1.819,1.819,0,0,0,1.813-1.814v-5.6a1.819,1.819,0,0,0-1.813-1.814H105.592a1.819,1.819,0,0,0-1.813,1.814v5.6a1.819,1.819,0,0,0,1.813,1.814" transform="translate(-11.531 -18.607)" fill="#e03c82" fill-rule="evenodd"/>
        <path id="Trazado_1000812" data-name="Trazado 1000812" d="M105.592,192.123h92.06a1.819,1.819,0,0,0,1.813-1.813v-5.6a1.819,1.819,0,0,0-1.813-1.813h-92.06a1.819,1.819,0,0,0-1.813,1.813v5.6a1.819,1.819,0,0,0,1.813,1.813" transform="translate(-11.531 -20.322)" fill="#acabbb" fill-rule="evenodd"/>
        <path id="Trazado_1000813" data-name="Trazado 1000813" d="M168.967,135.883h32.7a4.552,4.552,0,0,1,4.539,4.539v14.012a4.552,4.552,0,0,1-4.539,4.539h-32.7a4.552,4.552,0,0,1-4.539-4.539V140.422a4.552,4.552,0,0,1,4.539-4.539" transform="translate(-18.27 -15.098)" fill="#acabbb" fill-rule="evenodd"/>
        <path id="Trazado_1000814" data-name="Trazado 1000814" d="M105.6,112.138H257.374a1.828,1.828,0,0,1,1.822,1.822v5.624a1.827,1.827,0,0,1-1.822,1.821H105.6a1.827,1.827,0,0,1-1.821-1.821V113.96a1.827,1.827,0,0,1,1.821-1.822" transform="translate(-11.531 -12.46)" fill="#e03c82" fill-rule="evenodd"/>
        <path id="Trazado_1000815" data-name="Trazado 1000815" d="M289.657,120.433a3.522,3.522,0,1,0-3.522-3.522,3.529,3.529,0,0,0,3.522,3.522" transform="translate(-31.793 -12.599)" fill="#e03c82" fill-rule="evenodd"/>
        <path id="Trazado_1000816" data-name="Trazado 1000816" d="M304.956,120.433a3.522,3.522,0,1,0-3.522-3.522,3.529,3.529,0,0,0,3.522,3.522" transform="translate(-33.493 -12.599)" fill="#0076bd" fill-rule="evenodd"/>
        <path id="Trazado_1000817" data-name="Trazado 1000817" d="M320.254,120.433a3.522,3.522,0,1,0-3.521-3.522,3.529,3.529,0,0,0,3.521,3.522" transform="translate(-35.193 -12.599)" fill="#e03c82" fill-rule="evenodd"/>
        <path id="Trazado_1000818" data-name="Trazado 1000818" d="M224.351,132.79q40.479.008,80.839-.072c4.091-.005,7.5,4.347,7.492,9.638q-.027,34.211-.11,68.279c0,5.241-3.356,9.564-7.445,9.564q-40.369,0-80.8.013c-4.087,0-7.438-4.329-7.436-9.567.005-22.7.012-45.508.017-68.263,0-5.29,3.356-9.594,7.444-9.593" transform="translate(-24.099 -14.746)" fill="#97a4ac" fill-rule="evenodd"/>
        <path id="Trazado_1000819" data-name="Trazado 1000819" d="M45.759,234.5a19.4,19.4,0,1,0,19.4,19.4,19.4,19.4,0,0,0-19.4-19.4m0,9.131a10.272,10.272,0,1,1-10.272,10.273,10.272,10.272,0,0,1,10.272-10.273" transform="translate(-2.928 -26.056)" fill="#fff" fill-rule="evenodd"/>
        <path id="Trazado_1000820" data-name="Trazado 1000820" d="M50.741,224.632v37.121a29.663,29.663,0,0,0,29.576,29.576H94.681a29.663,29.663,0,0,0,29.576-29.576V224.632Z" transform="translate(-5.638 -24.959)" fill="#ebeff8" fill-rule="evenodd"/>
        <path id="Trazado_1000821" data-name="Trazado 1000821" d="M95.143,291.33h1.185A29.663,29.663,0,0,0,125.9,261.754V224.633H65.567v37.121A29.663,29.663,0,0,0,95.143,291.33" transform="translate(-7.285 -24.959)" fill="#fff" fill-rule="evenodd"/>
        <path id="Trazado_1000822" data-name="Trazado 1000822" d="M50.741,230.285V234.8c.292.092.588.18.886.269,9.238,2.733,21.925,4.424,35.872,4.424s26.634-1.691,35.872-4.424c.3-.089.594-.178.886-.269v-4.517q-1.535.56-3.281,1.076c-8.51,2.518-20.342,4.076-33.477,4.076s-24.967-1.558-33.477-4.076q-1.744-.516-3.281-1.076" transform="translate(-5.638 -25.587)" fill="#f08d1b" fill-rule="evenodd"/>
        <path id="Trazado_1000823" data-name="Trazado 1000823" d="M87.5,228.9c20.245,0,36.758-2.189,36.758-4.872s-16.513-4.872-36.758-4.872-36.758,2.188-36.758,4.872S67.254,228.9,87.5,228.9" transform="translate(-5.638 -24.35)" fill="#ebeff8" fill-rule="evenodd"/>
        <path id="Trazado_1000824" data-name="Trazado 1000824" d="M53.54,226.231c5.334,1.818,18.666,3.107,34.27,3.107s28.935-1.289,34.269-3.107c-5.334-1.819-18.666-3.108-34.269-3.108s-28.936,1.289-34.27,3.108" transform="translate(-5.949 -24.791)" fill="#010518" fill-rule="evenodd"/>
        <path id="Trazado_1000825" data-name="Trazado 1000825" d="M106.475,193.853h-3.423a2.527,2.527,0,1,1,0-5.053h9.75a6.6,6.6,0,1,0,0-13.2H79.839a6.6,6.6,0,0,0,0,13.2h5.328a2.527,2.527,0,1,1,0,5.053H76.562a5.108,5.108,0,0,0-5.093,5.093h0a5.108,5.108,0,0,0,5.093,5.092h.112A10.157,10.157,0,0,1,86.8,214.168v4.642a2.391,2.391,0,1,0,4.782,0v-8.832a5.955,5.955,0,0,1,5.937-5.938h8.955a5.108,5.108,0,0,0,5.093-5.092h0a5.108,5.108,0,0,0-5.093-5.093M64.037,175.6h-.015a6.6,6.6,0,0,0,0,13.2h.015a6.6,6.6,0,0,0,0-13.2" transform="translate(-6.38 -19.511)" fill="#fff" fill-rule="evenodd"/>
        <path id="Trazado_1000826" data-name="Trazado 1000826" d="M143.635,293.987a6.5,6.5,0,0,1-.187,2.1c-.066.134.059.284.115.4.174.375.716.876,2.463,1.11a18.446,18.446,0,0,0,4.71-.122c1.012-.145.407-.631-.064-.833s-4.06-1.308-4.587-1.811-.162-1.382-.243-1.524-1.972-.109-2.208.676" transform="translate(-15.937 -32.583)" fill="#e88397" fill-rule="evenodd"/>
        <path id="Trazado_1000827" data-name="Trazado 1000827" d="M144.36,247.239l.536.757s1.444,13.611,1.433,17.883-.811,4.946-.784,9.254-.292,12.6-.24,13.628-1.866.836-2.425.4-1.322-14.843-1.208-16.995a27.065,27.065,0,0,0-.842-7.132c-.508-1.98-3.616-12.944-3.658-15.816s7.188-1.984,7.188-1.984" transform="translate(-15.241 -27.457)" fill="#01020e" fill-rule="evenodd"/>
        <path id="Trazado_1000828" data-name="Trazado 1000828" d="M137.381,270.364a1.464,1.464,0,0,1-.747.114,7.64,7.64,0,0,0-1.055-.009,1.52,1.52,0,0,0-.407.093c-.384.154-.913.667-1.243,2.4a18.4,18.4,0,0,0-.138,4.71c.089,1.019.608.441.835-.02s1.395-3.591,2.288-4.414,1.019-.728,1.165-.8.072-1.794-.7-2.073" transform="translate(-14.856 -30.04)" fill="#e88397" fill-rule="evenodd"/>
        <path id="Trazado_1000829" data-name="Trazado 1000829" d="M136.076,244.792c-.579.438-3.02,1.957-3.08,2.5-1.219,11.155,13.622,11.807,15.756,14.884.361.519-11.5,4.212-11.839,4.492s.06,2.975.492,3.268,14.811-3.164,18.061-5.206c0,0,2.055-1.612.021-5.084s-11.311-9.188-11.946-9.915-1.667-1.614-1.284-2.889-6.182-2.054-6.182-2.054" transform="translate(-14.769 -27.199)" fill="#0e1632" fill-rule="evenodd"/>
        <path id="Trazado_1000830" data-name="Trazado 1000830" d="M153.135,225.583l.482-.165a3.238,3.238,0,0,1,.564-.972,2.267,2.267,0,0,0,.891-1.424c.034-.656-2.436-.974-2.436-.836s-1.017,1.153-.915,1.566a6.7,6.7,0,0,0,.448,1.088Z" transform="translate(-16.857 -24.684)" fill="#e05942" fill-rule="evenodd"/>
        <path id="Trazado_1000831" data-name="Trazado 1000831" d="M143.134,225.962s3.194,7.1,3.812,7.831,3.161-7.217,3.717-8.651a3.1,3.1,0,0,1,1.482.39s-1.655,9.533-2.46,11.452-2.636,2.209-4.314,1.527-6.082-8.163-7-9.54,1.371-6.248,4.766-3.011" transform="translate(-15.351 -24.986)" fill="#f08d1b" fill-rule="evenodd"/>
        <path id="Trazado_1000832" data-name="Trazado 1000832" d="M140.38,218.755c1.06.721,2.916,1.376,3.511,4.369,1.091,5.484-.962,14.241,1.051,21.632.109.4-.206.321-.354.287s-3.29-.02-6.383.2a9.773,9.773,0,0,1-6.021-1.167s-.37-.4-.267-.765a36.156,36.156,0,0,0,.952-13.682c-.6-5.7.8-17.666,7.511-10.878" transform="translate(-14.655 -24.081)" fill="#f9c00b" fill-rule="evenodd"/>
        <path id="Trazado_1000833" data-name="Trazado 1000833" d="M141.1,222.3s1.817,8.676,2.325,9.636,5.276-7.251,6.246-8.709c0,0,1.232.319,1.552.795,0,0-4.169,10.2-5.532,12.133s-3.471,1.811-5.169.644-4.77-10.56-5.456-12.316,3.048-6.611,6.034-2.182" transform="translate(-14.998 -24.499)" fill="#f6af13" fill-rule="evenodd"/>
        <path id="Trazado_1000834" data-name="Trazado 1000834" d="M156.735,214.135s.4.1.416.38-.806,6.674-.918,6.927-.219.658-2.9.409c0,0-.468-.082-.573-.322s.452-5.956.476-6.621a.785.785,0,0,1,.82-.84c.382-.04,2.675.067,2.675.067" transform="translate(-16.972 -23.784)" fill="#01020e" fill-rule="evenodd"/>
        <path id="Trazado_1000835" data-name="Trazado 1000835" d="M152.939,224.153a6.547,6.547,0,0,1,1.288-.884c.9-.5,1.658-.932,1.776-1.258a.638.638,0,0,0-.15-.748c-.172-.1-.623.035-.814-.027s.3-.343.612-.41a4.544,4.544,0,0,0,.834-.156.262.262,0,0,0,.082-.319c-.03-.056-.293-.061-.64-.083a1.827,1.827,0,0,0-.867.071,2.336,2.336,0,0,1-.689.152.482.482,0,0,1-.011-.484,3.389,3.389,0,0,1,.713-.71c.153-.111.663-.074.9-.163s.213-.372-.07-.422a4.706,4.706,0,0,0-1.015,0c-.411.021-.577.272-1.1.621a4.773,4.773,0,0,0-1.734,1.677c-.266.677-.327,1.559-.556,2.015s.3.988,1.444,1.122" transform="translate(-16.827 -24.299)" fill="#e88397" fill-rule="evenodd"/>
        <path id="Trazado_1000836" data-name="Trazado 1000836" d="M136.1,274.558a7.144,7.144,0,0,0-1.8,3.969c.011,1.455-1.193.963-1.193.963s-.528.3-.774-.022a12.77,12.77,0,0,1-.558-4.8,14.476,14.476,0,0,0,.291-4.425c-.25-1.229,1.312-1.076,1.676-.786a6.48,6.48,0,0,1,2.053.009c.455.212.375.873,0,1.279a2.1,2.1,0,0,0-.024,1.973c.967-.044,1.024,1.211.325,1.843" transform="translate(-14.636 -29.917)" fill="#ea5f55" fill-rule="evenodd"/>
        <path id="Trazado_1000837" data-name="Trazado 1000837" d="M134.5,269.413c.242-.019.532-.036.8-.033a4.814,4.814,0,0,1-.313,2.971c-.945,2.229-.61,2.745-.61,2.745l-.7.967a5.452,5.452,0,0,1,.429-3.624,4.111,4.111,0,0,0,.392-3.026" transform="translate(-14.839 -29.931)" fill="#fff" fill-rule="evenodd"/>
        <path id="Trazado_1000838" data-name="Trazado 1000838" d="M133.113,279.489s-.528.3-.775-.021a12.8,12.8,0,0,1-.557-4.8,14.475,14.475,0,0,0,.291-4.425c-.251-1.229,1.312-1.076,1.676-.786.01,2.508-1.009,3.056-1.166,6.141s.532,3.894.532,3.894" transform="translate(-14.636 -29.917)" fill="#fff" fill-rule="evenodd"/>
        <path id="Trazado_1000839" data-name="Trazado 1000839" d="M147.717,295.127a7,7,0,0,0,3.889,1.763c1.427-.01.944,1.169.944,1.169s.3.517-.021.759a12.512,12.512,0,0,1-4.707.548,14.2,14.2,0,0,0-4.337-.286c-1.205.246-1.054-1.285-.771-1.642a6.358,6.358,0,0,1,.009-2.012c.209-.446.855-.368,1.253,0a2.056,2.056,0,0,0,1.934.023c-.043-.948,1.187-1,1.806-.318" transform="translate(-15.835 -32.741)" fill="#ea5f55" fill-rule="evenodd"/>
        <path id="Trazado_1000840" data-name="Trazado 1000840" d="M142.674,297.063c-.019-.238-.035-.521-.032-.783a4.728,4.728,0,0,1,2.911.307c2.185.927,2.691.6,2.691.6l.948.683a5.347,5.347,0,0,1-3.553-.42,4.027,4.027,0,0,0-2.965-.384" transform="translate(-15.849 -32.908)" fill="#fff" fill-rule="evenodd"/>
        <path id="Trazado_1000841" data-name="Trazado 1000841" d="M152.55,298.405s.3.517-.021.76a12.533,12.533,0,0,1-4.707.547,14.231,14.231,0,0,0-4.337-.286c-1.205.246-1.054-1.285-.771-1.642,2.459-.01,2.995.988,6.019,1.142s3.817-.521,3.817-.521" transform="translate(-15.835 -33.087)" fill="#fff" fill-rule="evenodd"/>
        <path id="Trazado_1000842" data-name="Trazado 1000842" d="M147.677,207s.22,2.278.228,2.7-.312.76-.368,1.356.139,1.795.13,2.1-.661.229-.821.418-.1.469-.172.64-.284.145-.326.26.011.3-.031.4-.347.131-.464.5-.406,1.037-1.74.564-2.392-2.429-2.612-3.437a13.965,13.965,0,0,1-.1-3.159c.033-.443.609-2.986,1-3.244s4.679-.669,5.274.893" transform="translate(-15.706 -22.874)" fill="#e88397" fill-rule="evenodd"/>
        <path id="Trazado_1000843" data-name="Trazado 1000843" d="M142.612,214.76l.263.964c-1.791-.714-1.689,1.241-1.761,2.214-.032.436-3.766-.724-4.312-1.979.61-.828.415-.938,1.412-3.182.307-.691,1.012-1.221,1.18-1.863,0,0-.483-2.556-.1-3.091s1.771-.188,1.852.478,1.467,6.459,1.467,6.459" transform="translate(-15.2 -23.062)" fill="#e88397" fill-rule="evenodd"/>
        <path id="Trazado_1000844" data-name="Trazado 1000844" d="M147.184,206.741a2.625,2.625,0,0,0,1.463-2.133,3.29,3.29,0,0,0-2.717-3.8c-2.218-.49-3.316,1.441-5.549,1.452s-3.016.449-2.711,2.479a1.712,1.712,0,0,0-.894,2.206c.53,1.615,1.652,4.171,1.341,5.162a4.074,4.074,0,0,0,1.379-2.115s-.143-1.978.412-2.173.994.26,1.013,1.224.076,1.292.254,1.452.308.163.384.044-.252-1.37.423-2.08,1.3-1.02,1.434-1.594,2.129.275,3.769-.126" transform="translate(-15.184 -22.303)" fill="#01020e" fill-rule="evenodd"/>
        <path id="Trazado_1000845" data-name="Trazado 1000845" d="M265.974,154.446a58.565,58.565,0,0,0-32.248,9.61,3.96,3.96,0,1,1-4.35-6.619,66.567,66.567,0,0,1,73.2,0,3.96,3.96,0,1,1-4.351,6.619,58.565,58.565,0,0,0-32.248-9.61m0,22.425a36.129,36.129,0,0,1,19.932,5.97,3.96,3.96,0,1,1-4.35,6.619,28.457,28.457,0,0,0-31.164,0,3.96,3.96,0,1,1-4.35-6.619,36.129,36.129,0,0,1,19.932-5.97m0-15.189a51.249,51.249,0,0,0-28.266,8.457,3.961,3.961,0,0,0,4.351,6.62,43.628,43.628,0,0,1,47.83,0,3.961,3.961,0,0,0,4.35-6.62,51.243,51.243,0,0,0-28.266-8.457" transform="translate(-25.288 -16.277)" fill="#fff" fill-rule="evenodd"/>
        <path id="Trazado_1000846" data-name="Trazado 1000846" d="M269.736,215.309a8.286,8.286,0,1,0-8.284-8.285,8.3,8.3,0,0,0,8.284,8.285" transform="translate(-29.05 -22.082)" fill="#fff" fill-rule="evenodd"/>
        <path id="Trazado_1000847" data-name="Trazado 1000847" d="M310.33,187.76c9.34-9.509,16.286,2.57,15.317,14.694S313.7,257.8,317.062,272.5a24.3,24.3,0,0,1,.484,2.66h-2c-.167-.26-.343-.545-.525-.856-10.56-18.036-17.545-73.455-4.689-86.545" transform="translate(-33.708 -20.482)" fill="#05304b" fill-rule="evenodd"/>
        <path id="Trazado_1000848" data-name="Trazado 1000848" d="M316.782,275.809c-11.868-33.711.8-85.063.84-85.23a.537.537,0,0,1,1.044.253c-.041.166-12.738,51.629-.757,84.977Z" transform="translate(-34.634 -21.13)" fill="#0076bd" fill-rule="evenodd"/>
        <path id="Trazado_1000849" data-name="Trazado 1000849" d="M334.735,211.6c9.842-5.213,12.324,6.164,8.487,15.575-3.58,8.786-20.947,36.944-24.091,50.87H316c-2.137-19.171,6.066-59.734,18.732-66.445" transform="translate(-35.074 -23.365)" fill="#0076bd" fill-rule="evenodd"/>
        <path id="Trazado_1000850" data-name="Trazado 1000850" d="M317.262,278.6c1.3-28.988,22.1-62.99,22.173-63.107a.449.449,0,1,1,.767.465c-.07.116-20.764,33.939-22.051,62.642Z" transform="translate(-35.251 -23.92)" fill="#05304b" fill-rule="evenodd"/>
        <path id="Trazado_1000851" data-name="Trazado 1000851" d="M289.193,226.442c-9.538-4.166-11.052,6.61-6.813,15.112,3.276,6.57,16.286,24.846,22.886,38.182h5.818c-1.688-19.266-11.1-48.581-21.891-53.294" transform="translate(-31.127 -25.058)" fill="#e03c82" fill-rule="evenodd"/>
        <path id="Trazado_1000852" data-name="Trazado 1000852" d="M309.539,280.259c-5.71-24.774-23.719-49.772-23.786-49.866a.419.419,0,1,0-.682.488c.067.093,17.915,24.869,23.619,49.378Z" transform="translate(-31.666 -25.58)" fill="#b92f6d" fill-rule="evenodd"/>
        <path id="Trazado_1000853" data-name="Trazado 1000853" d="M324.339,272.166H296.393a1.525,1.525,0,0,0-1.521,1.52v6.9a1.525,1.525,0,0,0,1.521,1.52h27.946a1.525,1.525,0,0,0,1.52-1.52v-6.9a1.525,1.525,0,0,0-1.52-1.52" transform="translate(-32.764 -30.241)" fill="#0e1632" fill-rule="evenodd"/>
        <path id="Trazado_1000854" data-name="Trazado 1000854" d="M319.736,278.48h-18.36l-4.794,4.326,3.916,15.084h20.115l3.916-15.084Z" transform="translate(-32.954 -30.942)" fill="#0e1632" fill-rule="evenodd"/>
        <path id="Trazado_1000855" data-name="Trazado 1000855" d="M296.582,283.347l.805,3.1h26.337l.8-3.1Z" transform="translate(-32.954 -31.483)" fill="#01020e" fill-rule="evenodd"/>
        <path id="Trazado_1000856" data-name="Trazado 1000856" d="M52.7,299.89H335.983a8.288,8.288,0,0,1,8.262,8.263h0a8.287,8.287,0,0,1-8.262,8.262H305.095a5.372,5.372,0,1,0,0,10.745h26.86a4.9,4.9,0,1,1,0,9.809H31.172a4.9,4.9,0,1,1,0-9.809H67.055a5.372,5.372,0,0,0,0-10.745H52.7a8.288,8.288,0,0,1-8.263-8.262h0A8.288,8.288,0,0,1,52.7,299.89m291.58,27.271h-.468a4.9,4.9,0,1,0,0,9.809h.468a4.9,4.9,0,1,0,0-9.809" transform="translate(-2.919 -33.321)" fill="#01020e" fill-rule="evenodd"/>
        <path id="Trazado_1000857" data-name="Trazado 1000857" d="M229.474,235.6c-.654,0-1.26-.018-1.267.807a134.527,134.527,0,0,0,1.9,24.709c.643,3.474,3.777,3.549,4.764,2.652,2.957-2.692,4.329-26.075,4.316-26.2-.38-3.57-9.714-1.965-9.714-1.965" transform="translate(-25.356 -26.138)" fill="#01020e" fill-rule="evenodd"/>
        <path id="Trazado_1000858" data-name="Trazado 1000858" d="M230.443,264.964c.6,5.99,2.632,18.811,1.9,26.209,0,0,.132,1.069.8,1.379a1.916,1.916,0,0,0,2.171-.567c.56-.66,1.675-18.315,1.108-27.547,0,0-.219-3.292-1.572-4.272-1.324-.96-4.868-.392-4.406,4.8" transform="translate(-25.6 -28.865)" fill="#01020e" fill-rule="evenodd"/>
        <path id="Trazado_1000859" data-name="Trazado 1000859" d="M233.979,235.6c-.654,0-1.26-.018-1.267.807a134.527,134.527,0,0,0,1.9,24.709c.643,3.474,3.777,3.549,4.764,2.652,2.957-2.692,4.328-26.075,4.315-26.2-.379-3.57-9.714-1.965-9.714-1.965" transform="translate(-25.856 -26.138)" fill="#0e1632" fill-rule="evenodd"/>
        <path id="Trazado_1000860" data-name="Trazado 1000860" d="M231.474,206.9c.059-.359-.171-5.548-.171-5.548s-5.129.607-8.392-2.3-7.6-9.761-8.323-10.6-2.036.149-2.156.628,6.077,12.664,7.275,14.46,5.149,3.532,5.569,4.132.748.778.748,2.933Z" transform="translate(-23.603 -20.904)" fill="#b92f6d" fill-rule="evenodd"/>
        <path id="Trazado_1000861" data-name="Trazado 1000861" d="M243.474,234.065c-1.041,5.173-15.061,4.012-16.164,2.013h0a4.254,4.254,0,0,1,.032-2.54c2.8-16.565-4.164-24.961,3.405-29.7,3.792-2.375,13.372-1.4,13.985,2.785.74,5.056-2.316,11.092-2.373,16.246-.053,4.8,1.995,6.825,1.116,11.2" transform="translate(-25.231 -22.507)" fill="#e03c82" fill-rule="evenodd"/>
        <path id="Trazado_1000862" data-name="Trazado 1000862" d="M236.843,193.5h0a2.659,2.659,0,0,0-2.651,2.652v5.4a2.651,2.651,0,0,0,5.3,0v-5.4a2.66,2.66,0,0,0-2.652-2.652" transform="translate(-26.021 -21.5)" fill="#e88397" fill-rule="evenodd"/>
        <path id="Trazado_1000863" data-name="Trazado 1000863" d="M239.862,198.384a4.517,4.517,0,0,0-.674,2.8,2.195,2.195,0,0,0-1.978-2.187s-2.745.8-2.819,1.164l-.044-.005c-2.447-.255-2.484-1.412-2.457-1.671s.217-1.571.174-1.67-.623-.158-.588-.491a26.713,26.713,0,0,1,1.583-4.511,5.994,5.994,0,0,1,3.444-3.057c4.046,1.208,1.441,6.283,2.321,6.082s1.476.531,1,1.488c-.067.133.143,1.968.039,2.061" transform="translate(-25.719 -20.973)" fill="#e88397" fill-rule="evenodd"/>
        <path id="Trazado_1000864" data-name="Trazado 1000864" d="M232.079,196.721s1.151.183,1.974.355,1.4.351,1.952-.024a2.354,2.354,0,0,0,1.195-1.572,2.783,2.783,0,0,0-.26-2.025c-.206-.289-.12-.658.209-1.094s1.413-2.9-1.214-3.461c0,0-.024-.25.473-.795s4.5.2,5.8,3.07a5.226,5.226,0,0,1-.911,6.006c-.111.135-.208.267-.294.4,0,0-.389.466-.674.861s-.839.633-1.125.244a1.952,1.952,0,0,1-.294-1.8s1.186-1.409.472-1.98c0,0-.425-.609-1.259.381a3.835,3.835,0,0,0-.343,1.1,7.092,7.092,0,0,1-1.121,3.579c-1.072,1.681-2.963.964-3.662.892s-1.476-.469-1.4-1.184.244-2.331.268-2.575.146-.38.213-.371" transform="translate(-25.733 -20.882)" fill="#01020e" fill-rule="evenodd"/>
        <path id="Trazado_1000865" data-name="Trazado 1000865" d="M243.345,203.737a11.083,11.083,0,0,1,5.149,4.072c1.676,2.814,5.687,15.508,6.047,17.425s-.3,3.293-2.575,2.814-11.227-5.9-11.645-6.228a1.451,1.451,0,0,1,.329-2.005c.718-.57,1.378.089,2.216.449s4.94,2.006,5.119,2.065-3.443-7.813-3.982-9.43-3.412-8.981-.658-9.162" transform="translate(-26.672 -22.637)" fill="#b92f6d" fill-rule="evenodd"/>
        <path id="Trazado_1000866" data-name="Trazado 1000866" d="M234.948,264.964c.6,5.99,1.892,17.872,1.9,26.209,0,0,.132,1.069.8,1.379a1.915,1.915,0,0,0,2.171-.568c.56-.659,1.675-18.314,1.108-27.545,0,0-.219-3.292-1.572-4.273-1.324-.96-4.868-.392-4.407,4.8" transform="translate(-26.101 -28.865)" fill="#0e1632" fill-rule="evenodd"/>
        <path id="Trazado_1000867" data-name="Trazado 1000867" d="M235.533,294.347c-.014.289-.025.548-.028.72a11.422,11.422,0,0,0,.11,1.933,1.953,1.953,0,0,1,0,.839s.148.409-.094.533a7.2,7.2,0,0,1-2.875.292c-1.159-.153-.685-.068-1.463.188s-2.414.43-3.138-.514a.445.445,0,0,1,.082-.42c.164-.182-.209-1.284.866-1.513a4,4,0,0,0,2.821-2.086.516.516,0,0,1,.492-.186c.291.073.8.648,1.561.632s1.188,0,1.358-.322.306-.1.306-.1" transform="translate(-25.336 -32.68)" fill="#bc463b" fill-rule="evenodd"/>
        <path id="Trazado_1000868" data-name="Trazado 1000868" d="M240.272,294.447c-.014.289-.026.547-.028.719a11.421,11.421,0,0,0,.11,1.933,1.951,1.951,0,0,1,0,.839c.28.778-.252.935-.766.826-.545-.116-.515-.142-1.061.188-.837.571-4.421.431-5.143-.514a.444.444,0,0,1,.081-.42c.164-.182-.21-1.283.865-1.512,1.092-.232,1.681-1.017,2.388-2.023.017-.024.154.218.347.008.485-.532.863-.218,1.766.287.385.216.83.331,1.134-.235.172-.317.306-.1.306-.1" transform="translate(-25.929 -32.691)" fill="#e95a5e" fill-rule="evenodd"/>
        <path id="Trazado_1000869" data-name="Trazado 1000869" d="M239.3,223.054l-1.782-.679a1.513,1.513,0,0,1-.9-1.783h0a1.214,1.214,0,0,1,1.625-.823l1.783.677a1.513,1.513,0,0,1,.9,1.784,1.214,1.214,0,0,1-1.626.825" transform="translate(-26.286 -24.409)" fill="#e88397" fill-rule="evenodd"/>
        <path id="Trazado_1000870" data-name="Trazado 1000870" d="M239.869,221.1l-.3-.844a.475.475,0,0,1,.415-.65.8.8,0,0,1,.819.5l.3.844a.475.475,0,0,1-.415.65.8.8,0,0,1-.819-.5" transform="translate(-26.616 -24.4)" fill="#e88397" fill-rule="evenodd"/>
        <path id="Trazado_1000871" data-name="Trazado 1000871" d="M212.411,188.289a2.7,2.7,0,0,0-.4-.829c-.351-.548-.244-.9-.376-1.4a10.324,10.324,0,0,1,.031-2.009c0-.5,1.376-1.228,1.671-1.562s.588.164.354.525a.582.582,0,0,1-.257.644c-.388.317-.024.755.232.869s.34-.1.667-.343.395-.394.565-.27.328.431-.115.829-.5,1.124-.684,1.667a3.143,3.143,0,0,0-.19,1.361c.011.1-.734,1.456-1.5.519" transform="translate(-23.509 -20.264)" fill="#e88397" fill-rule="evenodd"/>
        <path id="Trazado_1000872" data-name="Trazado 1000872" d="M211.914,183.647c.4-.434,1.236-.909,1.458-1.161.3-.333.588.164.355.525a.584.584,0,0,1-.257.645.446.446,0,0,0,0,.7c-.176.132-.578.236-.734.073-.139-.146-.6-.526-.826-.783" transform="translate(-23.546 -20.264)" fill="#ef8c65" fill-rule="evenodd"/>
        <path id="Trazado_1000873" data-name="Trazado 1000873" d="M219.843,182.928h-5.956a.712.712,0,0,0-.711.71v2.39a.712.712,0,0,0,.711.71h5.956a.712.712,0,0,0,.711-.71v-2.39a.712.712,0,0,0-.711-.71" transform="translate(-23.686 -20.325)" fill="#01020e" fill-rule="evenodd"/>
        <path id="Trazado_1000874" data-name="Trazado 1000874" d="M212.178,183.455c.108-.092.228-.183.348-.272.39-.161,1.125-.385,1.3-.437a.534.534,0,0,1-.084.308.582.582,0,0,1-.257.644.686.686,0,0,0-.052.048h0v0a.5.5,0,0,0-.05.06,1.782,1.782,0,0,0-.33.746.369.369,0,0,1-.3-.082c-.116-.123-.461-.41-.7-.652a1.362,1.362,0,0,1,.124-.365" transform="translate(-23.562 -20.305)" fill="#e88397" fill-rule="evenodd"/>
        <path id="Trazado_1000875" data-name="Trazado 1000875" d="M220.167,183.823h-.6a.166.166,0,0,0-.166.165v.622a.167.167,0,0,0,.166.166h.6a.166.166,0,0,0,.165-.166v-.622a.166.166,0,0,0-.165-.165" transform="translate(-24.378 -20.425)" fill="#1a293d" fill-rule="evenodd"/>
        <path id="Trazado_1000876" data-name="Trazado 1000876" d="M220.308,185.24h-.3a.083.083,0,0,0-.084.083v.31a.083.083,0,0,0,.084.084h.3a.083.083,0,0,0,.083-.084v-.31a.083.083,0,0,0-.083-.083" transform="translate(-24.436 -20.582)" fill="#fff" fill-rule="evenodd"/>
        <path id="Trazado_1000877" data-name="Trazado 1000877" d="M166.409,27.294H194.9a4.407,4.407,0,0,1,4.395,4.394v31a.49.49,0,0,1-.837.347l-7.488-7.488H166.409a4.406,4.406,0,0,1-4.394-4.394V31.688a4.407,4.407,0,0,1,4.394-4.394" transform="translate(-18.002 -3.033)" fill="#e03c82" fill-rule="evenodd"/>
        <path id="Trazado_1000878" data-name="Trazado 1000878" d="M181.534,34.844a17.68,17.68,0,0,0-9.744,2.9,1.2,1.2,0,1,1-1.315-2,20.109,20.109,0,0,1,22.117,0,1.2,1.2,0,1,1-1.315,2,17.68,17.68,0,0,0-9.744-2.9m0,6.776a10.924,10.924,0,0,1,6.022,1.8,1.2,1.2,0,1,1-1.314,2,8.6,8.6,0,0,0-9.417,0,1.2,1.2,0,0,1-1.315-2,10.924,10.924,0,0,1,6.023-1.8m0-4.589a15.476,15.476,0,0,0-8.54,2.555,1.2,1.2,0,0,0,1.314,2,13.181,13.181,0,0,1,14.452,0,1.2,1.2,0,1,0,1.315-2,15.476,15.476,0,0,0-8.54-2.555" transform="translate(-18.882 -3.604)" fill="#fff" fill-rule="evenodd"/>
        <path id="Trazado_1000879" data-name="Trazado 1000879" d="M182.671,53.234a2.5,2.5,0,1,0-2.5-2.5,2.508,2.508,0,0,0,2.5,2.5" transform="translate(-20.019 -5.359)" fill="#fff" fill-rule="evenodd"/>
        <path id="Trazado_1000880" data-name="Trazado 1000880" d="M212.152,78.36m1.549-5.9a2.981,2.981,0,1,1-.873,2.108,2.975,2.975,0,0,1,.873-2.108m.644-2.955a5.259,5.259,0,0,0-1.168.5,5.316,5.316,0,0,0-1.025.772.183.183,0,0,1-.219.027l-1.385-.8L210.54,70a.342.342,0,0,0-.252-.028.337.337,0,0,0-.209.159l-.006.01-.974,1.687a.349.349,0,0,0,.125.47l.01.006,1.373.792a.184.184,0,0,1,.087.2,5.466,5.466,0,0,0-.116.629,5.291,5.291,0,0,0,0,1.284,5.5,5.5,0,0,0,.116.629.183.183,0,0,1-.1.208l-1.374.793a.346.346,0,0,0-.158.209.34.34,0,0,0,.033.26l.98,1.7h0a.346.346,0,0,0,.468.126l.01-.006,1.376-.794a.183.183,0,0,1,.218.027,5.288,5.288,0,0,0,1.025.772,5.208,5.208,0,0,0,1.176.5.184.184,0,0,1,.133.176v1.6a.339.339,0,0,0,.1.241.344.344,0,0,0,.243.1h1.96a.344.344,0,0,0,.343-.342v-1.6a.182.182,0,0,1,.14-.178,5.266,5.266,0,0,0,2.193-1.27.183.183,0,0,1,.228-.02l1.375.794a.347.347,0,0,0,.469-.126l.006-.009.974-1.689h0a.347.347,0,0,0-.125-.468l-1.384-.8a.183.183,0,0,1-.087-.2,4.977,4.977,0,0,0,.116-.629,5.291,5.291,0,0,0,0-1.284,4.947,4.947,0,0,0-.116-.629.184.184,0,0,1,.1-.208l1.374-.793a.348.348,0,0,0,.125-.469l-.005-.01-.975-1.688A.346.346,0,0,0,221.07,70h0l-1.386.8a.184.184,0,0,1-.222-.03A5.312,5.312,0,0,0,218.441,70a5.218,5.218,0,0,0-1.175-.5.183.183,0,0,1-.133-.176v-1.6a.344.344,0,0,0-.343-.343h-1.96a.344.344,0,0,0-.343.343v1.6a.184.184,0,0,1-.141.178" transform="translate(-23.228 -7.487)" fill="#fa9757" fill-rule="evenodd"/>
        <path id="Trazado_1000881" data-name="Trazado 1000881" d="M248.606,29.406a14.026,14.026,0,1,1-3.049,4.563,14.07,14.07,0,0,1,3.049-4.563m5.055-1.85a12.821,12.821,0,1,0,4.877-.964,12.756,12.756,0,0,0-4.877.964m-1.552-10.335a22.532,22.532,0,0,0-2.588.923,22.9,22.9,0,0,0-2.486,1.241,23.23,23.23,0,0,0-4.482,3.379,1.468,1.468,0,0,1-1.756.212c-2.063-1.191-4.231-2.37-6.252-3.61a.861.861,0,0,0-.3-.094.956.956,0,0,0-.345.027.907.907,0,0,0-.316.154.893.893,0,0,0-.228.26c-1.5,2.276-3.012,5.215-4.4,7.627a.848.848,0,0,0-.11.324.929.929,0,0,0,.18.671.869.869,0,0,0,.26.228c1.855,1.227,4.245,2.454,6.212,3.591a1.458,1.458,0,0,1,.62.7,1.538,1.538,0,0,1,.093.306l.127.043-.143.58q-.169.683-.3,1.365-.121.661-.21,1.385c-.057.47-.1.937-.128,1.4s-.041.922-.041,1.412.014.963.041,1.411.071.929.128,1.4.129.943.21,1.385.183.911.3,1.366a1.467,1.467,0,0,1-.758,1.66l-5.5,3.177,0,0-.652.376a.882.882,0,0,0-.26.228.932.932,0,0,0-.18.671.848.848,0,0,0,.11.324l4.073,7.059,0,0,.329.571a.89.89,0,0,0,.228.259.932.932,0,0,0,.669.18.876.876,0,0,0,.322-.109c1.972-1.238,4.195-2.42,6.228-3.594a1.468,1.468,0,0,1,1.75.211l0,0a23.013,23.013,0,0,0,6.985,4.627,22.806,22.806,0,0,0,2.635.932,1.472,1.472,0,0,1,1.068,1.417l0,7.18a.867.867,0,0,0,.067.338.908.908,0,0,0,.2.289.876.876,0,0,0,.29.2.893.893,0,0,0,.338.066h8.811a.893.893,0,0,0,.338-.066.935.935,0,0,0,.291-.2.95.95,0,0,0,.195-.29.884.884,0,0,0,.067-.338v-7.18a1.484,1.484,0,0,1,1.133-1.435,22.342,22.342,0,0,0,2.588-.922,23.109,23.109,0,0,0,6.968-4.62,1.46,1.46,0,0,1,.885-.4,1.475,1.475,0,0,1,.946.236l6.147,3.548a.883.883,0,0,0,.324.109.943.943,0,0,0,.671-.18.9.9,0,0,0,.228-.259c1.46-2.548,2.943-5.083,4.405-7.628a.887.887,0,0,0,.109-.325.933.933,0,0,0-.179-.67.829.829,0,0,0-.254-.227l-6.219-3.59a1.469,1.469,0,0,1-.7-.932l-.162-.033.163-.66c.113-.455.212-.912.294-1.365s.152-.9.212-1.386.1-.938.127-1.4.041-.92.041-1.411-.014-.962-.041-1.411-.071-.926-.127-1.4q-.091-.732-.212-1.39-.124-.68-.294-1.363a1.468,1.468,0,0,1,.093-.972,1.49,1.49,0,0,1,.661-.687l6.159-3.556a.847.847,0,0,0,.257-.226.933.933,0,0,0,.179-.67.885.885,0,0,0-.109-.326c-1.5-2.236-3.01-5.223-4.405-7.628a.9.9,0,0,0-.228-.26.942.942,0,0,0-.67-.18.881.881,0,0,0-.324.111l-6.222,3.592a1.451,1.451,0,0,1-.933.186,1.485,1.485,0,0,1-.841-.414,22.974,22.974,0,0,0-6.966-4.61A22.747,22.747,0,0,0,264.9,17.2a1.472,1.472,0,0,1-1.068-1.416l0-7.18a.88.88,0,0,0-.067-.338.923.923,0,0,0-.485-.486.893.893,0,0,0-.338-.066h-8.811a.892.892,0,0,0-.89.89v7.18a1.479,1.479,0,0,1-1.134,1.434m-3.1-.273a24.333,24.333,0,0,0-7.358,4.879.17.17,0,0,1-.1.046.179.179,0,0,1-.108-.02c-2.092-1.208-4.188-2.411-6.275-3.625a2.178,2.178,0,0,0-.786-.247,2.241,2.241,0,0,0-.826.061,2.216,2.216,0,0,0-.768.379,2.166,2.166,0,0,0-.563.641c-1.516,2.455-2.956,5.116-4.405,7.627a2.163,2.163,0,0,0-.273.812,2.217,2.217,0,0,0,.057.853,2.163,2.163,0,0,0,.379.768,2.139,2.139,0,0,0,.64.563c2,1.236,4.172,2.41,6.218,3.591a.174.174,0,0,1,.071.081.178.178,0,0,1,.009.109l-.143.58.009,0c-.062.282-.121.568-.173.86q-.137.747-.225,1.467t-.133,1.474c-.031.508-.046,1-.046,1.488s.015.98.046,1.487.075,1,.133,1.476.133.969.225,1.466.195.977.309,1.443a.167.167,0,0,1-.012.114.18.18,0,0,1-.076.084c-2.285,1.22-4.605,2.655-6.864,3.961l.081.1-.069.086a2.176,2.176,0,0,0-.378.768,2.221,2.221,0,0,0-.057.854,2.15,2.15,0,0,0,.274.811l4.733,8.2.088-.053c.047.044.1.084.146.123a2.2,2.2,0,0,0,1.62.434,2.191,2.191,0,0,0,.789-.26c2.071-1.1,4.2-2.426,6.247-3.608a.179.179,0,0,1,.1-.018.187.187,0,0,1,.1.047,24.282,24.282,0,0,0,10.159,5.872.17.17,0,0,1,.092.061.162.162,0,0,1,.035.1v7.18a2.159,2.159,0,0,0,.168.835,2.185,2.185,0,0,0,.477.712,2.222,2.222,0,0,0,.709.476,2.185,2.185,0,0,0,.836.168h8.811a2.181,2.181,0,0,0,.836-.168,2.238,2.238,0,0,0,.711-.476,2.193,2.193,0,0,0,.476-.712,2.161,2.161,0,0,0,.169-.835v-7.18a.163.163,0,0,1,.132-.169l.028-.011a24.045,24.045,0,0,0,2.769-.982,24.349,24.349,0,0,0,7.359-4.879.172.172,0,0,1,.1-.049.183.183,0,0,1,.111.028l6.218,3.589a2.155,2.155,0,0,0,.808.272,2.2,2.2,0,0,0,1.621-.434,2.172,2.172,0,0,0,.553-.623c1.634-2.627,3.177-5.5,4.735-8.2l-.084-.051a2.07,2.07,0,0,0,.036-.207,2.209,2.209,0,0,0-.057-.852,2.193,2.193,0,0,0-1.017-1.331l-6.22-3.59a.177.177,0,0,1-.07-.081.182.182,0,0,1-.011-.113l.162-.657-.009,0c.056-.256.108-.516.156-.78q.136-.745.225-1.467t.132-1.476c.03-.507.047-1,.047-1.487s-.017-.98-.047-1.486-.075-1-.132-1.478-.133-.965-.225-1.467-.195-.974-.31-1.439a.186.186,0,0,1,.012-.116.178.178,0,0,1,.08-.082l6.21-3.585a2.144,2.144,0,0,0,.639-.564,2.2,2.2,0,0,0,.172-2.411c-1.48-2.741-3.178-5.507-4.744-8.219l-.088.053c-.047-.044-.1-.084-.147-.123a2.2,2.2,0,0,0-1.62-.435,2.181,2.181,0,0,0-.808.268l-.459.265v0l-5.769,3.329a.174.174,0,0,1-.11.021.166.166,0,0,1-.1-.049l-.015-.015a24.236,24.236,0,0,0-10.144-5.857.173.173,0,0,1-.091-.06.162.162,0,0,1-.035-.106V8.607a2.2,2.2,0,0,0-.647-1.548,2.185,2.185,0,0,0-1.544-.644h-8.811a2.185,2.185,0,0,0-.836.168,2.249,2.249,0,0,0-.711.476,2.185,2.185,0,0,0-.644,1.548v7.18a.191.191,0,0,1-.036.109.173.173,0,0,1-.1.059l-.028.011a24.214,24.214,0,0,0-2.769.982" transform="translate(-25.282 -0.713)" fill="#fa9757" fill-rule="evenodd"/>
        <path id="Trazado_1000882" data-name="Trazado 1000882" d="M445.465,160.237a.5.5,0,0,0-1,0v1.172H443.3a.5.5,0,0,0,0,1h1.172v1.172a.5.5,0,1,0,1,0v-1.172h1.172a.5.5,0,1,0,0-1h-1.172Z" transform="translate(-49.2 -17.749)" fill="#fa9757" fill-rule="evenodd"/>
        <path id="Trazado_1000883" data-name="Trazado 1000883" d="M20.245,215.793a.5.5,0,0,0-1,0v1.172H18.076a.5.5,0,1,0,0,1h1.172v1.173a.5.5,0,0,0,1,0v-1.173h1.172a.5.5,0,0,0,0-1H20.245Z" transform="translate(-1.953 -23.922)" fill="#fa9757" fill-rule="evenodd"/>
        <path id="Trazado_1000884" data-name="Trazado 1000884" d="M423.762,258.83a.5.5,0,1,0-1,0V260h-1.172a.5.5,0,0,0,0,1h1.172v1.172a.5.5,0,1,0,1,0V261h1.172a.5.5,0,0,0,0-1h-1.172Z" transform="translate(-46.788 -28.703)" fill="#fa9757" fill-rule="evenodd"/>
        <path id="Trazado_1000885" data-name="Trazado 1000885" d="M36.948,175.989a.5.5,0,0,0-1,0v1.172H34.778a.5.5,0,0,0,0,1H35.95v1.173a.5.5,0,0,0,1,0v-1.173h1.172a.5.5,0,1,0,0-1H36.948Z" transform="translate(-3.809 -19.499)" fill="#fa9757" fill-rule="evenodd"/>
        <path id="Trazado_1000886" data-name="Trazado 1000886" d="M3.947,100.189a.5.5,0,0,0-1,0v1.172H1.778a.5.5,0,0,0,0,1H2.95v1.172a.5.5,0,0,0,1,0v-1.172H5.12a.5.5,0,0,0,0-1H3.947Z" transform="translate(-0.142 -11.077)" fill="#fa9757" fill-rule="evenodd"/>
        <path id="Trazado_1000887" data-name="Trazado 1000887" d="M114.322,25.778a.5.5,0,0,0-1,0V26.95h-1.172a.5.5,0,0,0,0,1h1.172v1.172a.5.5,0,0,0,1,0V27.947h1.172a.5.5,0,1,0,0-1h-1.172Z" transform="translate(-12.406 -2.809)" fill="#fa9757" fill-rule="evenodd"/>
        <path id="Trazado_1000888" data-name="Trazado 1000888" d="M325.149,28.879a.5.5,0,1,0-1,0V30.05H322.98a.5.5,0,0,0,0,1h1.172v1.173a.5.5,0,0,0,1,0V31.048h1.172a.5.5,0,0,0,0-1h-1.172Z" transform="translate(-35.831 -3.153)" fill="#fa9757" fill-rule="evenodd"/>
        <path id="Trazado_1000889" data-name="Trazado 1000889" d="M175.71,4.695a.5.5,0,0,0-1,0V5.867h-1.171a.5.5,0,1,0,0,1h1.171V8.037a.5.5,0,0,0,1,0V6.864h1.172a.5.5,0,1,0,0-1H175.71Z" transform="translate(-19.227 -0.466)" fill="#fa9757" fill-rule="evenodd"/>
        <path id="Trazado_1000890" data-name="Trazado 1000890" d="M85.549,31.361m2.363-8.995A4.542,4.542,0,1,1,86.58,25.58a4.531,4.531,0,0,1,1.332-3.213m.981-4.5A8.045,8.045,0,0,0,85.55,19.8a.28.28,0,0,1-.333.041L83.105,18.62l-.012-.008a.528.528,0,0,0-.7.2l-.009.014L80.9,21.4a.528.528,0,0,0,.192.716l.014.009L83.2,23.332a.28.28,0,0,1,.132.308h0a8.148,8.148,0,0,0-.176,2.917,7.993,7.993,0,0,0,.177.96.282.282,0,0,1-.148.317l-2.094,1.208h0a.528.528,0,0,0-.192.716l1.493,2.588h0a.518.518,0,0,0,.318.242.524.524,0,0,0,.4-.05l.015-.009,2.1-1.211a.28.28,0,0,1,.332.041A8.008,8.008,0,0,0,88.9,33.3a.281.281,0,0,1,.2.268V36a.525.525,0,0,0,.522.523h2.989A.524.524,0,0,0,93.141,36V33.568a.282.282,0,0,1,.215-.272,7.951,7.951,0,0,0,1.78-.757A8.114,8.114,0,0,0,96.7,31.361a.28.28,0,0,1,.348-.033l2.1,1.212a.529.529,0,0,0,.715-.192l.009-.015,1.486-2.573a.53.53,0,0,0-.191-.715l-2.11-1.219a.279.279,0,0,1-.132-.308,8.169,8.169,0,0,0,.176-.96,8.1,8.1,0,0,0-.176-2.917.277.277,0,0,1,.147-.316l2.1-1.21a.53.53,0,0,0,.191-.715l-.009-.015-1.486-2.573a.527.527,0,0,0-.715-.192h0l-2.111,1.219a.28.28,0,0,1-.34-.046,8.034,8.034,0,0,0-1.556-1.172,7.933,7.933,0,0,0-1.792-.763.281.281,0,0,1-.2-.268V15.155a.524.524,0,0,0-.522-.523H89.63a.525.525,0,0,0-.522.523V17.59a.279.279,0,0,1-.215.272" transform="translate(-8.981 -1.626)" fill="#fa9757" fill-rule="evenodd"/>
        <path id="Trazado_1000891" data-name="Trazado 1000891" d="M265.974,154.446a58.565,58.565,0,0,0-32.248,9.61,3.96,3.96,0,1,1-4.35-6.619,66.567,66.567,0,0,1,73.2,0,3.96,3.96,0,1,1-4.351,6.619,58.565,58.565,0,0,0-32.248-9.61m0,22.425a36.129,36.129,0,0,1,19.932,5.97,3.96,3.96,0,1,1-4.35,6.619,28.457,28.457,0,0,0-31.164,0,3.96,3.96,0,1,1-4.35-6.619,36.129,36.129,0,0,1,19.932-5.97m0-15.189a51.249,51.249,0,0,0-28.266,8.457,3.961,3.961,0,0,0,4.351,6.62,43.628,43.628,0,0,1,47.83,0,3.961,3.961,0,0,0,4.35-6.62,51.243,51.243,0,0,0-28.266-8.457" transform="translate(-25.288 -16.277)" fill="#fff" fill-rule="evenodd"/>
        <path id="Trazado_1000892" data-name="Trazado 1000892" d="M269.736,215.309a8.286,8.286,0,1,0-8.284-8.285,8.3,8.3,0,0,0,8.284,8.285" transform="translate(-29.05 -22.082)" fill="#fff" fill-rule="evenodd"/>
      </g>
    </g>
  </g>
</svg>
