<svg xmlns="http://www.w3.org/2000/svg" xmlns:xlink="http://www.w3.org/1999/xlink" width="156" height="156" viewBox="0 0 156 156">
  <defs>
    <clipPath id="clip-path">
      <rect id="Rectángulo_456656" data-name="Rectángulo 456656" width="83.844" height="84.184" fill="#12263f"/>
    </clipPath>
  </defs>
  <g id="Grupo_1176584" data-name="Grupo 1176584" transform="translate(-1234.554 -458.054)">
    <g id="Elipse_12108" data-name="Elipse 12108" transform="translate(1241.554 465.054)" fill="#30df8e" stroke="rgba(255,255,255,0.4)" stroke-width="7">
      <circle cx="71" cy="71" r="71" stroke="none"/>
      <circle cx="71" cy="71" r="74.5" fill="none"/>
    </g>
    <g id="Grupo_1186384" data-name="Grupo 1186384" transform="translate(1270.632 493.962)">
      <g id="Grupo_1186383" data-name="Grupo 1186383" clip-path="url(#clip-path)">
        <path id="Trazado_1000893" data-name="Trazado 1000893" d="M72.92,19.283a13.863,13.863,0,0,1-.047,1.947,1.691,1.691,0,0,1-3.055.419c-.394-.763-.365-5.57-.263-6.672.105-1.131.313-1.843,1.576-1.988a43.424,43.424,0,0,1,6.512,0c1.211.148,1.562,1.064,1.35,2.2-.28,1.5-2.922,1.015-3.978,1.264a42.008,42.008,0,0,1,8.357,19.317c5.155,35.248-33,60.839-63.479,42.094C-7.195,61.206-6.486,21.246,21.2,5.62,27.735,1.933,39.736-1.345,47.091.559a1.615,1.615,0,0,1,.1,3.165C26.647,1.166,7.346,14.978,3.832,35.421a38.683,38.683,0,0,0,47.035,44.31C77.559,73.485,89.539,41.242,72.92,19.283" transform="translate(0 0)" fill="#12263f"/>
        <path id="Trazado_1000894" data-name="Trazado 1000894" d="M58.027,65.41c1,1.242-.6,2.955-1.135,4.088-14.481,30.81,25.159,55.344,46.058,31.173,19.672-22.753-5.669-56.783-33.891-43.325-1.222.583-3.168,2.534-4.36.871-1.305-1.821,1.531-3.105,2.893-3.806,27.38-14.1,56.669,16.52,41.27,43.576-16.157,28.388-60.4,15.281-58.317-17.854.226-3.6,2.384-12.009,4.923-14.575a1.692,1.692,0,0,1,2.56-.147" transform="translate(-39.891 -40.196)" fill="#12263f"/>
        <path id="Trazado_1000895" data-name="Trazado 1000895" d="M173,121.921c1.6-.385,2.575.676,2.034,2.246-3.534,4.053-7.579,7.673-11.323,11.546.531,1.808.834,3.065.089,4.893-2.451,6.01-11.584,3.641-10.85-2.885.057-.5.6-1.723.572-1.879-.114-.6-5-4.72-5.6-5.717-.866-1.865.487-3.225,2.358-2.358,1,.6,5.108,5.486,5.717,5.6a18.851,18.851,0,0,1,2.483-.612,6.781,6.781,0,0,1,2.7.612c4.042-3.7,7.6-7.974,11.822-11.448m-15.1,14.25c-2.746.632-1.835,5.526,1.541,4.473,2.484-.775,1.709-5.221-1.541-4.473" transform="translate(-116.698 -96.297)" fill="#12263f"/>
        <path id="Trazado_1000896" data-name="Trazado 1000896" d="M192.041,82.418a1.727,1.727,0,0,1,2.234-.166c1.11.8,1.305,5.773-1.684,4.826-1.376-.436-1.35-3.788-.551-4.66" transform="translate(-151.343 -64.746)" fill="#12263f"/>
        <path id="Trazado_1000897" data-name="Trazado 1000897" d="M298.471,193.214a1.727,1.727,0,0,1,.166,2.234c-.8,1.11-5.773,1.305-4.826-1.684.436-1.376,3.788-1.35,4.66-.551" transform="translate(-232.118 -152.27)" fill="#12263f"/>
        <path id="Trazado_1000898" data-name="Trazado 1000898" d="M81.969,192.713c1.04-.232,3.78-.287,4.041,1.117.408,2.193-1.827,2.4-3.462,2.2-2.138-.26-2.387-2.911-.579-3.314" transform="translate(-63.83 -152.21)" fill="#12263f"/>
        <path id="Trazado_1000899" data-name="Trazado 1000899" d="M192.484,294.794c3.621-1.084,2.97,6.768-.23,4.964-1.186-.669-1.118-4.56.23-4.964" transform="translate(-151.285 -232.908)" fill="#12263f"/>
        <path id="Trazado_1000900" data-name="Trazado 1000900" d="M247.223,8.948a1.617,1.617,0,1,1-.164,3.007,1.6,1.6,0,0,1,.164-3.007" transform="translate(-194.488 -7.024)" fill="#12263f"/>
        <path id="Trazado_1000901" data-name="Trazado 1000901" d="M94.847,93.569c1.5,1.493-.75,4.01-2.36,2.256-1.524-1.66,1.019-3.6,2.36-2.256" transform="translate(-72.724 -73.598)" fill="#12263f"/>
      </g>
    </g>
  </g>
</svg>
