<svg xmlns="http://www.w3.org/2000/svg" xmlns:xlink="http://www.w3.org/1999/xlink" width="156" height="156" viewBox="0 0 156 156">
  <defs>
    <clipPath id="clip-path">
      <rect id="Rectángulo_456661" data-name="Rectángulo 456661" width="75.028" height="80.409" fill="#12263f"/>
    </clipPath>
  </defs>
  <g id="Grupo_1183130" data-name="Grupo 1183130" transform="translate(-1234.554 -458.054)">
    <g id="Elipse_12108" data-name="Elipse 12108" transform="translate(1241.554 465.054)" fill="#30df8e" stroke="rgba(255,255,255,0.4)" stroke-width="7">
      <circle cx="71" cy="71" r="71" stroke="none"/>
      <circle cx="71" cy="71" r="74.5" fill="none"/>
    </g>
    <g id="Grupo_1186394" data-name="Grupo 1186394" transform="translate(1275.039 495.849)">
      <g id="Grupo_1186393" data-name="Grupo 1186393" clip-path="url(#clip-path)">
        <path id="Trazado_1000919" data-name="Trazado 1000919" d="M14.8,5.272h3.858c-.478-6.974,8.822-7.084,8.144,0h4.072c-.874-7.016,8.8-7.016,7.93,0h4.072c-.678-7.084,8.622-6.974,8.144,0h3.858c-.757-6.987,8.856-7.011,8.166-.021,3.563.383,6.313,2.649,6.63,6.336l0,34.937a20.143,20.143,0,1,1-32.4,23.4,24.183,24.183,0,0,0-1.386-2.9L6.12,66.993A6.8,6.8,0,0,1,0,60.9L.064,11.007C.589,7.613,3.346,5.6,6.631,5.251c-.689-6.991,8.923-6.966,8.166.021m-2.785,0c.532-3.447-3.106-3.446-2.574,0Zm12,0c.619-3.45-3.13-3.446-2.574,0Zm12.216,0c.391-3.364-3.183-3.354-2.788,0Zm12,0c.557-3.445-3.192-3.452-2.574,0Zm12,0c.532-3.447-3.106-3.446-2.574,0ZM12.01,8.058H6.117a5.752,5.752,0,0,0-2.042.958,7.551,7.551,0,0,0-1.28,1.935v5.037H66.876V10.951a7.654,7.654,0,0,0-1.18-1.82A4.457,4.457,0,0,0,63.02,8.059c.6,2.491-1.782,6.111-4.511,5.262a1.4,1.4,0,0,1-.409-2.359c1.16-.848,2.631.027,2.133-2.9H51.017c.144,1.848-.3,3.767-1.991,4.76-3.009,1.762-4.585-.973-2.808-1.951.615-.338,1.21-.062,1.69-.668s.305-1.434.324-2.141H38.8c.206,2.061-.167,4.037-2.213,4.967-1.224.556-3.443.684-3.111-1.164.254-1.418,1.868-.952,2.429-1.661.475-.6.305-1.434.324-2.141H26.8c.235,1.894-.28,3.976-2.072,4.894-2.859,1.463-4.4-1.02-2.507-2.078,1.54-.862,2.044.011,1.793-2.816H14.8c.442,2.414-1.258,5.493-3.963,5.371a1.4,1.4,0,0,1-.957-2.468c1.159-.848,2.631.027,2.134-2.9M66.876,18.774H2.794v2.572H66.876Zm0,5.358H2.795v37.4A6.1,6.1,0,0,0,5.474,64.21H35.157c-3.4-17.936,16.833-30.864,31.72-20.146ZM52.469,43.052c-8.755.987-15.485,9.577-14.952,18.262.868,14.146,17.658,21.527,28.6,12.32,13.245-11.142,3.937-32.565-13.651-30.582" transform="translate(-0.001 0)" fill="#12263f"/>
        <path id="Trazado_1000920" data-name="Trazado 1000920" d="M37.873,143.347c.936-.209,3.409-.25,4.021.6.527.734.552,3.945-.226,4.479-.586.4-4.2.433-4.687-.209-.667-.887-.72-4.513.892-4.872" transform="translate(-28.711 -112.526)" fill="#12263f"/>
        <path id="Trazado_1000921" data-name="Trazado 1000921" d="M262.873,143.347c.936-.209,3.409-.25,4.021.6.527.734.552,3.945-.226,4.479-.586.4-4.2.433-4.687-.209-.667-.887-.72-4.513.892-4.872" transform="translate(-205.489 -112.526)" fill="#12263f"/>
        <path id="Trazado_1000922" data-name="Trazado 1000922" d="M37.873,193.347c.936-.209,3.409-.25,4.021.6.527.734.552,3.945-.226,4.479-.586.4-4.2.433-4.687-.209-.667-.887-.72-4.513.892-4.872" transform="translate(-28.711 -151.81)" fill="#12263f"/>
        <path id="Trazado_1000923" data-name="Trazado 1000923" d="M37.873,243.347c.936-.209,3.409-.25,4.021.6.527.734.552,3.945-.226,4.479-.586.4-4.2.433-4.687-.209-.667-.887-.72-4.513.892-4.872" transform="translate(-28.711 -191.093)" fill="#12263f"/>
        <path id="Trazado_1000924" data-name="Trazado 1000924" d="M94.137,148.466c-.4-.4-.4-4.1-.067-4.573.516-.728,3.741-.7,4.42-.316,1.05.589,1.027,4.141.323,4.845-.479.479-4.251.469-4.676.044" transform="translate(-73.718 -112.597)" fill="#12263f"/>
        <path id="Trazado_1000925" data-name="Trazado 1000925" d="M210.819,148.466c-.425.425-4.2.434-4.676-.044-.7-.7-.727-4.255.323-4.845.679-.381,3.9-.412,4.42.316.333.47.337,4.169-.067,4.573" transform="translate(-161.568 -112.597)" fill="#12263f"/>
        <path id="Trazado_1000926" data-name="Trazado 1000926" d="M94.112,198.381c-.425-.425-.434-4.2.044-4.676.7-.7,4.255-.727,4.845.323.381.679.412,3.9-.316,4.42-.47.333-4.169.337-4.573-.067" transform="translate(-73.693 -151.796)" fill="#12263f"/>
        <path id="Trazado_1000927" data-name="Trazado 1000927" d="M94.137,248.466c-.4-.4-.4-4.1-.067-4.573.516-.728,3.741-.7,4.42-.316,1.05.589,1.027,4.141.323,4.845-.479.479-4.251.469-4.676.044" transform="translate(-73.718 -191.165)" fill="#12263f"/>
        <path id="Trazado_1000928" data-name="Trazado 1000928" d="M150.691,143.372c.812-.187,3.631-.246,4.111.512.441.7.477,4.273-.406,4.693a14.22,14.22,0,0,1-4.073,0c-.886-.42-1.208-4.842.368-5.205" transform="translate(-117.525 -112.55)" fill="#12263f"/>
        <path id="Trazado_1000929" data-name="Trazado 1000929" d="M150.691,193.372c.812-.187,3.631-.246,4.111.512.441.7.477,4.273-.406,4.693a14.219,14.219,0,0,1-4.073,0c-.886-.42-1.208-4.842.368-5.205" transform="translate(-117.525 -151.834)" fill="#12263f"/>
        <path id="Trazado_1000930" data-name="Trazado 1000930" d="M200.608,212.645A14.757,14.757,0,1,1,190.066,235.7c-6.343-9.106-.487-22.038,10.542-23.058m-.437,2.777c-14.407,1.954-12.556,24.893,2.728,23.944,16.245-1.009,14.3-26.254-2.728-23.944" transform="translate(-147.278 -167.016)" fill="#12263f"/>
        <path id="Trazado_1000931" data-name="Trazado 1000931" d="M247.945,244.814a8.219,8.219,0,0,0,.741.7c1.039.281,4.546-.711,4.544,1.392,0,2.035-3.02,1.181-4.16,1.4-.654.125-.945.982-1.6,1.185a2.755,2.755,0,0,1-3.559-3.559c.2-.655,1.06-.946,1.185-1.6.3-1.557-.8-6.325,1.019-6.708,3.03-.638,1.2,5.9,1.829,7.2" transform="translate(-191.514 -186.656)" fill="#12263f"/>
      </g>
    </g>
  </g>
</svg>
