<svg xmlns="http://www.w3.org/2000/svg" xmlns:xlink="http://www.w3.org/1999/xlink" width="156" height="156" viewBox="0 0 156 156">
  <defs>
    <clipPath id="clip-path">
      <rect id="Rectángulo_456657" data-name="Rectángulo 456657" width="83.393" height="83.521" fill="#12263f"/>
    </clipPath>
  </defs>
  <g id="Grupo_1176585" data-name="Grupo 1176585" transform="translate(-1234.554 -458.054)">
    <g id="Elipse_12108" data-name="Elipse 12108" transform="translate(1241.554 465.054)" fill="#30df8e" stroke="rgba(255,255,255,0.4)" stroke-width="7">
      <circle cx="71" cy="71" r="71" stroke="none"/>
      <circle cx="71" cy="71" r="74.5" fill="none"/>
    </g>
    <g id="Grupo_1186386" data-name="Grupo 1186386" transform="translate(1270.857 490.293)">
      <g id="Grupo_1186385" data-name="Grupo 1186385" clip-path="url(#clip-path)">
        <path id="Trazado_1000902" data-name="Trazado 1000902" d="M39.531.086A23.345,23.345,0,0,1,62.781,33.149c-1.362,2.985-3.684,5.54-5.033,8.5l13.23,7.665L83,80.924c.622,1.232.662,2.775-1.1,2.573L62,72.474l-.8.227L41.919,83.5l-1.279-.3L21.5,72.474l-.933.3L1.726,83.373c-3.2,1-1.058-3.393-.573-4.747,3.525-9.836,7.609-19.5,11.191-29.313l13.23-7.665c-1.349-2.959-3.672-5.514-5.033-8.5C13.89,18.567,23.494,1.412,39.531.086m1.152,60.629c.607.518,1.292.718,1.907.053L59.784,33.492c6.646-11.978.1-27.359-13.321-30.443A20.822,20.822,0,0,0,22.9,32.25Zm-.275,19.273V63.6c0-.182-1.518-.853-1.638-1.285L28.3,45.54c-.3-.05-.293.369-.351.582-.765,2.8-1.03,5.761-1.9,8.544-.751,1.268-2.424.676-2.332-.852.143-2.385,1.447-5.719,1.815-8.226.035-.24.183-.741-.049-.884L14.337,51.1,3.659,79.254c.124.3.393.026.564-.062,5.416-2.8,10.613-6.35,16.1-9.057l2.39-11.494a1.244,1.244,0,0,1,2.461.349c-.683,3.8-1.733,7.563-2.275,11.363Zm39.25-.627L68.984,51.1,57.738,44.7,63,70.135ZM42.913,63.6v16.39l17.56-9.915L55.229,45.54,44.551,62.313c-.167.5-1.547,1-1.638,1.285" transform="translate(0 0)" fill="#12263f"/>
        <path id="Trazado_1000903" data-name="Trazado 1000903" d="M146.609,47.018c10.084-1.149,17.964,8.079,14.665,17.8-3.833,11.288-19.686,12.217-24.885,1.5-3.895-8.032,1.274-18.272,10.22-19.291m.209,2.506c-12.245,1.471-12.33,20.783.8,21.837,15.716,1.261,15.713-23.821-.8-21.837" transform="translate(-106.874 -37.124)" fill="#12263f"/>
        <path id="Trazado_1000904" data-name="Trazado 1000904" d="M166.41,70.155c11.216-1.222,12.68,15.782,2.425,17.038-12.309,1.508-13.547-15.826-2.425-17.038m.205,2.5c-8.478,1.048-6.154,14,2.191,12,7.221-1.725,5.215-12.918-2.191-12" transform="translate(-125.631 -55.458)" fill="#12263f"/>
      </g>
    </g>
  </g>
</svg>
