<svg xmlns="http://www.w3.org/2000/svg" xmlns:xlink="http://www.w3.org/1999/xlink" width="80" height="80" viewBox="0 0 80 80">
  <defs>
    <clipPath id="clip-path">
      <rect id="Rect치ngulo_456663" data-name="Rect치ngulo 456663" width="37.113" height="61.997" fill="#12263f"/>
    </clipPath>
  </defs>
  <g id="Grupo_1183148" data-name="Grupo 1183148" transform="translate(-704.52 -3293.691)">
    <g id="Grupo_1183033" data-name="Grupo 1183033" transform="translate(524.852 -2227.309)">
      <rect id="Rect치ngulo_402006" data-name="Rect치ngulo 402006" width="80" height="80" rx="5" transform="translate(179.668 5521)" fill="#fa9757"/>
    </g>
    <g id="Grupo_1186397" data-name="Grupo 1186397" transform="translate(725.963 3302.693)">
      <g id="Grupo_1186396" data-name="Grupo 1186396" clip-path="url(#clip-path)">
        <path id="Trazado_1000932" data-name="Trazado 1000932" d="M1.735,56.165a1.133,1.133,0,0,1-.661-1.487l7.458-7.448c.886-1.2-.344-.981-1.082-1.748a4.894,4.894,0,0,1-1.013-2.05C4.02,43.3.95,44.125.034,41.141L0,11.042C3.353,7.277,7.163,3.842,10.669.182,18.63-.183,26.694.133,34.694.022a3.326,3.326,0,0,1,2.27,1.87c.289,13.006.057,26.08.117,39.11-.81,3.121-3.97,2.305-6.43,2.431a4.894,4.894,0,0,1-1.013,2.05c-.738.767-1.969.551-1.082,1.748l7.458,7.448c.336.428-.21,1.487-.661,1.487H30.3v5.051c0,.563-.886.844-1.4.743-.957-.187-7.552-7.855-8.118-7.9-.224-.018-1.651.75-2.169.773-.548.025-2.211-.823-2.39-.742L8.534,61.8c-.485.458-1.748.033-1.748-.588V56.165c-1.441-.212-3.722.285-5.051,0m.248-43.885v28.4c0,.9,3.915.937,4.312.669.086-.058.652-1.419.991-1.824.313-.374,1.44-1.1,1.471-1.192.074-.237-.221-1.711-.11-2.416.407-2.585,2.452-3.5,4.853-3.442.308.007.766.212.962.157.241-.068.44-.718.683-.981a4.434,4.434,0,0,1,6.877.087c.214.242.34.819.6.894.232.065,1.859-.233,2.585-.109a4.206,4.206,0,0,1,3.229,3.4c.114.71-.186,2.174-.11,2.416.03.1,1.158.818,1.471,1.192.339.4.905,1.766.991,1.824.331.223,4.785.457,4.323-1.156l0-36.947c.116-.4-.379-1.234-.753-1.234H12.251V11.7a.965.965,0,0,1-.58.58Zm8.28-1.987V3.5l-6.79,6.79ZM24.217,38.984c.168-.175.943-.395,1.272-.632,2.777-2-.852-5.283-2.637-3.3-.646.718-.676,2.273-2.036,1.869-1.272-.378-.181-1.968-.13-2.723.184-2.756-4.352-2.719-4.3-.151.016.8,1.182,2.49-.112,2.874-1.36.4-1.39-1.151-2.036-1.869-1.827-2.03-5.408,1.406-2.641,3.3.723.5,1.855.45,1.454,1.8-.349,1.171-1.9.211-2.552.13-1.91-.235-2.741,1.85-1.865,3.356,1.1,1.9,3.827-.361,4.335.807.676,1.554-1,1.552-1.792,2.283-1.931,1.783,1.375,5.316,3.3,2.637.52-.724.474-1.822,1.7-1.52,1.4.345.314,1.822.226,2.624-.318,2.9,4.6,2.9,4.284,0-.088-.8-1.1-2.091.085-2.6,1.235-.531,1.391.905,1.913,1.592,1.9,2.5,5.146-.959,3.227-2.73C25.119,46,23.444,46,24.12,44.445c.524-1.206,3.425,1.257,4.445-1.029a2.4,2.4,0,0,0-.274-2.544c-1.259-1.584-2.918.449-3.948-.359a1.148,1.148,0,0,1-.126-1.528M8.773,58.318c.289.072.331-.12.5-.247,1.816-1.391,3.48-3.814,5.306-5.292l-.007-.673a4.8,4.8,0,0,1-3.593-.214A4.069,4.069,0,0,1,8.856,49.71c-1.122,1.355-2.934,2.611-3.975,3.97-.128.167-.319.209-.247.5h3.56a.965.965,0,0,1,.58.58Zm23.681-4.14c.072-.289-.12-.331-.247-.5-1.041-1.359-2.854-2.615-3.975-3.97a4.069,4.069,0,0,1-2.121,2.182,4.8,4.8,0,0,1-3.593.214l-.007.673c1.827,1.478,3.491,3.9,5.306,5.292.167.128.209.319.5.247V54.592a2.539,2.539,0,0,1,.58-.414Z" transform="translate(0 0)" fill="#12263f"/>
        <path id="Trazado_1000933" data-name="Trazado 1000933" d="M75.522,87.149l16.7-.044c1.195.156,1.467,1.829.165,2H75.479c-1.126-.072-.976-1.79.043-1.959" transform="translate(-62.325 -72.68)" fill="#12263f"/>
        <path id="Trazado_1000934" data-name="Trazado 1000934" d="M75.522,112.149l16.7-.044c1.195.156,1.467,1.829.165,2H75.479c-1.126-.072-.976-1.79.043-1.959" transform="translate(-62.325 -93.54)" fill="#12263f"/>
        <path id="Trazado_1000935" data-name="Trazado 1000935" d="M75.522,137.149l16.7-.044c1.195.156,1.467,1.829.165,2H75.479c-1.126-.072-.976-1.79.043-1.959" transform="translate(-62.325 -114.4)" fill="#12263f"/>
        <path id="Trazado_1000936" data-name="Trazado 1000936" d="M44.051,87.117c1.2-.353,1.859,1.587.76,1.926a1.038,1.038,0,1,1-.76-1.926" transform="translate(-36.152 -72.654)" fill="#12263f"/>
        <path id="Trazado_1000937" data-name="Trazado 1000937" d="M44.051,112.117c1.2-.353,1.859,1.587.76,1.926a1.038,1.038,0,1,1-.76-1.926" transform="translate(-36.152 -93.514)" fill="#12263f"/>
        <path id="Trazado_1000938" data-name="Trazado 1000938" d="M44.051,137.117c1.2-.353,1.859,1.587.76,1.926a1.038,1.038,0,1,1-.76-1.926" transform="translate(-36.152 -114.374)" fill="#12263f"/>
        <path id="Trazado_1000939" data-name="Trazado 1000939" d="M95.164,237.587c.356.293.648.771.987,1.087.4.089,2.04-2.959,3.03-1.048.552,1.067-.9,1.691-1.464,2.465l.007.23c3.2,2.082.864,4.4-1.441,1.35-.474-.083-1.828,2.559-2.954,1.144-.725-.911.748-2.005,1.407-2.565.006-.7-2.7-1.782-1.176-2.991.675-.537,1.058-.122,1.6.329" transform="translate(-77.679 -197.748)" fill="#12263f"/>
      </g>
    </g>
  </g>
</svg>
