<svg xmlns="http://www.w3.org/2000/svg" xmlns:xlink="http://www.w3.org/1999/xlink" width="156" height="156" viewBox="0 0 156 156">
  <defs>
    <clipPath id="clip-path">
      <rect id="Rectángulo_456659" data-name="Rectángulo 456659" width="63.388" height="82.947" fill="#12263f"/>
    </clipPath>
  </defs>
  <g id="Grupo_1183128" data-name="Grupo 1183128" transform="translate(-1234.554 -458.054)">
    <g id="Elipse_12108" data-name="Elipse 12108" transform="translate(1241.554 465.054)" fill="#30df8e" stroke="rgba(255,255,255,0.4)" stroke-width="7">
      <circle cx="71" cy="71" r="71" stroke="none"/>
      <circle cx="71" cy="71" r="74.5" fill="none"/>
    </g>
    <g id="Grupo_1186390" data-name="Grupo 1186390" transform="translate(1280.86 494.58)">
      <g id="Grupo_1186389" data-name="Grupo 1186389" clip-path="url(#clip-path)">
        <path id="Trazado_1000909" data-name="Trazado 1000909" d="M10.836,71.977c-.666-.142-.866-.964-.927-1.546-.569-5.423.434-11.775-.014-17.3-.985-3.83-6.731-3.494-7.205.394-.432,3.541.369,7.874-.039,11.5C1.94,66.706.377,66.285.212,64.464c-.3-3.311-.371-13.582.39-16.53a11.052,11.052,0,0,1,10.336-8.11,7.9,7.9,0,0,1,3.71-8.965C9.556,31.21,5.9,25.951,8.794,21.5c.32-.493,1.48-1.512,1.529-1.768.307-1.62-.1-4.561-.01-6.4a25.515,25.515,0,0,0,.421-2.656c-.055-.436-.77-1.174-1.005-1.691A6.1,6.1,0,0,1,14.568.276c3.433-.4,14.188-.4,17.44.24,5.482,1.079,10.373,6.177,10.873,11.8.139,1.562-.327,6.718.2,7.634s1.594,1.292,2.115,2.831c1.294,3.817-.807,6.3-4.086,7.753-.122.054-.458-.014-.284.326.128.249,1.6,1.173,1.965,1.54.378.383,1.227,1.813,1.54,1.98.169.09,1.884-.131,2.377-.124.455.006,1.071.292,1.395.228.182-.036,1.77-2.277,2.407-2.8,1.9-1.56,6.958-3.7,8.868-1.443,1.94,2.289,1.937,6.732.974,9.43-.242.678-1.288,2.284-1.333,2.558-.073.435.573,2.482.58,3.267.021,2.344-1.686,7.092-2.54,9.431-.186.51-.832,1.439-.891,1.79-.045.275.629.991.72,1.569A17.427,17.427,0,0,1,56.8,62.3c-.118.428-.721,1-.694,1.3.017.188,1.334,2.2,1.585,2.742a18.929,18.929,0,0,0,.845,2.246c.345.23,1.366.031,1.92.141a3.966,3.966,0,0,1,2.517,2.223c.5,1.3.455,6.365.319,7.94A3.86,3.86,0,0,1,59.691,82.7c-8.983-.609-18.977.782-27.84,0-1.251-.11-1.633-.628-2.66-1.05L4.908,81.615A6.532,6.532,0,0,1,.528,77.545a26.846,26.846,0,0,1-.293-7.1,1.225,1.225,0,0,1,2.449,0c.457,2.8-1.239,7.087,2.138,8.58.159.07,1.008.374,1.069.374H28.252v-7.42ZM40.618,18.8V13.341c0-5.165-5.158-10.224-10.195-10.622-5.089-.4-10.713.3-15.859.026a3.7,3.7,0,0,0-2.747,4.978c.8,2,4.9,5.319,7.049,5.523,5.076.481,11.761-.751,16.61.084,2.75.473,3.736,2.906,3.492,5.474ZM12.794,12.826V18.8h1.65c-.061-1.572-.16-3.021,1.026-4.227ZM36.5,29.314V16.845c0-.391-1.035-1.26-1.541-1.138l-16.862.048a1.918,1.918,0,0,0-1.134.927c-.38,1.3.492,5.471-.539,6.261-1.1.846-2.4-.355-1.977-1.667-3.778-.647-5.915,4.368-2.67,6.483.464.3,2.39.823,2.67.527.086-.09-.309-1.854,1.127-1.872,1.835-.022,1.207,2.762,1.4,3.985,1,6.519,9.311,6.542,14.258,5.536.622-3.047,1.06-7.431,5.272-6.62m2.473-1.031a3.551,3.551,0,1,0,0-7.007Zm2.679,6.8c.414-.461-2.553-2.442-3.014-2.652a6.874,6.874,0,0,0-3.753-.609,8.68,8.68,0,0,0-.237,7.8c1.943-1.993,4.181-3.954,7-4.535m9.069,0a12.229,12.229,0,0,1,6.9,4.532c1.394-1.095,1.084-7.015-.1-7.729-1.508-.909-6.155,1.481-6.805,3.2M12.382,52.913V69.5h13.19V43.123c0-.054-.685-.112-1.04-.3a5.4,5.4,0,0,1-2.574-2.991c-.12-.445-.026-1.263-.124-1.423-.077-.125-2.153-.756-2.718-1.1a12.556,12.556,0,0,1-2.412-2.122c-.667-.733-.9-2.041-1.833-1.434-1.6,1.033-2.072,3.524-1.557,5.236.265.881,1.359,1.964.52,2.8-.431.429-3.388.395-4.35.6A8.9,8.9,0,0,0,2.914,48.6c-.163.69,1.07-.177,1.384-.267a6.047,6.047,0,0,1,6.726,1.817,8.259,8.259,0,0,1,1.358,2.764m32.564,4.225V53.943c0-.254-2.878-2.734-2.893-4.118a2.418,2.418,0,0,1,1.6-2.125,27.09,27.09,0,0,1,4.7-.048,2.106,2.106,0,0,1,1.966,2.372c-.11,1.521-2.564,3.058-2.849,4.175a9.087,9.087,0,0,0,.04,2.745c2.692.468,5.793.405,7.1-2.409.944-2.036,2.722-7.731,2.477-9.845C55.812,33.721,35.258,34.377,35.262,45.7c0,1.126,1.26,3.492-.593,3.709-1.94.227-1.768-3.927-1.675-5.15.051-.662.491-1.451.411-2.048C33.3,41.4,31.774,40.117,31.959,39c-.62.761-.67,1.646-1.332,2.478-.776.976-2.581,1.489-2.581,1.644V69.5c1.3.424,2.221-.657,3.207-.812.525-.082,2.6.1,2.749-.034.084-.073.475-1.675.668-2.114.306-.7,1.78-2.774,1.81-2.945.05-.287-.492-.622-.644-.959a9.39,9.39,0,0,1-.357-4.151c.1-.648.81-1.326.81-1.662,0-.794-2.172-3-.842-4.139,1.7-1.455,2.171,1.581,2.73,2.457a4.756,4.756,0,0,0,3.367,1.991ZM24.336,38.588c-.122,1.737,1.961,2.72,3.451,2.111.58-.237,2.128-2.111,1.186-2.111ZM47.418,50.131l-2.471.1c.417.226.853,1.409,1.312,1.326.172-.031,1.374-1.237,1.16-1.427m-9.48,8.449v3.092h4.843c.174,0,1.4-1.374,3.083-1.451a5.611,5.611,0,0,1,3.718,1.451h4.843a5.948,5.948,0,0,0,0-3.092,14.311,14.311,0,0,1-2.978.834,78.083,78.083,0,0,1-10.727-.007c-1-.108-1.807-.723-2.781-.826m9.824,4.6c-1.927-1.927-5.009.962-3.134,3.031,1.927,2.126,5.183-.981,3.134-3.031M39.381,80.221H52.16a48.524,48.524,0,0,1-.215-7.532c.18-2.413,1.4-3.96,3.926-4.011.043-1.071-1.881-4.358-2.789-4.528-.7-.131-1.63.08-2.366-.006.477,6.9-9.43,6.818-9.066,0-3.146-.7-4.238,1.95-5.162,4.418A4.945,4.945,0,0,1,39.214,70.8c.646,1.491.445,6.238.383,8.086-.015.461-.21.873-.216,1.33M31.49,71.2a1.236,1.236,0,0,0-.776,1.079,48.53,48.53,0,0,0,.163,7.278c.428.932,3.886.791,4.9.671a1.3,1.3,0,0,0,1.183-.671,42.177,42.177,0,0,0,.162-6.865,1.786,1.786,0,0,0-.51-1.345A20.267,20.267,0,0,0,31.49,71.2m23.7,0c-.5.15-.712.828-.766,1.295a44.556,44.556,0,0,0,.157,7.066c.428.932,3.886.791,4.9.671.911-.108,1.232-.429,1.34-1.34a53.881,53.881,0,0,0-.112-7.11,1.3,1.3,0,0,0-.825-.618,32.261,32.261,0,0,0-4.695.035" transform="translate(0 -0.001)" fill="#12263f"/>
        <path id="Trazado_1000910" data-name="Trazado 1000910" d="M243.977,209.482c2.066-.084,1.705,4.864-.553,3.763-.878-.428-1.134-3.694.553-3.763" transform="translate(-192.708 -166.307)" fill="#12263f"/>
        <path id="Trazado_1000911" data-name="Trazado 1000911" d="M194.036,213c-.466-.465-.537-3.1.423-3.508,1.71-.721,1.866,1.887,1.546,3a1.288,1.288,0,0,1-1.968.509" transform="translate(-153.782 -166.215)" fill="#12263f"/>
        <path id="Trazado_1000912" data-name="Trazado 1000912" d="M104.2,140.956c1.163-1.216,2.5.792,3.649,1.087a4.714,4.714,0,0,0,3.175-.34c.977-.458,2.029-2,3.028-.5,1.035,1.553-2.676,3.183-3.881,3.36a7.009,7.009,0,0,1-4.167-.672c-.878-.429-2.846-1.842-1.8-2.931" transform="translate(-82.488 -111.59)" fill="#12263f"/>
        <path id="Trazado_1000913" data-name="Trazado 1000913" d="M117.642,104.266c1.148-.238,1.8.719,1.341,1.766-.176.4-1.06,1.022-1.031,1.394.026.329,1.355.9,1.192,2.046a1.249,1.249,0,0,1-1.139.961c-.887.053-3.018-2.148-3-3.014a7.26,7.26,0,0,1,2.64-3.154" transform="translate(-91.3 -82.747)" fill="#12263f"/>
        <path id="Trazado_1000914" data-name="Trazado 1000914" d="M98.633,98.1c2.142-.659,2.133,2.922,1.209,3.477-2.252,1.353-2.58-3.055-1.209-3.477" transform="translate(-77.657 -77.82)" fill="#12263f"/>
        <path id="Trazado_1000915" data-name="Trazado 1000915" d="M149.343,98.015c1.948-.588,1.911,1.341,1.7,2.726a1.181,1.181,0,0,1-2.212.385c-.178-.608-.249-2.881.515-3.111" transform="translate(-118.062 -77.728)" fill="#12263f"/>
      </g>
    </g>
  </g>
</svg>
